<?xml version="1.0" encoding="UTF-8" standalone="no"?>
<svg
   xmlns:dc="http://purl.org/dc/elements/1.1/"
   xmlns:cc="http://creativecommons.org/ns#"
   xmlns:rdf="http://www.w3.org/1999/02/22-rdf-syntax-ns#"
   xmlns:svg="http://www.w3.org/2000/svg"
   xmlns="http://www.w3.org/2000/svg"
   xmlns:xlink="http://www.w3.org/1999/xlink"
   xmlns:sodipodi="http://sodipodi.sourceforge.net/DTD/sodipodi-0.dtd"
   xmlns:inkscape="http://www.inkscape.org/namespaces/inkscape"
   width="224.2368mm"
   height="123.23595mm"
   viewBox="0 0 224.2368 123.23595"
   version="1.1"
   id="svg8093"
   sodipodi:docname="neon2.svg"
   inkscape:version="1.0.1 (3bc2e813f5, 2020-09-07)">
  <defs
     id="defs8087">
    <radialGradient
       inkscape:collect="always"
       xlink:href="#linearGradient5532"
       id="radialGradient5534"
       cx="-39.403709"
       cy="157.74825"
       fx="-39.403709"
       fy="157.74825"
       r="112.1184"
       gradientTransform="matrix(0.99999997,0,0,0.54957948,399.5295,-56.227993)"
       gradientUnits="userSpaceOnUse" />
    <linearGradient
       inkscape:collect="always"
       id="linearGradient5532">
      <stop
         style="stop-color:#000000;stop-opacity:0.36728094"
         offset="0"
         id="stop5528" />
      <stop
         style="stop-color:#000000;stop-opacity:0.839"
         offset="0.77152729"
         id="stop5536" />
      <stop
         style="stop-color:#000000;stop-opacity:1"
         offset="1"
         id="stop5530" />
    </linearGradient>
    <filter
       inkscape:collect="always"
       style="color-interpolation-filters:sRGB"
       id="filter8799"
       x="-0.064730786"
       width="1.1294616"
       y="-0.32574147"
       height="1.6514829">
      <feGaussianBlur
         inkscape:collect="always"
         stdDeviation="4.221186"
         id="feGaussianBlur8801" />
    </filter>
    <filter
       inkscape:collect="always"
       style="color-interpolation-filters:sRGB"
       id="filter8807"
       x="-0.02876924"
       width="1.0575385"
       y="-0.14477399"
       height="1.289548">
      <feGaussianBlur
         inkscape:collect="always"
         stdDeviation="1.8760826"
         id="feGaussianBlur8809" />
    </filter>
    <filter
       inkscape:collect="always"
       style="color-interpolation-filters:sRGB"
       id="filter8811"
       x="-0.0071923095"
       width="1.0143846"
       y="-0.036193497"
       height="1.072387">
      <feGaussianBlur
         inkscape:collect="always"
         stdDeviation="0.46902066"
         id="feGaussianBlur8813" />
    </filter>
  </defs>
  <sodipodi:namedview
     id="base"
     pagecolor="#c4c4c4"
     bordercolor="#666666"
     borderopacity="1.0"
     inkscape:pageopacity="0"
     inkscape:pageshadow="2"
     inkscape:zoom="1"
     inkscape:cx="482.49691"
     inkscape:cy="312.73026"
     inkscape:document-units="px"
     inkscape:current-layer="layer1"
     inkscape:document-rotation="0"
     showgrid="false"
     showborder="false"
     inkscape:window-width="1920"
     inkscape:window-height="1016"
     inkscape:window-x="0"
     inkscape:window-y="27"
     inkscape:window-maximized="1"
     inkscape:snap-global="false"
     fit-margin-top="0"
     fit-margin-left="0"
     fit-margin-right="0"
     fit-margin-bottom="0"
     showguides="true"
     inkscape:guide-bbox="true" />
  <metadata
     id="metadata8090">
    <rdf:RDF>
      <cc:Work
         rdf:about="">
        <dc:format>image/svg+xml</dc:format>
        <dc:type
           rdf:resource="http://purl.org/dc/dcmitype/StillImage" />
        <dc:title />
      </cc:Work>
    </rdf:RDF>
  </metadata>
  <g
     inkscape:label="Layer 1"
     inkscape:groupmode="layer"
     id="layer1"
     transform="translate(-248.00739,31.150766)">
    <text
       xml:space="preserve"
       style="font-style:normal;font-weight:normal;font-size:10.5833px;line-height:1.25;font-family:sans-serif;letter-spacing:0px;word-spacing:0px;fill:#000000;fill-opacity:1;stroke:none;stroke-width:0.264583"
       x="-3.6497369"
       y="93.780098"
       id="text8666"><tspan
         sodipodi:role="line"
         id="tspan8664"
         x="-3.6497369"
         y="93.780098"
         style="stroke-width:0.264583" /></text>
    <rect
       style="opacity:1;fill:#ff9900;fill-opacity:1;stroke:none;stroke-width:1.06182;stroke-linecap:round;stroke-linejoin:round;stroke-miterlimit:4;stroke-dasharray:none;stroke-opacity:0.823529"
       id="rect5322"
       width="224.2368"
       height="123.23595"
       x="248.00739"
       y="-31.150766"
       inkscape:export-xdpi="96"
       inkscape:export-ydpi="96" />
    <rect
       style="opacity:1;fill:url(#radialGradient5534);fill-opacity:1;stroke:none;stroke-width:1.06177;stroke-linecap:round;stroke-linejoin:round;stroke-miterlimit:4;stroke-dasharray:none;stroke-opacity:0.823529"
       id="rect5520"
       width="224.2368"
       height="123.23595"
       x="248.00739"
       y="-31.150766"
       inkscape:export-xdpi="96"
       inkscape:export-ydpi="96" />
    <g
       id="g10944">
      <path
         id="path8670"
         style="font-style:normal;font-variant:normal;font-weight:normal;font-stretch:normal;font-size:91.0517px;line-height:1.25;font-family:'Learning Curve';-inkscape-font-specification:'Learning Curve';letter-spacing:0px;word-spacing:0px;fill:#a56300;fill-opacity:1;stroke:#a36200;stroke-width:6.61458;stroke-linecap:round;stroke-linejoin:round;stroke-miterlimit:4;stroke-dasharray:none;stroke-opacity:1;filter:url(#filter8799)"
         d="m 377.55122,14.916766 c -5.5923,0 -8.63416,9.418941 -8.63416,14.226361 0,3.92441 1.17786,6.86759 3.53252,8.63358 1.5832,1.01081 3.48482,1.75262 5.19964,1.7657 4.8074,0 9.22214,-4.02251 13.24467,-8.53559 0.10153,-0.10154 0.17596,-0.22967 0.22496,-0.37029 3.46106,-3.96287 8.95919,-10.366852 11.05801,-11.893252 1.07921,-0.78488 1.8636,-1.07914 2.45227,-1.07914 0.88299,0 1.07969,0.78471 1.07969,1.6677 0,4.218742 -5.49441,16.188442 -9.32073,23.350512 -0.39244,0.78488 -0.49056,1.07925 -0.49056,1.4717 0,0.78488 0.39269,1.27512 1.27569,1.27512 0.29432,0 0.8826,-0.0981 1.37313,-0.88312 1.66789,-2.7471 5.887,-10.69378 10.6944,-16.77662 4.31687,-5.396072 9.22206,-9.909282 13.83325,-9.909282 1.07921,0 1.66825,0.19614 1.66825,1.56969 0,2.45277 -2.25653,7.358202 -4.02253,11.086422 -2.15843,4.61119 -4.12106,8.83033 -4.12106,11.67553 0,1.66788 1.07919,3.53195 3.53194,3.53195 4.80742,0 12.2639,-8.33975 17.95431,-14.71692 0.19622,-0.19622 0.29456,-0.49023 0.29456,-0.78456 0,-0.68678 -0.3928,-1.2757 -1.17768,-1.2757 -0.29434,0 -0.68635,0.19635 -0.88257,0.39256 -5.78852,6.47531 -12.65619,13.93179 -16.09005,13.93179 -0.78488,0 -1.1777,-0.39268 -1.1777,-1.27568 0,-2.25654 2.06042,-6.96587 3.92452,-10.49784 1.37354,-2.64898 4.21908,-8.829922 4.21908,-12.558112 0,-2.25655 -1.76642,-3.53194 -4.12107,-3.53194 -5.98474,0 -11.87124,5.39603 -17.16919,12.558092 0.98111,-2.55087 2.35483,-6.769602 2.35483,-8.535592 0,-1.9622 -1.27588,-4.21852 -3.63051,-4.21852 -1.17734,0 -2.55042,0.58859 -3.92397,1.5697 -2.35464,1.76599 -8.33977,8.633692 -11.67553,12.558102 -0.10132,0.10132 -0.20076,0.2555 -0.27507,0.42097 -4.43295,5.00153 -7.95381,7.33005 -11.00735,7.33005 -1.40679,0.009 -2.68893,-0.48987 -3.8265,-1.27568 -2.25653,-1.56978 -2.55082,-4.80724 -2.55082,-6.67133 0,-3.92442 2.55124,-11.773552 6.18133,-11.773552 1.66787,0 1.8637,3.23753 1.8637,4.61109 0,4.200752 -1.72918,8.256922 -4.1968,11.985132 0.36427,0.85946 1.21883,1.10824 2.2223,1.17156 2.44189,-3.87045 4.42732,-8.41476 4.42732,-13.254702 0,-2.55088 -0.78455,-6.96589 -4.31652,-6.965889 z m -77.70344,0.29455 c -1.17732,0 -2.55097,0.58859 -3.92451,1.5697 -1.3848,1.03859 -8.01353,8.443261 -13.93068,15.176291 -0.41447,0.98012 0.25719,2.26301 1.75344,1.72227 5.86233,-6.68633 12.37933,-14.012951 13.64893,-14.936301 1.07921,-0.78488 1.86415,-1.07914 2.45282,-1.07914 0.883,0 1.07914,0.78471 1.07914,1.6677 0,4.218741 -5.49385,16.188441 -9.32017,23.350511 -0.39245,0.78488 -0.49057,1.07925 -0.49057,1.4717 0,0.78488 0.39213,1.27512 1.27514,1.27512 0.29432,0 0.88313,-0.0981 1.37369,-0.88312 1.66787,-2.7471 5.88643,-10.69378 10.69385,-16.77662 4.31685,-5.396071 9.2226,-9.909281 13.83379,-9.909281 1.07922,0 1.66769,0.19614 1.66769,1.56969 0,2.452769 -2.25652,7.358201 -4.02251,11.086421 -2.15844,4.61119 -4.1205,8.83033 -4.1205,11.67553 0,1.66788 1.07918,3.53195 3.53194,3.53195 3.07165,0 7.22333,-3.40679 11.30579,-7.52885 -0.0873,-1.4844 0.4678,-3.06105 1.05464,-4.64226 -4.74832,5.1144 -9.56361,9.71828 -12.26244,9.71828 -0.78487,0 -1.17712,-0.39268 -1.17712,-1.27568 0,-2.25654 2.06041,-6.96587 3.9245,-10.49784 1.37355,-2.64898 4.21853,-8.829922 4.21853,-12.558112 0,-2.25655 -1.76587,-3.53194 -4.12052,-3.53194 -5.98475,0 -11.87122,5.39603 -17.16918,12.558092 0.98109,-2.55087 2.35426,-6.769602 2.35426,-8.535592 0,-1.9622 -1.2753,-4.21852 -3.62995,-4.218519 z m 45.9159,0.0979 c -6.21063,0 -11.96426,7.36136 -14.70468,14.561021 -0.72375,2.57379 -1.67019,5.35132 -1.67993,7.90637 0,4.31688 2.06038,8.24104 7.45646,8.24104 5.31166,0 12.34388,-4.18977 19.529,-11.58868 -0.19841,1.10759 -0.29957,2.16747 -0.29958,3.15165 0,4.02252 2.06005,8.24101 6.76935,8.24101 3.8244,0 7.29476,-2.32732 10.23558,-5.24585 -1.05012,-0.0832 -1.87024,-0.40928 -2.39045,-1.05184 -2.14607,1.97871 -4.8196,3.84487 -7.84513,3.84487 -2.94332,0 -4.31652,-2.74677 -4.31652,-5.78819 0,-5.88664 4.21879,-14.815152 11.47897,-19.622571 0.39245,-0.294351 0.58858,-0.68669 0.58858,-1.079131 0,-0.588669 -0.58894,-1.17712 -1.27571,-1.17712 -0.19621,0 -0.39235,0.0978 -0.58855,0.19599 -5.14404,3.38902 -8.75512,8.383062 -10.76903,13.232422 -0.0861,0.055 -0.16194,0.12266 -0.21939,0.20881 -8.73183,10.00728 -16.4825,14.22637 -21.09369,14.22637 -3.33575,0 -4.80708,-2.25701 -4.80708,-5.59277 0,-1.8641 0.29446,-3.62989 0.88312,-5.69021 l 1.07913,-2.74683 c 1.96222,-4.31685 6.86781,-11.773541 11.96955,-11.773541 0.88299,0 2.55082,0.3926 2.55082,1.864269 0,2.58732 -3.83124,6.827482 -12.80144,9.443222 -0.66253,0.84933 -1.01042,1.77851 -1.00228,2.79804 10.86302,-2.69606 16.25654,-7.86047 16.25654,-12.143271 0,-2.74709 -1.96222,-4.41508 -5.00364,-4.41508 z"
         sodipodi:nodetypes="ssccccssscssccsscsscsscsscsscsscccccsssccssscccssscssccsscssccsscsscsssccscssccsscsscccssccssccss"
         transform="matrix(0.71538492,0,0,0.71538492,102.49723,13.433929)" />
      <path
         id="path8785"
         style="font-style:normal;font-variant:normal;font-weight:normal;font-stretch:normal;font-size:91.0517px;line-height:1.25;font-family:'Learning Curve';-inkscape-font-specification:'Learning Curve';letter-spacing:0px;word-spacing:0px;fill:#ff9900;fill-opacity:1;stroke:#ff9900;stroke-width:5.02708;stroke-miterlimit:4;stroke-dasharray:none;stroke-opacity:1;filter:url(#filter8807)"
         d="m 377.55123,14.916761 c -5.5923,0 -8.63416,9.41895 -8.63416,14.22637 0,3.92441 1.17786,6.86759 3.53252,8.63358 1.5832,1.01081 3.48482,1.75262 5.19964,1.7657 4.8074,0 9.22214,-4.02251 13.24467,-8.53559 0.10153,-0.10154 0.17596,-0.22967 0.22496,-0.37029 3.46106,-3.96287 8.95919,-10.36686 11.05801,-11.89326 1.07921,-0.78488 1.8636,-1.07914 2.45227,-1.07914 0.88299,0 1.07969,0.78471 1.07969,1.6677 0,4.21875 -5.49441,16.18845 -9.32073,23.35052 -0.39244,0.78488 -0.49056,1.07925 -0.49056,1.4717 0,0.78488 0.39269,1.27512 1.27569,1.27512 0.29432,0 0.8826,-0.0981 1.37313,-0.88312 1.66789,-2.7471 5.887,-10.69378 10.6944,-16.77662 4.31687,-5.39608 9.22206,-9.90929 13.83325,-9.90929 1.07921,0 1.66825,0.19614 1.66825,1.56969 0,2.45277 -2.25653,7.35821 -4.02253,11.08643 -2.15843,4.61119 -4.12106,8.83033 -4.12106,11.67553 0,1.66788 1.07919,3.53195 3.53194,3.53195 4.80742,0 12.2639,-8.33975 17.95431,-14.71692 0.19622,-0.19622 0.29456,-0.49023 0.29456,-0.78456 0,-0.68678 -0.3928,-1.2757 -1.17768,-1.2757 -0.29434,0 -0.68635,0.19635 -0.88257,0.39256 -5.78852,6.47531 -12.65619,13.93179 -16.09005,13.93179 -0.78488,0 -1.1777,-0.39268 -1.1777,-1.27568 0,-2.25654 2.06042,-6.96587 3.92452,-10.49784 1.37354,-2.64898 4.21908,-8.82993 4.21908,-12.55812 0,-2.25655 -1.76642,-3.53194 -4.12107,-3.53194 -5.98474,0 -11.87124,5.39603 -17.16919,12.5581 0.98111,-2.55087 2.35483,-6.76961 2.35483,-8.5356 0,-1.9622 -1.27588,-4.21852 -3.63051,-4.21852 -1.17734,0 -2.55042,0.58859 -3.92397,1.5697 -2.35464,1.76599 -8.33977,8.6337 -11.67553,12.55811 -0.10132,0.10132 -0.20076,0.2555 -0.27507,0.42097 -4.43295,5.00153 -7.95381,7.33005 -11.00735,7.33005 -1.40679,0.009 -2.68893,-0.48987 -3.8265,-1.27568 -2.25653,-1.56978 -2.55082,-4.80724 -2.55082,-6.67133 0,-3.92442 2.55124,-11.77356 6.18133,-11.77356 1.66787,0 1.8637,3.23753 1.8637,4.61109 0,4.20076 -1.72918,8.25693 -4.1968,11.98514 0.36427,0.85946 1.21883,1.10824 2.2223,1.17156 2.44189,-3.87045 4.42732,-8.41476 4.42732,-13.25471 0,-2.55088 -0.78455,-6.96589 -4.31652,-6.96589 z m -77.70344,0.29455 c -1.17732,0 -2.55097,0.58859 -3.92451,1.5697 -1.3848,1.03859 -8.01353,8.44327 -13.93068,15.1763 -0.41447,0.98012 0.25719,2.26301 1.75344,1.72227 5.86233,-6.68633 12.37933,-14.01296 13.64893,-14.93631 1.07921,-0.78488 1.86415,-1.07914 2.45282,-1.07914 0.883,0 1.07914,0.78471 1.07914,1.6677 0,4.21875 -5.49385,16.18845 -9.32017,23.35052 -0.39245,0.78488 -0.49057,1.07925 -0.49057,1.4717 0,0.78488 0.39213,1.27512 1.27514,1.27512 0.29432,0 0.88313,-0.0981 1.37369,-0.88312 1.66787,-2.7471 5.88643,-10.69378 10.69385,-16.77662 4.31685,-5.39608 9.2226,-9.90929 13.83379,-9.90929 1.07922,0 1.66769,0.19614 1.66769,1.56969 0,2.45277 -2.25652,7.35821 -4.02251,11.08643 -2.15844,4.61119 -4.1205,8.83033 -4.1205,11.67553 0,1.66788 1.07918,3.53195 3.53194,3.53195 3.07165,0 7.22333,-3.40679 11.30579,-7.52885 -0.0873,-1.4844 0.4678,-3.06105 1.05464,-4.64226 -4.74832,5.1144 -9.56361,9.71828 -12.26244,9.71828 -0.78487,0 -1.17712,-0.39268 -1.17712,-1.27568 0,-2.25654 2.06041,-6.96587 3.9245,-10.49784 1.37355,-2.64898 4.21853,-8.82993 4.21853,-12.55812 0,-2.25655 -1.76587,-3.53194 -4.12052,-3.53194 -5.98475,0 -11.87122,5.39603 -17.16918,12.5581 0.98109,-2.55087 2.35426,-6.76961 2.35426,-8.5356 0,-1.9622 -1.2753,-4.21852 -3.62995,-4.21852 z m 45.9159,0.0979 c -6.21063,0 -11.96426,7.36136 -14.70468,14.56103 -0.72375,2.57379 -1.67019,5.35132 -1.67993,7.90637 0,4.31688 2.06038,8.24104 7.45646,8.24104 5.31166,0 12.34388,-4.18977 19.529,-11.58868 -0.19841,1.10759 -0.29957,2.16747 -0.29958,3.15165 0,4.02252 2.06005,8.24101 6.76935,8.24101 3.8244,0 7.29476,-2.32732 10.23558,-5.24585 -1.05012,-0.0832 -1.87024,-0.40928 -2.39045,-1.05184 -2.14607,1.97871 -4.8196,3.84487 -7.84513,3.84487 -2.94332,0 -4.31652,-2.74677 -4.31652,-5.78819 0,-5.88664 4.21879,-14.81516 11.47897,-19.62258 0.39245,-0.29435 0.58858,-0.68669 0.58858,-1.07913 0,-0.58867 -0.58894,-1.17712 -1.27571,-1.17712 -0.19621,0 -0.39235,0.0978 -0.58855,0.19599 -5.14404,3.38902 -8.75512,8.38307 -10.76903,13.23243 -0.0861,0.055 -0.16194,0.12266 -0.21939,0.20881 -8.73183,10.00728 -16.4825,14.22637 -21.09369,14.22637 -3.33575,0 -4.80708,-2.25701 -4.80708,-5.59277 0,-1.8641 0.29446,-3.62989 0.88312,-5.69021 l 1.07913,-2.74683 c 1.96222,-4.31685 6.86781,-11.77355 11.96955,-11.77355 0.88299,0 2.55082,0.3926 2.55082,1.86427 0,2.58732 -3.83124,6.82749 -12.80144,9.44323 -0.66253,0.84933 -1.01042,1.77851 -1.00228,2.79804 10.86302,-2.69606 16.25654,-7.86047 16.25654,-12.14328 0,-2.74709 -1.96222,-4.41508 -5.00364,-4.41508 z"
         sodipodi:nodetypes="ssccccssscssccsscsscsscsscsscsscccccsssccssscccssscssccsscssccsscsscsssccscssccsscsscccssccssccss"
         transform="matrix(0.71538492,0,0,0.71538492,102.49723,13.433929)" />
      <path
         id="path8783"
         style="font-style:normal;font-variant:normal;font-weight:normal;font-stretch:normal;font-size:91.0517px;line-height:1.25;font-family:'Learning Curve';-inkscape-font-specification:'Learning Curve';letter-spacing:0px;word-spacing:0px;fill:#ffb94c;fill-opacity:1;stroke:#ffb94c;stroke-width:0.79375;stroke-miterlimit:4;stroke-dasharray:none;stroke-opacity:1;filter:url(#filter8811)"
         d="m 377.55123,14.916766 c -5.5923,0 -8.63416,9.418941 -8.63416,14.226361 0,3.92441 1.17786,6.86759 3.53252,8.63358 1.5832,1.01081 3.48482,1.75262 5.19964,1.7657 4.8074,0 9.22214,-4.02251 13.24467,-8.53559 0.10153,-0.10154 0.17596,-0.22967 0.22496,-0.37029 3.46106,-3.96287 8.95919,-10.366851 11.05801,-11.893251 1.07921,-0.78488 1.8636,-1.07914 2.45227,-1.07914 0.88299,0 1.07969,0.78471 1.07969,1.6677 0,4.218741 -5.49441,16.188441 -9.32073,23.350511 -0.39244,0.78488 -0.49056,1.07925 -0.49056,1.4717 0,0.78488 0.39269,1.27512 1.27569,1.27512 0.29432,0 0.8826,-0.0981 1.37313,-0.88312 1.66789,-2.7471 5.887,-10.69378 10.6944,-16.77662 4.31687,-5.396071 9.22206,-9.909281 13.83325,-9.909281 1.07921,0 1.66825,0.19614 1.66825,1.56969 0,2.45277 -2.25653,7.358201 -4.02253,11.086421 -2.15843,4.61119 -4.12106,8.83033 -4.12106,11.67553 0,1.66788 1.07919,3.53195 3.53194,3.53195 4.80742,0 12.2639,-8.33975 17.95431,-14.71692 0.19622,-0.19622 0.29456,-0.49023 0.29456,-0.78456 0,-0.68678 -0.3928,-1.2757 -1.17768,-1.2757 -0.29434,0 -0.68635,0.19635 -0.88257,0.39256 -5.78852,6.47531 -12.65619,13.93179 -16.09005,13.93179 -0.78488,0 -1.1777,-0.39268 -1.1777,-1.27568 0,-2.25654 2.06042,-6.96587 3.92452,-10.49784 1.37354,-2.64898 4.21908,-8.829921 4.21908,-12.558111 0,-2.25655 -1.76642,-3.53194 -4.12107,-3.53194 -5.98474,0 -11.87124,5.39603 -17.16919,12.558091 0.98111,-2.55087 2.35483,-6.769601 2.35483,-8.535591 0,-1.9622 -1.27588,-4.21852 -3.63051,-4.21852 -1.17734,0 -2.55042,0.58859 -3.92397,1.5697 -2.35464,1.76599 -8.33977,8.633691 -11.67553,12.558101 -0.10132,0.10132 -0.20076,0.2555 -0.27507,0.42097 -4.43295,5.00153 -7.95381,7.33005 -11.00735,7.33005 -1.40679,0.009 -2.68893,-0.48987 -3.8265,-1.27568 -2.25653,-1.56978 -2.55082,-4.80724 -2.55082,-6.67133 0,-3.92442 2.55124,-11.773551 6.18133,-11.773551 1.66787,0 1.8637,3.23753 1.8637,4.61109 0,4.200751 -1.72918,8.256921 -4.1968,11.985131 0.36427,0.85946 1.21883,1.10824 2.2223,1.17156 2.44189,-3.87045 4.42732,-8.41476 4.42732,-13.254701 0,-2.55088 -0.78455,-6.96589 -4.31652,-6.96589 z m -77.70344,0.29455 c -1.17732,0 -2.55097,0.58859 -3.92451,1.5697 -1.3848,1.03859 -8.01353,8.443261 -13.93068,15.176291 -0.41447,0.98012 0.25719,2.26301 1.75344,1.72227 5.86233,-6.68633 12.37933,-14.012951 13.64893,-14.936301 1.07921,-0.78488 1.86415,-1.07914 2.45282,-1.07914 0.883,0 1.07914,0.78471 1.07914,1.6677 0,4.218741 -5.49385,16.188441 -9.32017,23.350511 -0.39245,0.78488 -0.49057,1.07925 -0.49057,1.4717 0,0.78488 0.39213,1.27512 1.27514,1.27512 0.29432,0 0.88313,-0.0981 1.37369,-0.88312 1.66787,-2.7471 5.88643,-10.69378 10.69385,-16.77662 4.31685,-5.396071 9.2226,-9.909281 13.83379,-9.909281 1.07922,0 1.66769,0.19614 1.66769,1.56969 0,2.45277 -2.25652,7.358201 -4.02251,11.086421 -2.15844,4.61119 -4.1205,8.83033 -4.1205,11.67553 0,1.66788 1.07918,3.53195 3.53194,3.53195 3.07165,0 7.22333,-3.40679 11.30579,-7.52885 -0.0873,-1.4844 0.4678,-3.06105 1.05464,-4.64226 -4.74832,5.1144 -9.56361,9.71828 -12.26244,9.71828 -0.78487,0 -1.17712,-0.39268 -1.17712,-1.27568 0,-2.25654 2.06041,-6.96587 3.9245,-10.49784 1.37355,-2.64898 4.21853,-8.829921 4.21853,-12.558111 0,-2.25655 -1.76587,-3.53194 -4.12052,-3.53194 -5.98475,0 -11.87122,5.39603 -17.16918,12.558091 0.98109,-2.55087 2.35426,-6.769601 2.35426,-8.535591 0,-1.9622 -1.2753,-4.21852 -3.62995,-4.21852 z m 45.9159,0.0979 c -6.21063,0 -11.96426,7.36136 -14.70468,14.561021 -0.72375,2.57379 -1.67019,5.35132 -1.67993,7.90637 0,4.31688 2.06038,8.24104 7.45646,8.24104 5.31166,0 12.34388,-4.18977 19.529,-11.58868 -0.19841,1.10759 -0.29957,2.16747 -0.29958,3.15165 0,4.02252 2.06005,8.24101 6.76935,8.24101 3.8244,0 7.29476,-2.32732 10.23558,-5.24585 -1.05012,-0.0832 -1.87024,-0.40928 -2.39045,-1.05184 -2.14607,1.97871 -4.8196,3.84487 -7.84513,3.84487 -2.94332,0 -4.31652,-2.74677 -4.31652,-5.78819 0,-5.88664 4.21879,-14.815151 11.47897,-19.622571 0.39245,-0.29435 0.58858,-0.68669 0.58858,-1.07913 0,-0.58867 -0.58894,-1.17712 -1.27571,-1.17712 -0.19621,0 -0.39235,0.0978 -0.58855,0.19599 -5.14404,3.38902 -8.75512,8.383061 -10.76903,13.232421 -0.0861,0.055 -0.16194,0.12266 -0.21939,0.20881 -8.73183,10.00728 -16.4825,14.22637 -21.09369,14.22637 -3.33575,0 -4.80708,-2.25701 -4.80708,-5.59277 0,-1.8641 0.29446,-3.62989 0.88312,-5.69021 l 1.07913,-2.74683 c 1.96222,-4.31685 6.86781,-11.773541 11.96955,-11.773541 0.88299,0 2.55082,0.3926 2.55082,1.86427 0,2.58732 -3.83124,6.827481 -12.80144,9.443221 -0.66253,0.84933 -1.01042,1.77851 -1.00228,2.79804 10.86302,-2.69606 16.25654,-7.86047 16.25654,-12.143271 0,-2.74709 -1.96222,-4.41508 -5.00364,-4.41508 z"
         sodipodi:nodetypes="ssccccssscssccsscsscsscsscsscsscccccsssccssscccssscssccsscssccsscsscsssccscssccsscsscccssccssccss"
         transform="matrix(0.71538492,0,0,0.71538492,102.49723,13.433929)" />
      <path
         id="path8825"
         style="font-style:normal;font-variant:normal;font-weight:normal;font-stretch:normal;font-size:91.0517px;line-height:1.25;font-family:'Learning Curve';-inkscape-font-specification:'Learning Curve';letter-spacing:0px;word-spacing:0px;opacity:0.15;fill:#000000;fill-opacity:1;stroke:none;stroke-width:1.62848"
         d="m 371.69518,26.844115 c -3.71293,0 -5.73254,6.253584 -5.73254,9.445389 0,2.605546 0.78203,4.559622 2.34538,5.732121 1.05114,0.671112 2.3137,1.163623 3.45223,1.172307 3.19181,0 6.12292,-2.670677 8.79362,-5.667062 0.0674,-0.06742 0.11683,-0.152484 0.14937,-0.245847 2.29792,-2.631083 5.94834,-6.882912 7.34182,-7.896346 0.71652,-0.521111 1.23731,-0.716481 1.62815,-0.716481 0.58624,0 0.71685,0.520998 0.71685,1.107248 0,2.80098 -3.64794,10.748063 -6.18838,15.503198 -0.26055,0.521109 -0.3257,0.71655 -0.3257,0.977111 0,0.521108 0.26072,0.846595 0.84698,0.846595 0.19541,0 0.58599,-0.06513 0.91167,-0.586333 1.10737,-1.823891 3.90859,-7.099956 7.1004,-11.138557 2.86613,-3.582636 6.12287,-6.579123 9.18441,-6.579123 0.71653,0 1.10762,0.130224 1.10762,1.042175 0,1.628485 -1.4982,4.885371 -2.67071,7.360661 -1.43306,3.061521 -2.73612,5.862749 -2.73612,7.751772 0,1.107361 0.71651,2.344979 2.34498,2.344979 3.19183,0 8.14245,-5.537037 11.92053,-9.771052 0.13028,-0.130276 0.19557,-0.32548 0.19557,-0.520895 0,-0.455976 -0.2608,-0.84698 -0.78191,-0.84698 -0.19542,0 -0.45569,0.130364 -0.58597,0.260633 -3.8432,4.299174 -8.40291,9.249779 -10.68278,9.249779 -0.5211,0 -0.78191,-0.260713 -0.78191,-0.846967 0,-1.498191 1.36799,-4.624872 2.60563,-6.969865 0.91194,-1.758746 2.8012,-5.862483 2.8012,-8.337766 0,-1.498208 -1.17278,-2.344986 -2.73613,-2.344986 -3.97349,0 -7.88175,3.582624 -11.39926,8.337767 0.6514,-1.693607 1.56346,-4.494574 1.56346,-5.66708 0,-1.302777 -0.84711,-2.800832 -2.41043,-2.800832 -0.78168,0 -1.69331,0.390787 -2.60527,1.042181 -1.56333,1.172507 -5.53708,5.732223 -7.75181,8.337769 -0.0673,0.06727 -0.13329,0.169635 -0.18263,0.279497 -2.9432,3.320682 -5.28083,4.866664 -7.30819,4.866664 -0.93402,0.0059 -1.78528,-0.325241 -2.54056,-0.846967 -1.49819,-1.042229 -1.69358,-3.191687 -1.69358,-4.429318 0,-2.605553 1.69386,-7.816877 4.10401,-7.816877 1.10736,0 1.23738,2.149516 1.23738,3.061473 0,2.789026 -1.14806,5.482054 -2.78641,7.957336 0.24186,0.570623 0.80923,0.735797 1.47547,0.777836 1.62126,-2.569719 2.93946,-5.586838 2.93946,-8.800245 0,-1.693623 -0.52089,-4.624912 -2.8659,-4.624912 z M 320.105,27.039678 c -0.78167,0 -1.69368,0.390787 -2.60564,1.042181 -0.91941,0.68956 -5.32047,5.60579 -9.24909,10.076072 -0.27518,0.650736 0.17076,1.502488 1.16418,1.143473 3.89221,-4.439276 8.21909,-9.303681 9.06203,-9.916727 0.71652,-0.521111 1.23767,-0.716481 1.62852,-0.716481 0.58625,0 0.71648,0.520998 0.71648,1.107248 0,2.80098 -3.64757,10.748063 -6.18801,15.503198 -0.26057,0.521109 -0.32571,0.71655 -0.32571,0.977111 0,0.521108 0.26035,0.846595 0.84661,0.846595 0.19541,0 0.58634,-0.06513 0.91204,-0.586333 1.10736,-1.823891 3.90823,-7.099956 7.10005,-11.138557 2.86612,-3.582636 6.12323,-6.579123 9.18476,-6.579123 0.71654,0 1.10724,0.130224 1.10724,1.042175 0,1.628485 -1.49818,4.885371 -2.67068,7.360661 -1.43307,3.061521 -2.73576,5.862749 -2.73576,7.751772 0,1.107361 0.71651,2.344979 2.34498,2.344979 2.03939,0 4.79584,-2.26188 7.50634,-4.998653 -0.058,-0.985543 0.31059,-2.032334 0.70021,-3.082152 -3.15258,3.395622 -6.34963,6.45229 -8.14148,6.45229 -0.5211,0 -0.78154,-0.260713 -0.78154,-0.846967 0,-1.498191 1.36798,-4.624872 2.60563,-6.969865 0.91194,-1.758746 2.80084,-5.862483 2.80084,-8.337766 0,-1.498208 -1.17243,-2.344986 -2.73578,-2.344986 -3.9735,0 -7.88174,3.582624 -11.39925,8.337767 0.65139,-1.693607 1.56308,-4.494574 1.56308,-5.66708 0,-1.302777 -0.84672,-2.800832 -2.41005,-2.800832 z m 30.48526,0.065 c -4.12347,0 -7.94352,4.88748 -9.76298,9.667579 -0.48053,1.708825 -1.1089,3.55292 -1.11537,5.249302 0,2.86612 1.36796,5.471501 4.95062,5.471501 3.52661,0 8.19556,-2.781728 12.96602,-7.69411 -0.13173,0.735367 -0.19889,1.439056 -0.1989,2.092485 0,2.670685 1.36775,5.47148 4.49443,5.47148 2.53916,0 4.84326,-1.545184 6.79578,-3.482894 -0.69722,-0.05524 -1.24173,-0.271733 -1.58711,-0.698352 -1.42486,1.313732 -3.19991,2.552738 -5.20867,2.552738 -1.95419,0 -2.8659,-1.823673 -2.8659,-3.842972 0,-3.908336 2.80101,-9.836276 7.62131,-13.0281 0.26056,-0.19543 0.39078,-0.455919 0.39078,-0.716475 0,-0.390839 -0.39102,-0.781533 -0.84698,-0.781533 -0.13028,0 -0.26051,0.06493 -0.39077,0.130124 -3.41532,2.250097 -5.81285,5.565824 -7.14996,8.785477 -0.0572,0.03651 -0.10751,0.08144 -0.14565,0.138634 -5.79739,6.644166 -10.94336,9.44536 -14.00489,9.44536 -2.21472,0 -3.1916,-1.498502 -3.1916,-3.713225 0,-1.237637 0.1955,-2.410005 0.58634,-3.777919 l 0.71647,-1.823713 c 1.3028,-2.866101 4.5598,-7.816869 7.94703,-7.816869 0.58625,0 1.69359,0.260662 1.69359,1.237758 0,1.717818 -2.5437,4.533009 -8.49936,6.269685 -0.43988,0.563898 -0.67085,1.180814 -0.66545,1.857713 7.21236,-1.790004 10.79332,-5.218829 10.79332,-8.062339 0,-1.823895 -1.30279,-2.931335 -3.3221,-2.931335 z"
         sodipodi:nodetypes="ssccccssscssccsscsscsscsscsscsscccccsssccssscccssscssccsscssccsscsscsssccscssccsscsscccssccssccss" />
      <path
         id="path8756"
         style="font-style:normal;font-variant:normal;font-weight:normal;font-stretch:normal;font-size:91.0517px;line-height:1.25;font-family:'Learning Curve';-inkscape-font-specification:'Learning Curve';letter-spacing:0px;word-spacing:0px;fill:#ffffff;fill-opacity:1;stroke:none;stroke-width:1.75471671;stroke-miterlimit:4;stroke-dasharray:none"
         d="m 372.59169,24.105203 c -4.00065,0 -6.17675,6.738167 -6.17675,10.177304 0,2.807446 0.84262,4.912942 2.52711,6.176296 1.1326,0.723116 2.49299,1.253792 3.71974,1.263149 3.43915,0 6.59738,-2.877626 9.47504,-6.106198 0.0726,-0.07264 0.12588,-0.1643 0.16093,-0.264898 2.47599,-2.834962 6.40927,-7.416262 7.91074,-8.508226 0.77205,-0.561491 1.33319,-0.772 1.75431,-0.772 0.63168,0 0.7724,0.56137 0.7724,1.193047 0,3.018025 -3.93062,11.580921 -6.66791,16.704528 -0.28075,0.561489 -0.35094,0.772075 -0.35094,1.052825 0,0.56149 0.28092,0.912198 0.91261,0.912198 0.21055,0 0.6314,-0.07018 0.98232,-0.631767 1.19318,-1.965223 4.21147,-7.650126 7.65061,-12.001674 3.08822,-3.860252 6.59732,-7.088935 9.8961,-7.088935 0.77205,0 1.19344,0.140316 1.19344,1.122933 0,1.754675 -1.61429,5.263935 -2.87766,7.931032 -1.54411,3.298756 -2.94814,6.317048 -2.94814,8.352451 0,1.19317 0.77203,2.526689 2.52669,2.526689 3.43916,0 8.77341,-5.966097 12.84425,-10.528203 0.14037,-0.140371 0.21072,-0.350701 0.21072,-0.561258 0,-0.49131 -0.281,-0.912612 -0.8425,-0.912612 -0.21056,0 -0.491,0.140466 -0.63137,0.280829 -4.14102,4.632313 -9.05405,9.966537 -11.51058,9.966537 -0.56149,0 -0.84251,-0.280915 -0.84251,-0.912598 0,-1.614284 1.47399,-4.983249 2.80754,-7.509954 0.98261,-1.895029 3.01827,-6.316761 3.01827,-8.983852 0,-1.614302 -1.26367,-2.526697 -2.94815,-2.526697 -4.2814,0 -8.49251,3.860239 -12.28258,8.983853 0.70187,-1.824843 1.68461,-4.842854 1.68461,-6.106217 0,-1.403728 -0.91275,-3.017866 -2.59722,-3.017866 -0.84225,0 -1.82453,0.421069 -2.80714,1.12294 -1.68448,1.263363 -5.96615,6.176407 -8.3525,8.983854 -0.0725,0.07248 -0.14362,0.182781 -0.19678,0.301156 -3.17127,3.577997 -5.69004,5.243777 -7.8745,5.243777 -1.00639,0.0064 -1.92362,-0.350444 -2.73742,-0.912598 -1.61428,-1.122991 -1.82481,-3.439008 -1.82481,-4.772541 0,-2.807456 1.82511,-8.422601 4.42203,-8.422601 1.19317,0 1.33326,2.31608 1.33326,3.298704 0,3.005145 -1.23703,5.906853 -3.00233,8.573943 0.2606,0.61484 0.87193,0.792814 1.5898,0.83811 1.74689,-2.768844 3.16724,-6.019758 3.16724,-9.482168 0,-1.824861 -0.56126,-4.983292 -3.08797,-4.983292 z m -55.58787,0.210716 c -0.84224,0 -1.82493,0.421069 -2.80754,1.12294 -0.99066,0.742992 -5.73276,6.040177 -9.9658,10.856857 -0.2965,0.701161 0.18399,1.618915 1.25439,1.23208 4.19382,-4.783272 8.85598,-10.024615 9.76424,-10.685166 0.77205,-0.561491 1.33358,-0.772 1.75471,-0.772 0.63168,0 0.772,0.56137 0.772,1.193047 0,3.018025 -3.93022,11.580921 -6.66751,16.704528 -0.28075,0.561489 -0.35095,0.772075 -0.35095,1.052825 0,0.56149 0.28053,0.912198 0.91222,0.912198 0.21055,0 0.63178,-0.07018 0.98272,-0.631767 1.19316,-1.965223 4.21106,-7.650126 7.65021,-12.001674 3.08821,-3.860252 6.59771,-7.088935 9.89649,-7.088935 0.77206,0 1.19304,0.140316 1.19304,1.122933 0,1.754675 -1.61428,5.263935 -2.87764,7.931032 -1.54412,3.298756 -2.94775,6.317048 -2.94775,8.352451 0,1.19317 0.77203,2.526689 2.5267,2.526689 2.19741,0 5.16746,-2.437152 8.08799,-5.385994 -0.0624,-1.061913 0.33466,-2.189818 0.75447,-3.320986 -3.39687,3.658746 -6.84166,6.952273 -8.77236,6.952273 -0.56148,0 -0.84209,-0.280915 -0.84209,-0.912598 0,-1.614284 1.47398,-4.983249 2.80752,-7.509954 0.98262,-1.895029 3.01788,-6.316761 3.01788,-8.983852 0,-1.614302 -1.26328,-2.526697 -2.94776,-2.526697 -4.2814,0 -8.49249,3.860239 -12.28257,8.983853 0.70185,-1.824843 1.6842,-4.842854 1.6842,-6.106217 0,-1.403728 -0.91233,-3.017866 -2.59681,-3.017866 z m 32.84754,0.07004 c -4.44299,0 -8.55905,5.266206 -10.51951,10.41671 -0.51776,1.84124 -1.19483,3.828232 -1.20179,5.656066 0,3.088213 1.47396,5.895483 5.33424,5.895483 3.79988,0 8.83062,-2.997281 13.97075,-8.290319 -0.14194,0.792349 -0.21431,1.550566 -0.21432,2.25463 0,2.877633 1.47373,5.89546 4.84269,5.89546 2.73592,0 5.21857,-1.664919 7.32238,-3.752781 -0.75124,-0.05952 -1.33794,-0.292791 -1.71009,-0.752466 -1.53526,1.415531 -3.44787,2.750547 -5.61229,2.750547 -2.1056,0 -3.08797,-1.964987 -3.08797,-4.14076 0,-4.21119 3.01806,-10.598482 8.21188,-14.037637 0.28076,-0.210574 0.42106,-0.491248 0.42106,-0.771994 0,-0.421125 -0.42131,-0.842094 -0.91262,-0.842094 -0.14037,0 -0.28068,0.06996 -0.42104,0.140209 -3.67997,2.424454 -6.26328,5.997114 -7.704,9.466254 -0.0616,0.03935 -0.11585,0.08775 -0.15695,0.149378 -6.24662,7.159016 -11.79133,10.177272 -15.09011,10.177272 -2.38634,0 -3.43891,-1.61462 -3.43891,-4.00096 0,-1.33354 0.21065,-2.596753 0.63177,-4.070666 l 0.77199,-1.96503 c 1.40375,-3.088193 4.91313,-8.422592 8.56284,-8.422592 0.63168,0 1.82482,0.28086 1.82482,1.333671 0,1.850929 -2.74081,4.884267 -9.15796,6.755518 -0.47396,0.607593 -0.72284,1.272312 -0.71702,2.001664 7.77125,-1.928709 11.62969,-5.623231 11.62969,-8.687082 0,-1.965226 -1.40374,-3.158481 -3.57953,-3.158481 z"
         sodipodi:nodetypes="ssccccssscssccsscsscsscsscsscsscccccsssccssscccssscssccsscssccsscsscsssccscssccsscsscccssccssccss" />
    </g>
  </g>
</svg>
