<?xml version="1.0" encoding="UTF-8" standalone="no"?>
<svg
   xmlns:dc="http://purl.org/dc/elements/1.1/"
   xmlns:cc="http://creativecommons.org/ns#"
   xmlns:rdf="http://www.w3.org/1999/02/22-rdf-syntax-ns#"
   xmlns:svg="http://www.w3.org/2000/svg"
   xmlns="http://www.w3.org/2000/svg"
   xmlns:xlink="http://www.w3.org/1999/xlink"
   xmlns:sodipodi="http://sodipodi.sourceforge.net/DTD/sodipodi-0.dtd"
   xmlns:inkscape="http://www.inkscape.org/namespaces/inkscape"
   sodipodi:docname="helium.svg"
   width="224.2368mm"
   height="123.23595mm"
   viewBox="0 0 224.2368 123.23595"
   version="1.1"
   id="svg2167"
   inkscape:version="1.0.1 (3bc2e813f5, 2020-09-07)"
   inkscape:export-filename="/home/nomike/gtd/ukulelesongbook/Cover/helium.png"
   inkscape:export-xdpi="96"
   inkscape:export-ydpi="96">
  <defs
     id="defs2161">
    <linearGradient
       inkscape:collect="always"
       id="linearGradient5532">
      <stop
         style="stop-color:#000000;stop-opacity:0.36728094"
         offset="0"
         id="stop5528" />
      <stop
         style="stop-color:#000000;stop-opacity:0.839"
         offset="0.77152729"
         id="stop5536" />
      <stop
         style="stop-color:#000000;stop-opacity:1"
         offset="1"
         id="stop5530" />
    </linearGradient>
    <filter
       inkscape:collect="always"
       style="color-interpolation-filters:sRGB"
       id="filter5494"
       x="-0.069916815"
       width="1.1398336"
       y="-0.23720244"
       height="1.4744049">
      <feGaussianBlur
         inkscape:collect="always"
         stdDeviation="4.559371"
         id="feGaussianBlur5496" />
    </filter>
    <filter
       inkscape:collect="always"
       style="color-interpolation-filters:sRGB"
       id="filter5506"
       x="-0.03107414"
       width="1.0621483"
       y="-0.10542331"
       height="1.2108465">
      <feGaussianBlur
         inkscape:collect="always"
         stdDeviation="2.0263871"
         id="feGaussianBlur5508" />
    </filter>
    <filter
       inkscape:collect="always"
       style="color-interpolation-filters:sRGB"
       id="filter5510"
       x="-0.0077685355"
       width="1.0155371"
       y="-0.026355827"
       height="1.0527117">
      <feGaussianBlur
         inkscape:collect="always"
         stdDeviation="0.50659677"
         id="feGaussianBlur5512" />
    </filter>
    <radialGradient
       inkscape:collect="always"
       xlink:href="#linearGradient5532"
       id="radialGradient5534"
       cx="-39.403709"
       cy="157.74825"
       fx="-39.403709"
       fy="157.74825"
       r="112.1184"
       gradientTransform="matrix(1,0,0,0.54957949,0,71.053049)"
       gradientUnits="userSpaceOnUse" />
  </defs>
  <sodipodi:namedview
     id="base"
     pagecolor="#cacaca"
     bordercolor="#666666"
     borderopacity="1.0"
     inkscape:pageopacity="0"
     inkscape:pageshadow="2"
     inkscape:zoom="1"
     inkscape:cx="423.75458"
     inkscape:cy="232.88683"
     inkscape:document-units="px"
     inkscape:current-layer="layer1"
     inkscape:document-rotation="0"
     showgrid="false"
     showborder="false"
     inkscape:window-width="1920"
     inkscape:window-height="1016"
     inkscape:window-x="0"
     inkscape:window-y="27"
     inkscape:window-maximized="1"
     inkscape:snap-text-baseline="false"
     inkscape:snap-global="false"
     fit-margin-top="0"
     fit-margin-left="0"
     fit-margin-right="0"
     fit-margin-bottom="0"
     showguides="true"
     inkscape:guide-bbox="true" />
  <metadata
     id="metadata2164">
    <rdf:RDF>
      <cc:Work
         rdf:about="">
        <dc:format>image/svg+xml</dc:format>
        <dc:type
           rdf:resource="http://purl.org/dc/dcmitype/StillImage" />
        <dc:title></dc:title>
      </cc:Work>
    </rdf:RDF>
  </metadata>
  <g
     inkscape:label="Layer 1"
     inkscape:groupmode="layer"
     id="layer1"
     transform="translate(151.52211,-96.13028)">
    <rect
       style="opacity:1;fill:#ff0066;fill-opacity:1;stroke:none;stroke-width:1.06182;stroke-linecap:round;stroke-linejoin:round;stroke-miterlimit:4;stroke-dasharray:none;stroke-opacity:0.823529"
       id="rect5322"
       width="224.2368"
       height="123.23595"
       x="-151.52211"
       y="96.13028"
       inkscape:export-xdpi="96"
       inkscape:export-ydpi="96" />
    <rect
       style="opacity:1;fill:url(#radialGradient5534);fill-opacity:1;stroke:none;stroke-width:1.06177;stroke-linecap:round;stroke-linejoin:round;stroke-miterlimit:4;stroke-dasharray:none;stroke-opacity:0.823529"
       id="rect5520"
       width="224.2368"
       height="123.23595"
       x="-151.52211"
       y="96.13028"
       inkscape:export-xdpi="96"
       inkscape:export-ydpi="96" />
    <g
       id="g9467"
       transform="translate(0,-5.8208337)">
      <path
         id="path5194"
         style="font-style:normal;font-variant:normal;font-weight:normal;font-stretch:normal;font-size:470.677px;line-height:1.25;font-family:'Learning Curve';-inkscape-font-specification:'Learning Curve';letter-spacing:0px;word-spacing:0px;fill:#ff0066;fill-opacity:1;stroke:#ff0066;stroke-width:6.61458;stroke-linecap:round;stroke-linejoin:round;stroke-miterlimit:4;stroke-dasharray:none;stroke-opacity:1;filter:url(#filter5494)"
         d="m -45.9323,134.68253 c -1.34024,0 -3.52686,0.91698 -6.13675,5.71348 -0.91697,1.69292 -3.87953,7.05381 -9.66361,22.50142 l -1.76351,5.00822 c -0.84646,2.46877 -1.69292,5.21977 -1.69292,8.11173 0,1.97507 0.84646,4.3028 3.24472,4.3028 3.59746,0 9.24042,-7.68854 12.2735,-10.72162 v 0 c 0.77376,-0.77415 1.19866,-1.34024 3.17084,-3.66455 -1.5518,3.24471 -3.87953,8.39396 -3.87953,11.49756 0,1.41076 0.63482,2.96256 2.46885,2.96256 1.05801,0 2.25714,-0.49379 3.38575,-1.5518 5.60934,-5.17307 8.34688,-8.35396 8.95882,-9.07541 0.0716,-0.0413 0.14142,-0.0955 0.21085,-0.16501 l 2.11618,-2.39826 c -1.83395,4.23221 -3.03308,7.47699 -3.03308,9.73413 0,0.84646 0.14096,1.48128 0.49371,2.04559 0.35267,0.4937 0.98757,1.12853 2.46885,1.12853 2.39826,-0.0708 5.14918,-2.18655 7.75907,-5.00807 1.83395,-1.97498 3.59738,-4.3028 5.14918,-6.55994 -1.12861,2.68041 -2.75093,6.8421 -2.75093,8.88768 0,1.26972 0.49379,1.97499 0.91698,2.32766 0.35267,0.28215 0.84645,0.56438 1.55187,0.56438 3.80894,0 9.73406,-7.90018 12.55558,-10.7217 0.0739,-0.0739 0.14796,-0.18782 0.20167,-0.30948 1.13686,-1.33245 5.29683,-6.44435 7.13412,-8.15501 0.56431,-0.5643 1.19921,-0.9169 1.76351,-0.9169 1.05802,0 1.26957,1.12854 1.26957,2.11611 0,3.73841 -3.17419,9.87516 -5.43133,14.17796 -0.35267,0.63483 -1.19905,1.76344 -1.19905,2.68041 0,0.35267 0.28208,0.84646 0.84638,0.84646 0.35267,0 0.84646,-0.42319 0.98749,-0.77594 2.60989,-5.36081 10.43955,-19.18611 15.09502,-19.18611 1.34017,0 1.4812,1.69283 1.4812,2.96256 0,2.82144 -1.12853,6.84217 -2.25713,10.1574 -0.77594,1.26964 -2.89204,5.00814 -2.89204,6.06615 0,0.49378 0.35267,0.98749 0.98749,0.98749 0.21163,0 0.42327,-0.0701 0.6349,-0.21155 0.5643,-0.42319 1.83395,-3.03316 2.96256,-6.34839 3.52686,-5.71356 9.59301,-13.54314 13.96633,-13.54314 0.77594,0 1.26973,0.35267 1.26973,1.26964 0,1.83395 -1.48128,5.36082 -2.68041,8.04122 -1.41076,3.24471 -2.60989,6.13683 -2.60989,8.11182 0,1.48128 0.77594,2.60988 2.39826,2.60988 2.32773,0 6.13675,-3.03307 12.7672,-10.58058 0.14112,-0.14104 0.28223,-0.49371 0.28223,-0.70534 0,-0.49379 -0.28215,-0.84646 -0.84645,-0.84646 -0.28216,0 -0.49379,0.14104 -0.70542,0.35267 -5.8546,6.63054 -9.80465,10.01628 -11.49756,10.01628 -0.49379,0 -0.6349,-0.28215 -0.6349,-0.84645 0,-1.5518 1.34032,-4.72592 2.46885,-7.40632 1.41076,-3.38583 2.82144,-6.4895 2.82144,-8.74672 0,-1.76343 -1.05801,-3.03307 -3.03308,-3.03307 -4.09116,0 -8.74656,4.8671 -12.34394,9.80472 0.42319,-1.83402 0.70534,-3.66797 0.70534,-5.21985 0,-1.97499 -0.70542,-4.65547 -3.24471,-4.65547 -2.82152,0 -6.13675,3.38583 -9.0993,7.40647 0.21155,-1.05809 0.5643,-2.25721 0.5643,-3.45634 0,-1.76343 -0.84653,-3.73842 -2.96264,-3.73842 -0.98749,0 -2.1161,0.49371 -3.03307,1.34017 -2.1161,1.97498 -6.91261,7.75906 -7.47692,8.535 -0.0747,0.0747 -0.14967,0.17015 -0.20346,0.29546 -3.10523,3.34691 -8.81692,9.86194 -10.94135,9.86194 -0.5643,0 -0.77594,-0.42327 -0.77594,-1.05809 0,-1.97507 2.39834,-7.68855 3.87961,-11.14489 0.91698,-2.11611 1.76336,-4.30273 2.4687,-6.27779 0.21163,-0.42327 0.28215,-0.63482 0.28215,-0.84646 0,-0.28215 -0.21155,-0.77593 -0.9169,-0.77593 -0.35274,0 -0.6349,0.28223 -0.77593,0.56438 -1.97507,3.59738 -6.13675,10.29835 -10.22792,14.74219 -2.46877,2.68041 -4.79651,4.58495 -6.70105,4.58495 -0.77594,0 -1.12861,-0.42319 -1.12861,-1.34016 0,-1.97506 1.41076,-5.50193 2.96256,-9.24042 l 3.24478,-7.54744 c 0.14104,-0.28215 0.21156,-0.56438 0.21156,-0.6349 0,-0.49378 -0.28215,-0.98749 -0.77594,-0.98749 -0.84645,0 -0.91697,0.56431 -1.19912,1.05801 -1.04268,2.01585 -2.36129,4.03349 -6.38193,8.54684 -0.10127,0.0444 -0.1879,0.10904 -0.24845,0.1998 -0.0708,0.0708 -4.23221,4.8671 -8.9582,9.16983 -0.84646,0.77593 -1.62232,1.05809 -2.18662,1.05809 -0.70534,0 -0.77594,-0.6349 -0.77594,-1.48128 0.21163,-2.1867 1.48128,-5.50193 2.89204,-8.67612 1.90447,-4.16169 4.02057,-7.97062 4.44384,-8.67604 0.0708,-0.14104 0.0708,-0.42327 0.0708,-0.56431 0,-0.49378 -0.28215,-0.77593 -0.84645,-0.77593 -0.28216,0 -0.56431,0.14111 -0.70535,0.35267 l -4.58495,5.36089 c -1.80422,2.05305 -2.89313,3.44513 -3.36746,4.03606 -0.0787,0.0545 -0.15427,0.12064 -0.22985,0.19614 -2.89196,2.89204 -8.60552,10.08688 -10.79222,10.08688 -1.5518,0 -1.69283,-1.12869 -1.69283,-2.53945 0,-0.49371 0.0708,-1.12853 0.14103,-1.90447 0.35267,-2.53936 1.6224,-6.27778 3.10368,-10.22791 l 2.25722,-5.78408 c 1.97506,-5.00822 4.72606,-12.13246 7.40647,-16.78786 2.04558,-3.59745 3.6679,-4.7965 4.51435,-4.7965 0.56431,0 0.77594,0.63474 0.77594,1.34016 0,0.5643 -0.14111,1.34016 -0.56438,2.18662 -1.42259,2.8943 -4.41488,7.42624 -7.71867,12.05346 -0.72815,1.96853 -1.64333,4.08984 -2.0954,5.83273 4.61212,-6.13815 9.49985,-13.08011 11.43639,-17.11017 0.49379,-0.98757 0.70534,-2.04559 0.70534,-2.96256 0,-1.48128 -0.70526,-3.10367 -2.4687,-3.10367 z m -45.21423,0.35275 c -1.26965,0 -2.96256,0.84646 -4.51436,3.24471 -1.97506,3.03315 -5.43149,10.36903 -10.1574,21.93711 l -2.1161,5.07866 -4.37339,11.07437 c -0.49371,1.05801 -1.41069,3.03308 -1.41069,3.52686 0,0.77586 0.9875,0.91698 1.12861,0.91698 0.77586,0 1.41076,-2.89196 1.90447,-3.80902 4.02065,-9.16982 11.28601,-16.01199 13.61374,-16.71733 0.5643,-0.21163 1.12861,-0.28215 1.5518,-0.28215 1.12861,0 1.76343,0.70542 1.76343,1.97506 0,0.84646 -0.5643,3.1036 -2.25714,6.77157 -1.69291,3.6679 -2.89212,6.77158 -2.89212,8.81716 0,1.26964 0.77594,2.75092 2.32774,2.75092 2.11314,0 5.31403,-2.88612 8.07227,-5.7766 0.29718,-1.19353 0.45191,-2.2271 0.9664,-3.66448 -3.43346,3.74597 -7.28832,7.67773 -8.89756,7.67773 -0.49378,0 -0.70534,-0.42334 -0.70534,-1.05817 0,-1.69283 1.41076,-5.00806 2.75093,-8.11166 2.04558,-4.72606 2.39825,-6.20734 2.39825,-7.47699 0,-2.25721 -1.26965,-3.6679 -3.52686,-3.6679 -0.63482,0 -1.34017,0.14104 -2.04559,0.35267 -1.97506,0.56423 -5.57244,3.6679 -9.02878,8.18226 l 2.25721,-5.64296 2.18678,-5.14926 c 3.59738,-8.60552 6.27779,-14.24864 7.9707,-16.78793 1.12853,-1.69292 2.1161,-2.39826 3.03307,-2.39826 0.70535,0 0.98758,0.77594 0.98758,1.55188 0,0.35267 -0.0708,0.84638 -0.14112,1.05801 -0.35267,1.19913 -1.90455,4.2322 -5.14926,8.60552 -0.88062,1.16247 -1.86695,2.37771 -2.97625,3.68969 -0.73212,1.70864 -1.54978,3.35921 -2.16786,5.14537 1.08035,-1.24054 2.18724,-2.50512 3.31009,-3.75624 4.30272,-4.93763 8.04121,-10.93326 8.67604,-13.261 0.14111,-0.42326 0.21163,-0.98757 0.21163,-1.48127 0,-1.6224 -1.05801,-3.31531 -2.75092,-3.31531 z m 53.74908,14.53056 c -0.98749,0 -1.83395,0.91705 -1.83395,2.04566 0,0.84646 0.35275,1.62232 1.34025,1.62232 0.70541,0 1.90454,-0.42327 1.90454,-2.11611 0,-0.77593 -0.42327,-1.55187 -1.41084,-1.55187 z m -37.52569,8.74671 c -4.38593,0 -8.45444,5.10645 -10.46469,10.19328 l -0.61211,1.87565 -0.50832,1.99922 c -0.1275,0.7339 -0.19451,1.43527 -0.19451,2.08489 0,3.10367 1.48127,5.92519 5.36081,5.92519 3.95129,0 9.22695,-3.22494 14.57835,-8.89359 0.42264,-1.32833 0.64603,-2.41997 1.40119,-4.14339 -0.33314,0.38279 -0.61109,0.68993 -0.82436,0.91176 -0.0506,0.0366 -0.0951,0.0805 -0.13053,0.13348 v 0 c -0.0187,0.0187 -0.0358,0.0381 -0.0514,0.0584 -6.25669,7.15234 -11.80773,10.16923 -15.11385,10.16923 -2.39826,0 -3.45635,-1.62232 -3.45635,-4.02057 0,-1.34017 0.21164,-2.60989 0.63491,-4.09117 l 0.77586,-1.97514 c 1.41076,-3.1036 4.9377,-8.46441 8.6056,-8.46441 0.6349,0 1.83394,0.28208 1.83394,1.34017 0,1.84718 -2.71535,4.86687 -9.06864,6.7504 -0.57022,0.67366 -0.76714,1.3488 -0.7462,2.02488 7.73813,-1.94565 11.57828,-5.6397 11.57828,-8.70469 0,-1.97506 -1.41076,-3.17419 -3.59746,-3.17419 z m -34.35048,5.84884 c -2.4455,2.80097 -5.64117,6.46202 -8.25036,9.44264 -0.53535,0.78777 0.67133,1.6933 1.3172,1.1676 1.63944,-1.86757 3.47153,-3.96094 5.02037,-5.73504 0.62213,-1.59974 1.13833,-3.02576 1.91279,-4.8752 z"
         sodipodi:nodetypes="ccccsscccssccccsccccscssccsscsscsscssccsscsscsscsscsscsscsscccssccssccssccssccccscccssccccssccccssccccsccsccccssccsssssccsscssccccsssccccccsssssssccccssccccscssccssccsscccccc"
         inkscape:export-xdpi="96"
         inkscape:export-ydpi="96" />
      <path
         id="path5350"
         style="font-style:normal;font-variant:normal;font-weight:normal;font-stretch:normal;font-size:470.677px;line-height:1.25;font-family:'Learning Curve';-inkscape-font-specification:'Learning Curve';letter-spacing:0px;word-spacing:0px;fill:#ff5599;fill-opacity:1;stroke:#ff5599;stroke-width:5.02708;stroke-linecap:round;stroke-linejoin:round;stroke-miterlimit:4;stroke-dasharray:none;stroke-opacity:1;filter:url(#filter5506)"
         d="m -45.93231,134.68253 c -1.34024,0 -3.52686,0.91698 -6.13675,5.71348 -0.91697,1.69292 -3.87953,7.05381 -9.66361,22.50142 l -1.76351,5.00822 c -0.84646,2.46877 -1.69292,5.21977 -1.69292,8.11173 0,1.97507 0.84646,4.3028 3.24472,4.3028 3.59746,0 9.24042,-7.68854 12.2735,-10.72162 v 0 c 0.77376,-0.77415 1.19866,-1.34024 3.17084,-3.66455 -1.5518,3.24471 -3.87953,8.39396 -3.87953,11.49756 0,1.41076 0.63482,2.96256 2.46885,2.96256 1.05801,0 2.25714,-0.49379 3.38575,-1.5518 5.60934,-5.17307 8.34688,-8.35396 8.95882,-9.07541 0.0716,-0.0413 0.14142,-0.0955 0.21085,-0.16501 l 2.11618,-2.39826 c -1.83395,4.23221 -3.03308,7.47699 -3.03308,9.73413 0,0.84646 0.14096,1.48128 0.49371,2.04559 0.35267,0.4937 0.98757,1.12853 2.46885,1.12853 2.39826,-0.0708 5.14918,-2.18655 7.75907,-5.00807 1.83395,-1.97498 3.59738,-4.3028 5.14918,-6.55994 -1.12861,2.68041 -2.75093,6.8421 -2.75093,8.88768 0,1.26972 0.49379,1.97499 0.91698,2.32766 0.35267,0.28215 0.84645,0.56438 1.55187,0.56438 3.80894,0 9.73406,-7.90018 12.55558,-10.7217 0.0739,-0.0739 0.14796,-0.18782 0.20167,-0.30948 1.13686,-1.33245 5.29683,-6.44435 7.13412,-8.15501 0.56431,-0.5643 1.19921,-0.9169 1.76351,-0.9169 1.05802,0 1.26957,1.12854 1.26957,2.11611 0,3.73841 -3.17419,9.87516 -5.43133,14.17796 -0.35267,0.63483 -1.19905,1.76344 -1.19905,2.68041 0,0.35267 0.28208,0.84646 0.84638,0.84646 0.35267,0 0.84646,-0.42319 0.98749,-0.77594 2.60989,-5.36081 10.43955,-19.18611 15.09502,-19.18611 1.34017,0 1.4812,1.69283 1.4812,2.96256 0,2.82144 -1.12853,6.84217 -2.25713,10.1574 -0.77594,1.26964 -2.89204,5.00814 -2.89204,6.06615 0,0.49378 0.35267,0.98749 0.98749,0.98749 0.21163,0 0.42327,-0.0701 0.6349,-0.21155 0.5643,-0.42319 1.83395,-3.03316 2.96256,-6.34839 3.52686,-5.71356 9.59301,-13.54314 13.96633,-13.54314 0.77594,0 1.26973,0.35267 1.26973,1.26964 0,1.83395 -1.48128,5.36082 -2.68041,8.04122 -1.41076,3.24471 -2.60989,6.13683 -2.60989,8.11182 0,1.48128 0.77594,2.60988 2.39826,2.60988 2.32773,0 6.13675,-3.03307 12.7672,-10.58058 0.14112,-0.14104 0.28223,-0.49371 0.28223,-0.70534 0,-0.49379 -0.28215,-0.84646 -0.84645,-0.84646 -0.28216,0 -0.49379,0.14104 -0.70542,0.35267 -5.8546,6.63054 -9.80465,10.01628 -11.49756,10.01628 -0.49379,0 -0.6349,-0.28215 -0.6349,-0.84645 0,-1.5518 1.34032,-4.72592 2.46885,-7.40632 1.41076,-3.38583 2.82144,-6.4895 2.82144,-8.74672 0,-1.76343 -1.05801,-3.03307 -3.03308,-3.03307 -4.09116,0 -8.74656,4.8671 -12.34394,9.80472 0.42319,-1.83402 0.70534,-3.66797 0.70534,-5.21985 0,-1.97499 -0.70542,-4.65547 -3.24471,-4.65547 -2.82152,0 -6.13675,3.38583 -9.0993,7.40647 0.21155,-1.05809 0.5643,-2.25721 0.5643,-3.45634 0,-1.76343 -0.84653,-3.73842 -2.96264,-3.73842 -0.98749,0 -2.1161,0.49371 -3.03307,1.34017 -2.1161,1.97498 -6.91261,7.75906 -7.47692,8.535 -0.0747,0.0747 -0.14967,0.17015 -0.20346,0.29546 -3.10523,3.34691 -8.81692,9.86194 -10.94135,9.86194 -0.5643,0 -0.77594,-0.42327 -0.77594,-1.05809 0,-1.97507 2.39834,-7.68855 3.87961,-11.14489 0.91698,-2.11611 1.76336,-4.30273 2.4687,-6.27779 0.21163,-0.42327 0.28215,-0.63482 0.28215,-0.84646 0,-0.28215 -0.21155,-0.77593 -0.9169,-0.77593 -0.35274,0 -0.6349,0.28223 -0.77593,0.56438 -1.97507,3.59738 -6.13675,10.29835 -10.22792,14.74219 -2.46877,2.68041 -4.79651,4.58495 -6.70105,4.58495 -0.77594,0 -1.12861,-0.42319 -1.12861,-1.34016 0,-1.97506 1.41076,-5.50193 2.96256,-9.24042 l 3.24478,-7.54744 c 0.14104,-0.28215 0.21156,-0.56438 0.21156,-0.6349 0,-0.49378 -0.28215,-0.98749 -0.77594,-0.98749 -0.84645,0 -0.91697,0.56431 -1.19912,1.05801 -1.04268,2.01585 -2.36129,4.03349 -6.38193,8.54684 -0.10127,0.0444 -0.1879,0.10904 -0.24845,0.1998 -0.0708,0.0708 -4.23221,4.8671 -8.9582,9.16983 -0.84646,0.77593 -1.62232,1.05809 -2.18662,1.05809 -0.70534,0 -0.77594,-0.6349 -0.77594,-1.48128 0.21163,-2.1867 1.48128,-5.50193 2.89204,-8.67612 1.90447,-4.16169 4.02057,-7.97062 4.44384,-8.67604 0.0708,-0.14104 0.0708,-0.42327 0.0708,-0.56431 0,-0.49378 -0.28215,-0.77593 -0.84645,-0.77593 -0.28216,0 -0.56431,0.14111 -0.70535,0.35267 l -4.58495,5.36089 c -1.80422,2.05305 -2.89313,3.44513 -3.36746,4.03606 -0.0787,0.0545 -0.15427,0.12064 -0.22985,0.19614 -2.89196,2.89204 -8.60552,10.08688 -10.79222,10.08688 -1.5518,0 -1.69283,-1.12869 -1.69283,-2.53945 0,-0.49371 0.0708,-1.12853 0.14103,-1.90447 0.35267,-2.53936 1.6224,-6.27778 3.10368,-10.22791 l 2.25722,-5.78408 c 1.97506,-5.00822 4.72606,-12.13246 7.40647,-16.78786 2.04558,-3.59745 3.6679,-4.7965 4.51435,-4.7965 0.56431,0 0.77594,0.63474 0.77594,1.34016 0,0.5643 -0.14111,1.34016 -0.56438,2.18662 -1.42259,2.8943 -4.41488,7.42624 -7.71867,12.05346 -0.72815,1.96853 -1.64333,4.08984 -2.0954,5.83273 4.61212,-6.13815 9.49985,-13.08011 11.43639,-17.11017 0.49379,-0.98757 0.70534,-2.04559 0.70534,-2.96256 0,-1.48128 -0.70526,-3.10367 -2.4687,-3.10367 z m -45.21423,0.35275 c -1.26965,0 -2.96256,0.84646 -4.51436,3.24471 -1.97506,3.03315 -5.43149,10.36903 -10.1574,21.93711 l -2.1161,5.07866 -4.37339,11.07437 c -0.49371,1.05801 -1.41069,3.03308 -1.41069,3.52686 0,0.77586 0.9875,0.91698 1.12861,0.91698 0.77586,0 1.41076,-2.89196 1.90447,-3.80902 4.02065,-9.16982 11.28601,-16.01199 13.61374,-16.71733 0.5643,-0.21163 1.12861,-0.28215 1.5518,-0.28215 1.12861,0 1.76343,0.70542 1.76343,1.97506 0,0.84646 -0.5643,3.1036 -2.25714,6.77157 -1.69291,3.6679 -2.89212,6.77158 -2.89212,8.81716 0,1.26964 0.77594,2.75092 2.32774,2.75092 2.11314,0 5.31403,-2.88612 8.07227,-5.7766 0.29718,-1.19353 0.45191,-2.2271 0.9664,-3.66448 -3.43346,3.74597 -7.28832,7.67773 -8.89756,7.67773 -0.49378,0 -0.70534,-0.42334 -0.70534,-1.05817 0,-1.69283 1.41076,-5.00806 2.75093,-8.11166 2.04558,-4.72606 2.39825,-6.20734 2.39825,-7.47699 0,-2.25721 -1.26965,-3.6679 -3.52686,-3.6679 -0.63482,0 -1.34017,0.14104 -2.04559,0.35267 -1.97506,0.56423 -5.57244,3.6679 -9.02878,8.18226 l 2.25721,-5.64296 2.18678,-5.14926 c 3.59738,-8.60552 6.27779,-14.24864 7.9707,-16.78793 1.12853,-1.69292 2.1161,-2.39826 3.03307,-2.39826 0.70535,0 0.98758,0.77594 0.98758,1.55188 0,0.35267 -0.0708,0.84638 -0.14112,1.05801 -0.35267,1.19913 -1.90455,4.2322 -5.14926,8.60552 -0.88062,1.16247 -1.86695,2.37771 -2.97625,3.68969 -0.73212,1.70864 -1.54978,3.35921 -2.16786,5.14537 1.08035,-1.24054 2.18724,-2.50512 3.31009,-3.75624 4.30272,-4.93763 8.04121,-10.93326 8.67604,-13.261 0.14111,-0.42326 0.21163,-0.98757 0.21163,-1.48127 0,-1.6224 -1.05801,-3.31531 -2.75092,-3.31531 z m 53.74908,14.53056 c -0.98749,0 -1.83395,0.91705 -1.83395,2.04566 0,0.84646 0.35275,1.62232 1.34025,1.62232 0.70541,0 1.90454,-0.42327 1.90454,-2.11611 0,-0.77593 -0.42327,-1.55187 -1.41084,-1.55187 z m -37.52569,8.74671 c -4.38593,0 -8.45444,5.10645 -10.46469,10.19328 l -0.61211,1.87565 -0.50832,1.99922 c -0.1275,0.7339 -0.19451,1.43527 -0.19451,2.08489 0,3.10367 1.48127,5.92519 5.36081,5.92519 3.95129,0 9.22695,-3.22494 14.57835,-8.89359 0.42264,-1.32833 0.64603,-2.41997 1.40119,-4.14339 -0.33314,0.38279 -0.61109,0.68993 -0.82436,0.91176 -0.0506,0.0366 -0.0951,0.0805 -0.13053,0.13348 v 0 c -0.0187,0.0187 -0.0358,0.0381 -0.0514,0.0584 -6.25669,7.15234 -11.80773,10.16923 -15.11385,10.16923 -2.39826,0 -3.45635,-1.62232 -3.45635,-4.02057 0,-1.34017 0.21164,-2.60989 0.63491,-4.09117 l 0.77586,-1.97514 c 1.41076,-3.1036 4.9377,-8.46441 8.6056,-8.46441 0.6349,0 1.83394,0.28208 1.83394,1.34017 0,1.84718 -2.71535,4.86687 -9.06864,6.7504 -0.57022,0.67366 -0.76714,1.3488 -0.7462,2.02488 7.73813,-1.94565 11.57828,-5.6397 11.57828,-8.70469 0,-1.97506 -1.41076,-3.17419 -3.59746,-3.17419 z m -34.35048,5.84884 c -2.4455,2.80097 -5.64117,6.46202 -8.25036,9.44264 -0.53535,0.78777 0.67133,1.6933 1.3172,1.1676 1.63944,-1.86757 3.47153,-3.96094 5.02037,-5.73504 0.62213,-1.59974 1.13833,-3.02576 1.91279,-4.8752 z"
         sodipodi:nodetypes="ccccsscccssccccsccccscssccsscsscsscssccsscsscsscsscsscsscsscccssccssccssccssccccscccssccccssccccssccccsccsccccssccsssssccsscssccccsssccccccsssssssccccssccccscssccssccsscccccc"
         inkscape:export-xdpi="96"
         inkscape:export-ydpi="96" />
      <path
         id="path5348"
         style="font-style:normal;font-variant:normal;font-weight:normal;font-stretch:normal;font-size:470.677px;line-height:1.25;font-family:'Learning Curve';-inkscape-font-specification:'Learning Curve';letter-spacing:0px;word-spacing:0px;fill:#ffaacc;fill-opacity:1;stroke:#ffaacc;stroke-width:0.79375;stroke-linecap:round;stroke-linejoin:round;stroke-miterlimit:4;stroke-dasharray:none;stroke-opacity:1;filter:url(#filter5510)"
         d="m -45.93231,134.68253 c -1.34024,0 -3.52686,0.91698 -6.13675,5.71348 -0.91697,1.69292 -3.87953,7.05381 -9.66361,22.50142 l -1.76351,5.00822 c -0.84646,2.46877 -1.69292,5.21977 -1.69292,8.11173 0,1.97507 0.84646,4.3028 3.24472,4.3028 3.59746,0 9.24042,-7.68854 12.2735,-10.72162 v 0 c 0.77376,-0.77415 1.19866,-1.34024 3.17084,-3.66455 -1.5518,3.24471 -3.87953,8.39396 -3.87953,11.49756 0,1.41076 0.63482,2.96256 2.46885,2.96256 1.05801,0 2.25714,-0.49379 3.38575,-1.5518 5.60934,-5.17307 8.34688,-8.35396 8.95882,-9.07541 0.0716,-0.0413 0.14142,-0.0955 0.21085,-0.16501 l 2.11618,-2.39826 c -1.83395,4.23221 -3.03308,7.47699 -3.03308,9.73413 0,0.84646 0.14096,1.48128 0.49371,2.04559 0.35267,0.4937 0.98757,1.12853 2.46885,1.12853 2.39826,-0.0708 5.14918,-2.18655 7.75907,-5.00807 1.83395,-1.97498 3.59738,-4.3028 5.14918,-6.55994 -1.12861,2.68041 -2.75093,6.8421 -2.75093,8.88768 0,1.26972 0.49379,1.97499 0.91698,2.32766 0.35267,0.28215 0.84645,0.56438 1.55187,0.56438 3.80894,0 9.73406,-7.90018 12.55558,-10.7217 0.0739,-0.0739 0.14796,-0.18782 0.20167,-0.30948 1.13686,-1.33245 5.29683,-6.44435 7.13412,-8.15501 0.56431,-0.5643 1.19921,-0.9169 1.76351,-0.9169 1.05802,0 1.26957,1.12854 1.26957,2.11611 0,3.73841 -3.17419,9.87516 -5.43133,14.17796 -0.35267,0.63483 -1.19905,1.76344 -1.19905,2.68041 0,0.35267 0.28208,0.84646 0.84638,0.84646 0.35267,0 0.84646,-0.42319 0.98749,-0.77594 2.60989,-5.36081 10.43955,-19.18611 15.09502,-19.18611 1.34017,0 1.4812,1.69283 1.4812,2.96256 0,2.82144 -1.12853,6.84217 -2.25713,10.1574 -0.77594,1.26964 -2.89204,5.00814 -2.89204,6.06615 0,0.49378 0.35267,0.98749 0.98749,0.98749 0.21163,0 0.42327,-0.0701 0.6349,-0.21155 0.5643,-0.42319 1.83395,-3.03316 2.96256,-6.34839 3.52686,-5.71356 9.59301,-13.54314 13.96633,-13.54314 0.77594,0 1.26973,0.35267 1.26973,1.26964 0,1.83395 -1.48128,5.36082 -2.68041,8.04122 -1.41076,3.24471 -2.60989,6.13683 -2.60989,8.11182 0,1.48128 0.77594,2.60988 2.39826,2.60988 2.32773,0 6.13675,-3.03307 12.7672,-10.58058 0.14112,-0.14104 0.28223,-0.49371 0.28223,-0.70534 0,-0.49379 -0.28215,-0.84646 -0.84645,-0.84646 -0.28216,0 -0.49379,0.14104 -0.70542,0.35267 -5.8546,6.63054 -9.80465,10.01628 -11.49756,10.01628 -0.49379,0 -0.6349,-0.28215 -0.6349,-0.84645 0,-1.5518 1.34032,-4.72592 2.46885,-7.40632 1.41076,-3.38583 2.82144,-6.4895 2.82144,-8.74672 0,-1.76343 -1.05801,-3.03307 -3.03308,-3.03307 -4.09116,0 -8.74656,4.8671 -12.34394,9.80472 0.42319,-1.83402 0.70534,-3.66797 0.70534,-5.21985 0,-1.97499 -0.70542,-4.65547 -3.24471,-4.65547 -2.82152,0 -6.13675,3.38583 -9.0993,7.40647 0.21155,-1.05809 0.5643,-2.25721 0.5643,-3.45634 0,-1.76343 -0.84653,-3.73842 -2.96264,-3.73842 -0.98749,0 -2.1161,0.49371 -3.03307,1.34017 -2.1161,1.97498 -6.91261,7.75906 -7.47692,8.535 -0.0747,0.0747 -0.14967,0.17015 -0.20346,0.29546 -3.10523,3.34691 -8.81692,9.86194 -10.94135,9.86194 -0.5643,0 -0.77594,-0.42327 -0.77594,-1.05809 0,-1.97507 2.39834,-7.68855 3.87961,-11.14489 0.91698,-2.11611 1.76336,-4.30273 2.4687,-6.27779 0.21163,-0.42327 0.28215,-0.63482 0.28215,-0.84646 0,-0.28215 -0.21155,-0.77593 -0.9169,-0.77593 -0.35274,0 -0.6349,0.28223 -0.77593,0.56438 -1.97507,3.59738 -6.13675,10.29835 -10.22792,14.74219 -2.46877,2.68041 -4.79651,4.58495 -6.70105,4.58495 -0.77594,0 -1.12861,-0.42319 -1.12861,-1.34016 0,-1.97506 1.41076,-5.50193 2.96256,-9.24042 l 3.24478,-7.54744 c 0.14104,-0.28215 0.21156,-0.56438 0.21156,-0.6349 0,-0.49378 -0.28215,-0.98749 -0.77594,-0.98749 -0.84645,0 -0.91697,0.56431 -1.19912,1.05801 -1.04268,2.01585 -2.36129,4.03349 -6.38193,8.54684 -0.10127,0.0444 -0.1879,0.10904 -0.24845,0.1998 -0.0708,0.0708 -4.23221,4.8671 -8.9582,9.16983 -0.84646,0.77593 -1.62232,1.05809 -2.18662,1.05809 -0.70534,0 -0.77594,-0.6349 -0.77594,-1.48128 0.21163,-2.1867 1.48128,-5.50193 2.89204,-8.67612 1.90447,-4.16169 4.02057,-7.97062 4.44384,-8.67604 0.0708,-0.14104 0.0708,-0.42327 0.0708,-0.56431 0,-0.49378 -0.28215,-0.77593 -0.84645,-0.77593 -0.28216,0 -0.56431,0.14111 -0.70535,0.35267 l -4.58495,5.36089 c -1.80422,2.05305 -2.89313,3.44513 -3.36746,4.03606 -0.0787,0.0545 -0.15427,0.12064 -0.22985,0.19614 -2.89196,2.89204 -8.60552,10.08688 -10.79222,10.08688 -1.5518,0 -1.69283,-1.12869 -1.69283,-2.53945 0,-0.49371 0.0708,-1.12853 0.14103,-1.90447 0.35267,-2.53936 1.6224,-6.27778 3.10368,-10.22791 l 2.25722,-5.78408 c 1.97506,-5.00822 4.72606,-12.13246 7.40647,-16.78786 2.04558,-3.59745 3.6679,-4.7965 4.51435,-4.7965 0.56431,0 0.77594,0.63474 0.77594,1.34016 0,0.5643 -0.14111,1.34016 -0.56438,2.18662 -1.42259,2.8943 -4.41488,7.42624 -7.71867,12.05346 -0.72815,1.96853 -1.64333,4.08984 -2.0954,5.83273 4.61212,-6.13815 9.49985,-13.08011 11.43639,-17.11017 0.49379,-0.98757 0.70534,-2.04559 0.70534,-2.96256 0,-1.48128 -0.70526,-3.10367 -2.4687,-3.10367 z m -45.21423,0.35275 c -1.26965,0 -2.96256,0.84646 -4.51436,3.24471 -1.97506,3.03315 -5.43149,10.36903 -10.1574,21.93711 l -2.1161,5.07866 -4.37339,11.07437 c -0.49371,1.05801 -1.41069,3.03308 -1.41069,3.52686 0,0.77586 0.9875,0.91698 1.12861,0.91698 0.77586,0 1.41076,-2.89196 1.90447,-3.80902 4.02065,-9.16982 11.28601,-16.01199 13.61374,-16.71733 0.5643,-0.21163 1.12861,-0.28215 1.5518,-0.28215 1.12861,0 1.76343,0.70542 1.76343,1.97506 0,0.84646 -0.5643,3.1036 -2.25714,6.77157 -1.69291,3.6679 -2.89212,6.77158 -2.89212,8.81716 0,1.26964 0.77594,2.75092 2.32774,2.75092 2.11314,0 5.31403,-2.88612 8.07227,-5.7766 0.29718,-1.19353 0.45191,-2.2271 0.9664,-3.66448 -3.43346,3.74597 -7.28832,7.67773 -8.89756,7.67773 -0.49378,0 -0.70534,-0.42334 -0.70534,-1.05817 0,-1.69283 1.41076,-5.00806 2.75093,-8.11166 2.04558,-4.72606 2.39825,-6.20734 2.39825,-7.47699 0,-2.25721 -1.26965,-3.6679 -3.52686,-3.6679 -0.63482,0 -1.34017,0.14104 -2.04559,0.35267 -1.97506,0.56423 -5.57244,3.6679 -9.02878,8.18226 l 2.25721,-5.64296 2.18678,-5.14926 c 3.59738,-8.60552 6.27779,-14.24864 7.9707,-16.78793 1.12853,-1.69292 2.1161,-2.39826 3.03307,-2.39826 0.70535,0 0.98758,0.77594 0.98758,1.55188 0,0.35267 -0.0708,0.84638 -0.14112,1.05801 -0.35267,1.19913 -1.90455,4.2322 -5.14926,8.60552 -0.88062,1.16247 -1.86695,2.37771 -2.97625,3.68969 -0.73212,1.70864 -1.54978,3.35921 -2.16786,5.14537 1.08035,-1.24054 2.18724,-2.50512 3.31009,-3.75624 4.30272,-4.93763 8.04121,-10.93326 8.67604,-13.261 0.14111,-0.42326 0.21163,-0.98757 0.21163,-1.48127 0,-1.6224 -1.05801,-3.31531 -2.75092,-3.31531 z m 53.74908,14.53056 c -0.98749,0 -1.83395,0.91705 -1.83395,2.04566 0,0.84646 0.35275,1.62232 1.34025,1.62232 0.70541,0 1.90454,-0.42327 1.90454,-2.11611 0,-0.77593 -0.42327,-1.55187 -1.41084,-1.55187 z m -37.52569,8.74671 c -4.38593,0 -8.45444,5.10645 -10.46469,10.19328 l -0.61211,1.87565 -0.50832,1.99922 c -0.1275,0.7339 -0.19451,1.43527 -0.19451,2.08489 0,3.10367 1.48127,5.92519 5.36081,5.92519 3.95129,0 9.22695,-3.22494 14.57835,-8.89359 0.42264,-1.32833 0.64603,-2.41997 1.40119,-4.14339 -0.33314,0.38279 -0.61109,0.68993 -0.82436,0.91176 -0.0506,0.0366 -0.0951,0.0805 -0.13053,0.13348 v 0 c -0.0187,0.0187 -0.0358,0.0381 -0.0514,0.0584 -6.25669,7.15234 -11.80773,10.16923 -15.11385,10.16923 -2.39826,0 -3.45635,-1.62232 -3.45635,-4.02057 0,-1.34017 0.21164,-2.60989 0.63491,-4.09117 l 0.77586,-1.97514 c 1.41076,-3.1036 4.9377,-8.46441 8.6056,-8.46441 0.6349,0 1.83394,0.28208 1.83394,1.34017 0,1.84718 -2.71535,4.86687 -9.06864,6.7504 -0.57022,0.67366 -0.76714,1.3488 -0.7462,2.02488 7.73813,-1.94565 11.57828,-5.6397 11.57828,-8.70469 0,-1.97506 -1.41076,-3.17419 -3.59746,-3.17419 z m -34.35048,5.84884 c -2.4455,2.80097 -5.64117,6.46202 -8.25036,9.44264 -0.53535,0.78777 0.67133,1.6933 1.3172,1.1676 1.63944,-1.86757 3.47153,-3.96094 5.02037,-5.73504 0.62213,-1.59974 1.13833,-3.02576 1.91279,-4.8752 z"
         sodipodi:nodetypes="ccccsscccssccccsccccscssccsscsscsscssccsscsscsscsscsscsscsscccssccssccssccssccccscccssccccssccccssccccsccsccccssccsssssccsscssccccsssccccccsssssssccccssccccscssccssccsscccccc"
         inkscape:export-xdpi="96"
         inkscape:export-ydpi="96" />
      <path
         id="path5550"
         style="font-style:normal;font-variant:normal;font-weight:normal;font-stretch:normal;font-size:470.677px;line-height:1.25;font-family:'Learning Curve';-inkscape-font-specification:'Learning Curve';letter-spacing:0px;word-spacing:0px;opacity:0.15;fill:#000000;fill-opacity:1;stroke:none;stroke-width:1.66714;stroke-miterlimit:4;stroke-dasharray:none;stroke-opacity:1"
         d="m -45.577942,139.03824 c -1.266991,0 -3.334106,0.86686 -5.801357,5.40122 -0.866855,1.6004 -3.667501,6.6683 -9.135463,21.27165 l -1.667129,4.7345 c -0.800198,2.33384 -1.600396,4.93449 -1.600396,7.6684 0,1.86712 0.800198,4.06764 3.067385,4.06764 3.400848,0 8.735402,-7.26834 11.602715,-10.13565 v 0 c 0.731472,-0.73184 1.133149,-1.26699 2.997544,-3.46427 -1.46699,3.06737 -3.667502,7.9352 -3.667502,10.86918 0,1.33366 0.600125,2.80065 2.33392,2.80065 1.000186,0 2.13378,-0.46681 3.200708,-1.46699 5.302772,-4.89035 7.890696,-7.89739 8.469192,-8.57941 0.06769,-0.0391 0.133691,-0.0903 0.199326,-0.156 l 2.000524,-2.26718 c -1.733718,4.0009 -2.867312,7.06835 -2.867312,9.20213 0,0.80019 0.133256,1.40032 0.466727,1.93379 0.333396,0.46672 0.933596,1.06685 2.33392,1.06685 2.267187,-0.0669 4.867761,-2.06705 7.335012,-4.73436 1.733719,-1.86704 3.400772,-4.06764 4.867761,-6.20142 -1.066928,2.53392 -2.600583,6.46816 -2.600583,8.40194 0,1.20032 0.466803,1.86705 0.866864,2.20044 0.333396,0.26673 0.800189,0.53354 1.467056,0.53354 3.600769,0 9.202063,-7.46841 11.8693776,-10.13573 0.069861,-0.0699 0.1398735,-0.17755 0.1906481,-0.29256 1.074727,-1.25963 5.0073416,-6.09215 6.7442179,-7.70931 0.5334687,-0.53346 1.1336694,-0.86679 1.6671286,-0.86679 1.00019589,0 1.20018401,1.06686 1.20018401,2.00045 0,3.5341 -3.00071051,9.33546 -5.13449071,13.40309 -0.3333955,0.60014 -1.1335181,1.66707 -1.1335181,2.53392 0,0.3334 0.2666634,0.8002 0.8001226,0.8002 0.3333955,0 0.8001983,-0.40006 0.9335206,-0.73353 2.4672513,-5.06783 9.8689957,-18.13753 14.2700296,-18.13753 1.2669258,0 1.4002478,1.60031 1.4002478,2.80065 0,2.66724 -1.066852,6.46822 -2.1337708,9.60226 -0.7335324,1.20025 -2.7339809,4.73443 -2.7339809,5.73462 0,0.46679 0.3333955,0.93352 0.9335206,0.93352 0.2000637,0 0.4001369,-0.0663 0.6002007,-0.19999 0.5334592,-0.40006 1.7337188,-2.86739 2.8006464,-6.00143 3.334106,-5.4013 9.068722,-12.80297 13.203026,-12.80297 0.733533,0 1.200336,0.3334 1.200336,1.20026 0,1.73371 -1.400324,5.06783 -2.533917,7.60174 -1.333658,3.06737 -2.467252,5.80143 -2.467252,7.66848 0,1.40032 0.733533,2.46724 2.267188,2.46724 2.200512,0 5.801357,-2.8673 12.069432,-10.00232 0.133407,-0.13333 0.266805,-0.46672 0.266805,-0.66679 0,-0.4668 -0.266729,-0.80019 -0.800189,-0.80019 -0.266739,0 -0.466802,0.13333 -0.666866,0.33339 -5.534628,6.26816 -9.268795,9.46886 -10.869182,9.46886 -0.466803,0 -0.600201,-0.26673 -0.600201,-0.80019 0,-1.46699 1.267067,-4.46763 2.33392,-7.00154 1.333657,-3.20078 2.667239,-6.13483 2.667239,-8.26868 0,-1.66706 -1.000186,-2.86731 -2.867313,-2.86731 -3.867565,0 -8.268533,4.6011 -11.669304,9.26886 0.400061,-1.73378 0.666791,-3.4675 0.666791,-4.93457 0,-1.86705 -0.666867,-4.40103 -3.0673768,-4.40103 -2.667315,0 -5.8013573,3.20078 -8.6019946,7.00168 0.1999881,-1.00026 0.5334592,-2.13384 0.5334592,-3.26744 0,-1.66705 -0.80026443,-3.5341 -2.8007224,-3.5341 -0.9335205,0 -2.0004484,0.46673 -2.8673031,1.26693 -2.0004485,1.86704 -6.5348143,7.335 -7.0682823,8.06853 -0.07062,0.0706 -0.141491,0.16085 -0.192341,0.27931 -2.935519,3.16399 -8.335047,9.32296 -10.343371,9.32296 -0.533459,0 -0.733532,-0.40014 -0.733532,-1.00027 0,-1.86712 2.267263,-7.26834 3.667577,-10.53578 0.866864,-2.00046 1.666987,-4.06757 2.333778,-5.93469 0.200064,-0.40014 0.26673,-0.60013 0.26673,-0.8002 0,-0.26673 -0.199989,-0.73352 -0.866789,-0.73352 -0.333462,0 -0.600201,0.2668 -0.733523,0.53353 -1.867126,3.40077 -5.801357,9.73552 -9.668932,13.93649 -2.333844,2.53391 -4.534366,4.33436 -6.334816,4.33436 -0.733533,0 -1.066928,-0.40006 -1.066928,-1.26691 0,-1.86712 1.333657,-5.20123 2.800646,-8.7354 l 3.067443,-7.13495 c 0.133332,-0.26673 0.199998,-0.53354 0.199998,-0.6002 0,-0.4668 -0.26673,-0.93352 -0.733533,-0.93352 -0.800189,0 -0.866855,0.53346 -1.133584,1.00018 -0.985694,1.90568 -2.232238,3.81305 -6.033138,8.07973 -0.09573,0.042 -0.17763,0.10308 -0.234871,0.18888 -0.06693,0.0669 -4.000906,4.6011 -8.468606,8.66867 -0.800198,0.73352 -1.533655,1.00026 -2.067115,1.00026 -0.66679,0 -0.733532,-0.6002 -0.733532,-1.40032 0.200064,-2.06719 1.400323,-5.20123 2.733981,-8.20194 1.800385,-3.93424 3.800833,-7.535 4.20097,-8.20187 0.06693,-0.13333 0.06693,-0.40014 0.06693,-0.53347 0,-0.46679 -0.26673,-0.73352 -0.800189,-0.73352 -0.266739,0 -0.533469,0.1334 -0.666801,0.33339 l -4.334368,5.0679 c -1.705613,1.94085 -2.735011,3.25685 -3.183417,3.81548 -0.0744,0.0515 -0.145839,0.11405 -0.217288,0.18542 -2.733906,2.73398 -8.135202,9.5356 -10.202391,9.5356 -1.46699,0 -1.600312,-1.067 -1.600312,-2.40066 0,-0.46673 0.06693,-1.06685 0.133322,-1.80038 0.333396,-2.40058 1.533731,-5.93468 2.934054,-9.66893 l 2.133856,-5.46796 c 1.867117,-4.7345 4.467766,-11.46938 7.001683,-15.87035 1.933783,-3.40084 3.467438,-4.53436 4.267627,-4.53436 0.533469,0 0.733532,0.60005 0.733532,1.26692 0,0.53346 -0.133398,1.26692 -0.533535,2.06711 -1.344841,2.73612 -4.173592,7.02038 -7.29682,11.3947 -0.688354,1.86095 -1.553517,3.86632 -1.98088,5.51396 4.360053,-5.80268 8.980654,-12.36524 10.811356,-16.17505 0.466802,-0.93359 0.66679,-1.93379 0.66679,-2.80064 0,-1.40033 -0.666715,-2.93405 -2.333777,-2.93405 z m -42.74313,0.33347 c -1.200259,0 -2.800646,0.8002 -4.267636,3.06738 -1.867116,2.86737 -5.134642,9.80233 -9.602262,20.73817 l -2.00045,4.8011 -4.13437,10.46912 c -0.46673,1.00019 -1.33359,2.86731 -1.33359,3.33411 0,0.73345 0.93353,0.86686 1.06692,0.86686 0.73346,0 1.33366,-2.73391 1.80039,-3.60085 3.80091,-8.66866 10.669193,-15.13688 12.869705,-15.80367 0.533459,-0.20006 1.066928,-0.26673 1.466989,-0.26673 1.066928,0 1.667053,0.66687 1.667053,1.86712 0,0.8002 -0.533459,2.93398 -2.13378,6.40148 -1.600387,3.46744 -2.734057,6.40149 -2.734057,8.33527 0,1.20025 0.733533,2.60058 2.200522,2.60058 1.99765,0 5.023602,-2.72839 7.631095,-5.46089 0.280938,-1.1283 0.427212,-2.10539 0.913583,-3.46421 -3.24581,3.54124 -6.88999,7.25812 -8.41128,7.25812 -0.466793,0 -0.666791,-0.4002 -0.666791,-1.00034 0,-1.60031 1.333658,-4.73435 2.600583,-7.66833 1.933783,-4.46777 2.267178,-5.86809 2.267178,-7.06835 0,-2.13385 -1.20026,-3.46744 -3.334106,-3.46744 -0.600125,0 -1.266925,0.13333 -1.933792,0.3334 -1.867117,0.53339 -5.267889,3.46744 -8.535332,7.73507 l 2.13385,-5.33455 2.067265,-4.86784 c 3.400772,-8.1352 5.934689,-13.46991 7.535076,-15.87042 1.066853,-1.60039 2.000449,-2.26718 2.867304,-2.26718 0.6668,0 0.933605,0.73353 0.933605,1.46706 0,0.3334 -0.06693,0.80012 -0.133407,1.00019 -0.333396,1.13359 -1.80046,4.0009 -4.867837,8.1352 -0.832491,1.09894 -1.764915,2.24776 -2.813588,3.48804 -0.692108,1.61525 -1.46508,3.17561 -2.04938,4.86416 1.021305,-1.17274 2.0677,-2.36821 3.129183,-3.55095 4.067563,-4.66778 7.601733,-10.33573 8.201867,-12.53625 0.133398,-0.40013 0.200064,-0.93359 0.200064,-1.40031 0,-1.53373 -1.000186,-3.13412 -2.600574,-3.13412 z m 50.811524,13.73642 c -0.933521,0 -1.733719,0.86693 -1.733719,1.93386 0,0.8002 0.333471,1.53365 1.267001,1.53365 0.666857,0 1.800451,-0.40013 1.800451,-2.00046 0,-0.73352 -0.400137,-1.46705 -1.333733,-1.46705 z m -35.474793,8.26867 c -4.146225,0 -7.992378,4.82737 -9.892762,9.63619 l -0.578656,1.77314 -0.480539,1.88995 c -0.120531,0.69379 -0.183879,1.35683 -0.183879,1.97095 0,2.93404 1.400314,5.60136 5.067825,5.60136 3.735339,0 8.722668,-3.04869 13.781597,-8.40753 0.399541,-1.25573 0.610722,-2.28771 1.324611,-3.91694 -0.314933,0.36187 -0.577692,0.65222 -0.779307,0.86193 -0.04783,0.0346 -0.0899,0.0761 -0.123396,0.12619 v 0 c -0.01768,0.0177 -0.03384,0.036 -0.04859,0.0552 -5.914742,6.76145 -11.1624,9.61345 -14.28783,9.61345 -2.267188,0 -3.26745,-1.53365 -3.26745,-3.80083 0,-1.26693 0.200074,-2.46725 0.600211,-3.86758 l 0.733456,-1.86719 c 1.333658,-2.93398 4.66784,-8.0018 8.135277,-8.0018 0.600201,0 1.73371,0.26666 1.73371,1.26692 0,1.74623 -2.566948,4.60088 -8.573011,6.38147 -0.539055,0.63685 -0.725213,1.27509 -0.705417,1.91422 7.315216,-1.83932 10.94549,-5.33147 10.94549,-8.22895 0,-1.86712 -1.333657,-3.00071 -3.400847,-3.00071 z m -32.473119,5.52919 c -2.31184,2.64788 -5.33286,6.10885 -7.79945,8.92657 -0.50609,0.74471 0.63464,1.60075 1.24521,1.10378 1.54984,-1.7655 3.2818,-3.74446 4.74599,-5.4216 0.58813,-1.51231 1.07612,-2.86039 1.80825,-4.60875 z"
         sodipodi:nodetypes="ccccsscccssccccsccccscssccsscsscsscssccsscsscsscsscsscsscsscccssccssccssccssccccscccssccccssccccssccccsccsccccssccsssssccsscssccccsssccccccsssssssccccssccccscssccssccsscccccc"
         inkscape:export-xdpi="96"
         inkscape:export-ydpi="96" />
      <path
         id="path5326"
         style="font-style:normal;font-variant:normal;font-weight:normal;font-stretch:normal;font-size:470.677px;line-height:1.25;font-family:'Learning Curve';-inkscape-font-specification:'Learning Curve';letter-spacing:0px;word-spacing:0px;fill:#ffffff;fill-opacity:1;stroke:none;stroke-width:1.76345;stroke-miterlimit:4;stroke-dasharray:none;stroke-opacity:1"
         d="m -45.93475,134.68253 c -1.34024,0 -3.52686,0.91698 -6.13675,5.71348 -0.91697,1.69292 -3.87953,7.05381 -9.66361,22.50142 l -1.76351,5.00822 c -0.84646,2.46877 -1.69292,5.21977 -1.69292,8.11173 0,1.97507 0.84646,4.3028 3.24472,4.3028 3.59746,0 9.24042,-7.68854 12.2735,-10.72162 v 0 c 0.77376,-0.77415 1.19866,-1.34024 3.17084,-3.66455 -1.5518,3.24471 -3.87953,8.39396 -3.87953,11.49756 0,1.41076 0.63482,2.96256 2.46885,2.96256 1.05801,0 2.25714,-0.49379 3.38575,-1.5518 5.60934,-5.17307 8.34688,-8.35396 8.95882,-9.07541 0.0716,-0.0413 0.14142,-0.0955 0.21085,-0.16501 l 2.11618,-2.39826 c -1.83395,4.23221 -3.03308,7.47699 -3.03308,9.73413 0,0.84646 0.14096,1.48128 0.49371,2.04559 0.35267,0.4937 0.98757,1.12853 2.46885,1.12853 2.39826,-0.0708 5.14918,-2.18655 7.75907,-5.00807 1.83395,-1.97498 3.59738,-4.3028 5.14918,-6.55994 -1.12861,2.68041 -2.75093,6.8421 -2.75093,8.88768 0,1.26972 0.49379,1.97499 0.91698,2.32766 0.35267,0.28215 0.84645,0.56438 1.55187,0.56438 3.80894,0 9.73406,-7.90018 12.55558,-10.7217 0.0739,-0.0739 0.14796,-0.18782 0.20167,-0.30948 1.13686,-1.33245 5.29683,-6.44435 7.13412,-8.15501 0.56431,-0.5643 1.19921,-0.9169 1.76351,-0.9169 1.05802,0 1.26957,1.12854 1.26957,2.11611 0,3.73841 -3.17419,9.87516 -5.43133,14.17796 -0.35267,0.63483 -1.19905,1.76344 -1.19905,2.68041 0,0.35267 0.28208,0.84646 0.84638,0.84646 0.35267,0 0.84646,-0.42319 0.98749,-0.77594 2.60989,-5.36081 10.43955,-19.18611 15.09502,-19.18611 1.34017,0 1.4812,1.69283 1.4812,2.96256 0,2.82144 -1.12853,6.84217 -2.25713,10.1574 -0.77594,1.26964 -2.89204,5.00814 -2.89204,6.06615 0,0.49378 0.35267,0.98749 0.98749,0.98749 0.21163,0 0.42327,-0.0701 0.6349,-0.21155 0.5643,-0.42319 1.83395,-3.03316 2.96256,-6.34839 3.52686,-5.71356 9.59301,-13.54314 13.96633,-13.54314 0.77594,0 1.26973,0.35267 1.26973,1.26964 0,1.83395 -1.48128,5.36082 -2.68041,8.04122 -1.41076,3.24471 -2.60989,6.13683 -2.60989,8.11182 0,1.48128 0.77594,2.60988 2.39826,2.60988 2.32773,0 6.13675,-3.03307 12.7672,-10.58058 0.14112,-0.14104 0.28223,-0.49371 0.28223,-0.70534 0,-0.49379 -0.28215,-0.84646 -0.84645,-0.84646 -0.28216,0 -0.49379,0.14104 -0.70542,0.35267 -5.8546,6.63054 -9.80465,10.01628 -11.49756,10.01628 -0.49379,0 -0.6349,-0.28215 -0.6349,-0.84645 0,-1.5518 1.34032,-4.72592 2.46885,-7.40632 1.41076,-3.38583 2.82144,-6.4895 2.82144,-8.74672 0,-1.76343 -1.05801,-3.03307 -3.03308,-3.03307 -4.09116,0 -8.74656,4.8671 -12.34394,9.80472 0.42319,-1.83402 0.70534,-3.66797 0.70534,-5.21985 0,-1.97499 -0.70542,-4.65547 -3.24471,-4.65547 -2.82152,0 -6.13675,3.38583 -9.0993,7.40647 0.21155,-1.05809 0.5643,-2.25721 0.5643,-3.45634 0,-1.76343 -0.84653,-3.73842 -2.96264,-3.73842 -0.98749,0 -2.1161,0.49371 -3.03307,1.34017 -2.1161,1.97498 -6.91261,7.75906 -7.47692,8.535 -0.0747,0.0747 -0.14967,0.17015 -0.20346,0.29546 -3.10523,3.34691 -8.81692,9.86194 -10.94135,9.86194 -0.5643,0 -0.77594,-0.42327 -0.77594,-1.05809 0,-1.97507 2.39834,-7.68855 3.87961,-11.14489 0.91698,-2.11611 1.76336,-4.30273 2.4687,-6.27779 0.21163,-0.42327 0.28215,-0.63482 0.28215,-0.84646 0,-0.28215 -0.21155,-0.77593 -0.9169,-0.77593 -0.35274,0 -0.6349,0.28223 -0.77593,0.56438 -1.97507,3.59738 -6.13675,10.29835 -10.22792,14.74219 -2.46877,2.68041 -4.79651,4.58495 -6.70105,4.58495 -0.77594,0 -1.12861,-0.42319 -1.12861,-1.34016 0,-1.97506 1.41076,-5.50193 2.96256,-9.24042 l 3.24478,-7.54744 c 0.14104,-0.28215 0.21156,-0.56438 0.21156,-0.6349 0,-0.49378 -0.28215,-0.98749 -0.77594,-0.98749 -0.84645,0 -0.91697,0.56431 -1.19912,1.05801 -1.04268,2.01585 -2.36129,4.03349 -6.38193,8.54684 -0.10127,0.0444 -0.1879,0.10904 -0.24845,0.1998 -0.0708,0.0708 -4.23221,4.8671 -8.9582,9.16983 -0.84646,0.77593 -1.62232,1.05809 -2.18662,1.05809 -0.70534,0 -0.77594,-0.6349 -0.77594,-1.48128 0.21163,-2.1867 1.48128,-5.50193 2.89204,-8.67612 1.90447,-4.16169 4.02057,-7.97062 4.44384,-8.67604 0.0708,-0.14104 0.0708,-0.42327 0.0708,-0.56431 0,-0.49378 -0.28215,-0.77593 -0.84645,-0.77593 -0.28216,0 -0.56431,0.14111 -0.70535,0.35267 l -4.58495,5.36089 c -1.80422,2.05305 -2.89313,3.44513 -3.36746,4.03606 -0.0787,0.0545 -0.15427,0.12064 -0.22985,0.19614 -2.89196,2.89204 -8.60552,10.08688 -10.79222,10.08688 -1.5518,0 -1.69283,-1.12869 -1.69283,-2.53945 0,-0.49371 0.0708,-1.12853 0.14103,-1.90447 0.35267,-2.53936 1.6224,-6.27778 3.10368,-10.22791 l 2.25722,-5.78408 c 1.97506,-5.00822 4.72606,-12.13246 7.40647,-16.78786 2.04558,-3.59745 3.6679,-4.7965 4.51435,-4.7965 0.56431,0 0.77594,0.63474 0.77594,1.34016 0,0.5643 -0.14111,1.34016 -0.56438,2.18662 -1.42259,2.8943 -4.41488,7.42624 -7.71867,12.05346 -0.72815,1.96853 -1.64333,4.08984 -2.0954,5.83273 4.61212,-6.13815 9.49985,-13.08011 11.43639,-17.11017 0.49379,-0.98757 0.70534,-2.04559 0.70534,-2.96256 0,-1.48128 -0.70526,-3.10367 -2.4687,-3.10367 z m -45.21423,0.35275 c -1.26965,0 -2.96256,0.84646 -4.51436,3.24471 -1.97506,3.03315 -5.43149,10.36903 -10.1574,21.93711 l -2.1161,5.07866 -4.37339,11.07437 c -0.49371,1.05801 -1.41069,3.03308 -1.41069,3.52686 0,0.77586 0.9875,0.91698 1.12861,0.91698 0.77586,0 1.41076,-2.89196 1.90447,-3.80902 4.02065,-9.16982 11.28601,-16.01199 13.61374,-16.71733 0.5643,-0.21163 1.12861,-0.28215 1.5518,-0.28215 1.12861,0 1.76343,0.70542 1.76343,1.97506 0,0.84646 -0.5643,3.1036 -2.25714,6.77157 -1.69291,3.6679 -2.89212,6.77158 -2.89212,8.81716 0,1.26964 0.77594,2.75092 2.32774,2.75092 2.11314,0 5.31403,-2.88612 8.07227,-5.7766 0.29718,-1.19353 0.45191,-2.2271 0.9664,-3.66448 -3.43346,3.74597 -7.28832,7.67773 -8.89756,7.67773 -0.49378,0 -0.70534,-0.42334 -0.70534,-1.05817 0,-1.69283 1.41076,-5.00806 2.75093,-8.11166 2.04558,-4.72606 2.39825,-6.20734 2.39825,-7.47699 0,-2.25721 -1.26965,-3.6679 -3.52686,-3.6679 -0.63482,0 -1.34017,0.14104 -2.04559,0.35267 -1.97506,0.56423 -5.57244,3.6679 -9.02878,8.18226 l 2.25721,-5.64296 2.18678,-5.14926 c 3.59738,-8.60552 6.27779,-14.24864 7.9707,-16.78793 1.12853,-1.69292 2.1161,-2.39826 3.03307,-2.39826 0.70535,0 0.98758,0.77594 0.98758,1.55188 0,0.35267 -0.0708,0.84638 -0.14112,1.05801 -0.35267,1.19913 -1.90455,4.2322 -5.14926,8.60552 -0.88062,1.16247 -1.86695,2.37771 -2.97625,3.68969 -0.73212,1.70864 -1.54978,3.35921 -2.16786,5.14537 1.08035,-1.24054 2.18724,-2.50512 3.31009,-3.75624 4.30272,-4.93763 8.04121,-10.93326 8.67604,-13.261 0.14111,-0.42326 0.21163,-0.98757 0.21163,-1.48127 0,-1.6224 -1.05801,-3.31531 -2.75092,-3.31531 z m 53.74908,14.53056 c -0.98749,0 -1.83395,0.91705 -1.83395,2.04566 0,0.84646 0.35275,1.62232 1.34025,1.62232 0.70541,0 1.90454,-0.42327 1.90454,-2.11611 0,-0.77593 -0.42327,-1.55187 -1.41084,-1.55187 z m -37.52569,8.74671 c -4.38593,0 -8.45444,5.10645 -10.46469,10.19328 l -0.61211,1.87565 -0.50832,1.99922 c -0.1275,0.7339 -0.19451,1.43527 -0.19451,2.08489 0,3.10367 1.48127,5.92519 5.36081,5.92519 3.95129,0 9.22695,-3.22494 14.57835,-8.89359 0.42264,-1.32833 0.64603,-2.41997 1.40119,-4.14339 -0.33314,0.38279 -0.61109,0.68993 -0.82436,0.91176 -0.0506,0.0366 -0.0951,0.0805 -0.13053,0.13348 v 0 c -0.0187,0.0187 -0.0358,0.0381 -0.0514,0.0584 -6.25669,7.15234 -11.80773,10.16923 -15.11385,10.16923 -2.39826,0 -3.45635,-1.62232 -3.45635,-4.02057 0,-1.34017 0.21164,-2.60989 0.63491,-4.09117 l 0.77586,-1.97514 c 1.41076,-3.1036 4.9377,-8.46441 8.6056,-8.46441 0.6349,0 1.83394,0.28208 1.83394,1.34017 0,1.84718 -2.71535,4.86687 -9.06864,6.7504 -0.57022,0.67366 -0.76714,1.3488 -0.7462,2.02488 7.73813,-1.94565 11.57828,-5.6397 11.57828,-8.70469 0,-1.97506 -1.41076,-3.17419 -3.59746,-3.17419 z m -34.35048,5.84884 c -2.4455,2.80097 -5.64117,6.46202 -8.25036,9.44264 -0.53535,0.78777 0.67133,1.6933 1.3172,1.1676 1.63944,-1.86757 3.47153,-3.96094 5.02037,-5.73504 0.62213,-1.59974 1.13833,-3.02576 1.91279,-4.8752 z"
         sodipodi:nodetypes="ccccsscccssccccsccccscssccsscsscsscssccsscsscsscsscsscsscsscccssccssccssccssccccscccssccccssccccssccccsccsccccssccsssssccsscssccccsssccccccsssssssccccssccccscssccssccsscccccc"
         inkscape:export-xdpi="96"
         inkscape:export-ydpi="96" />
    </g>
  </g>
</svg>
