<?xml version="1.0" encoding="UTF-8" standalone="no"?>
<svg
   xmlns:dc="http://purl.org/dc/elements/1.1/"
   xmlns:cc="http://creativecommons.org/ns#"
   xmlns:rdf="http://www.w3.org/1999/02/22-rdf-syntax-ns#"
   xmlns:svg="http://www.w3.org/2000/svg"
   xmlns="http://www.w3.org/2000/svg"
   xmlns:xlink="http://www.w3.org/1999/xlink"
   xmlns:sodipodi="http://sodipodi.sourceforge.net/DTD/sodipodi-0.dtd"
   xmlns:inkscape="http://www.inkscape.org/namespaces/inkscape"
   inkscape:version="1.0.1 (3bc2e813f5, 2020-09-07)"
   sodipodi:docname="argon.svg"
   id="svg8093"
   version="1.1"
   viewBox="0 0 224.2368 123.23595"
   height="123.23595mm"
   width="224.2368mm">
  <defs
     id="defs8087">
    <radialGradient
       inkscape:collect="always"
       xlink:href="#linearGradient5532"
       id="radialGradient5534"
       cx="-39.403709"
       cy="157.74825"
       fx="-39.403709"
       fy="157.74825"
       r="112.1184"
       gradientTransform="matrix(0.99999997,0,0,0.54957948,725.28013,198.95933)"
       gradientUnits="userSpaceOnUse" />
    <linearGradient
       inkscape:collect="always"
       id="linearGradient5532">
      <stop
         style="stop-color:#000000;stop-opacity:0.36728094"
         offset="0"
         id="stop5528" />
      <stop
         style="stop-color:#000000;stop-opacity:0.839"
         offset="0.77152729"
         id="stop5536" />
      <stop
         style="stop-color:#000000;stop-opacity:1"
         offset="1"
         id="stop5530" />
    </linearGradient>
    <filter
       inkscape:collect="always"
       style="color-interpolation-filters:sRGB"
       id="filter11697"
       x="-0.12752245"
       width="1.2550449"
       y="-0.38836306"
       height="1.7767261">
      <feGaussianBlur
         inkscape:collect="always"
         stdDeviation="7.324762"
         id="feGaussianBlur11699" />
    </filter>
    <filter
       inkscape:collect="always"
       style="color-interpolation-filters:sRGB"
       id="filter11721"
       x="-0.031880613"
       width="1.0637612"
       y="-0.097090766"
       height="1.1941814">
      <feGaussianBlur
         inkscape:collect="always"
         stdDeviation="1.8311905"
         id="feGaussianBlur11723" />
    </filter>
    <filter
       inkscape:collect="always"
       style="color-interpolation-filters:sRGB"
       id="filter11725"
       x="-0.0079701534"
       width="1.0159403"
       y="-0.024272691"
       height="1.0485454">
      <feGaussianBlur
         inkscape:collect="always"
         stdDeviation="0.45779762"
         id="feGaussianBlur11727" />
    </filter>
  </defs>
  <sodipodi:namedview
     id="base"
     pagecolor="#c4c4c4"
     bordercolor="#666666"
     borderopacity="1.0"
     inkscape:pageopacity="0"
     inkscape:pageshadow="2"
     inkscape:zoom="1"
     inkscape:cx="423.75458"
     inkscape:cy="232.88683"
     inkscape:document-units="px"
     inkscape:current-layer="layer1"
     inkscape:document-rotation="0"
     showgrid="false"
     showborder="false"
     inkscape:window-width="1920"
     inkscape:window-height="1016"
     inkscape:window-x="0"
     inkscape:window-y="27"
     inkscape:window-maximized="1"
     inkscape:snap-global="false"
     fit-margin-top="0"
     fit-margin-left="0"
     fit-margin-right="0"
     fit-margin-bottom="0"
     showguides="true"
     inkscape:guide-bbox="true">
    <sodipodi:guide
       position="253.58707,45.183864"
       orientation="0,1"
       id="guide11743"
       inkscape:label=""
       inkscape:locked="false"
       inkscape:color="rgb(0,0,255)" />
  </sodipodi:namedview>
  <metadata
     id="metadata8090">
    <rdf:RDF>
      <cc:Work
         rdf:about="">
        <dc:format>image/svg+xml</dc:format>
        <dc:type
           rdf:resource="http://purl.org/dc/dcmitype/StillImage" />
        <dc:title></dc:title>
      </cc:Work>
    </rdf:RDF>
  </metadata>
  <g
     inkscape:label="Layer 1"
     inkscape:groupmode="layer"
     id="layer1"
     transform="translate(-573.758,-224.03656)">
    <rect
       style="opacity:1;fill:#0099ff;fill-opacity:1;stroke:none;stroke-width:1.06182;stroke-linecap:round;stroke-linejoin:round;stroke-miterlimit:4;stroke-dasharray:none;stroke-opacity:0.823529"
       id="rect5322-3"
       width="224.2368"
       height="123.23595"
       x="573.758"
       y="224.03656"
       inkscape:export-xdpi="96"
       inkscape:export-ydpi="96" />
    <text
       xml:space="preserve"
       style="font-style:normal;font-weight:normal;font-size:10.5833px;line-height:1.25;font-family:sans-serif;letter-spacing:0px;word-spacing:0px;fill:#000000;fill-opacity:1;stroke:none;stroke-width:0.264583"
       x="-3.6497369"
       y="93.780098"
       id="text8666"><tspan
         sodipodi:role="line"
         id="tspan8664"
         x="-3.6497369"
         y="93.780098"
         style="stroke-width:0.264583" /></text>
    <rect
       style="opacity:1;fill:url(#radialGradient5534);fill-opacity:1;stroke:none;stroke-width:1.06177;stroke-linecap:round;stroke-linejoin:round;stroke-miterlimit:4;stroke-dasharray:none;stroke-opacity:0.823529"
       id="rect5520"
       width="224.2368"
       height="123.23595"
       x="573.758"
       y="224.03656"
       inkscape:export-xdpi="96"
       inkscape:export-ydpi="96" />
    <path
       id="path11553"
       style="font-style:normal;font-variant:normal;font-weight:normal;font-stretch:normal;font-size:70.9489px;line-height:1.25;font-family:'Learning Curve';-inkscape-font-specification:'Learning Curve';letter-spacing:0px;word-spacing:0px;fill:#0099ff;fill-opacity:1;stroke:#0099ff;stroke-width:6.61458;stroke-linecap:round;stroke-linejoin:round;stroke-miterlimit:4;stroke-dasharray:none;stroke-opacity:0.807843;filter:url(#filter11697)"
       d="m 662.85377,278.36765 c -0.28382,0 -0.63841,0.21297 -0.78033,0.42581 -0.56754,0.70949 -1.27736,1.4902 -2.27066,2.76728 -1.8664,2.28116 -4.2772,5.17156 -6.95875,8.2057 -0.0781,0.0524 -0.16687,0.12605 -0.278,0.23719 -1.70278,1.91562 -9.01031,10.21643 -11.42257,10.21643 -1.20613,0 -1.84486,-1.06438 -1.84486,-2.34146 0,-1.48993 0.63847,-3.61817 1.48985,-5.88853 3.1927,-5.03737 5.32116,-10.14576 5.53402,-10.57144 0.071,-0.14191 0.14211,-0.35472 0.14211,-0.49662 0,-0.35475 -0.28398,-0.56761 -0.63873,-0.70951 -0.1419,-0.071 -1.56078,-0.70952 -3.90208,-0.70952 -5.17927,0 -10.14563,3.4055 -13.76402,7.73338 l -10.99725,13.3382 c -0.14192,0.1419 -0.21291,0.35508 -0.21291,0.56793 0,0.42569 0.42577,0.85111 0.92242,0.85111 0.21286,0 0.49683,-0.0709 0.63873,-0.28371 l 6.17223,-7.44967 c -0.21283,0.85139 -0.28372,1.63182 -0.28372,2.41225 0,2.97986 1.56081,5.32113 4.61161,5.32113 3.54746,0 6.45639,-2.90877 8.65582,-5.60483 -0.071,0.56759 -0.1416,0.99318 -0.1416,1.48983 0,2.05751 1.13516,4.115 3.61838,4.115 2.66867,0 6.24997,-3.69545 12.51501,-10.5823 0.10004,-0.0448 0.19293,-0.10728 0.2558,-0.20154 2.76698,-3.12175 5.24983,-6.03064 7.16544,-8.4429 0.35476,1.06423 1.27752,1.34772 2.19986,1.34772 h 1.48984 c 0.85137,0 0.99322,0.28383 0.99322,0.70952 0,0.42569 -0.21283,0.9934 -0.4966,1.63194 -0.92236,1.91562 -2.62517,4.75372 -2.62517,4.75372 -1.34802,2.12847 -3.47678,5.67555 -3.47678,7.87497 0,1.56087 1.20663,2.90887 2.90936,2.90887 0.63854,0 1.34754,-0.21266 1.91513,-0.56741 2.15868,-1.52906 4.7984,-4.22402 7.02283,-6.62699 -0.18523,0.77731 -0.28268,1.526 -0.28268,2.22829 0,2.55416 1.56075,4.82451 4.3987,4.82451 3.54746,0 6.38551,-2.62513 8.86873,-5.53403 l -1.02732,2.25258 c 0.75522,-0.62309 1.48298,-1.28037 2.56987,-1.49035 l 6.97169,-15.73237 c 0.071,-0.1419 0.1416,-0.35487 0.1416,-0.42582 0,-0.35475 -0.2835,-0.56761 -0.6382,-0.70951 -0.1419,-0.071 -1.2771,-0.49661 -3.12182,-0.49661 -3.12176,0 -8.23031,1.20632 -13.62244,7.37887 -0.78833,0.90376 -1.47952,1.83348 -2.07325,2.76676 -0.0762,0.0439 -0.14674,0.092 -0.19688,0.14211 -2.62511,2.62511 -6.38564,7.30762 -10.00405,9.93273 -0.28379,0.21285 -0.63812,0.2837 -0.92191,0.2837 -0.56754,0 -1.13533,-0.42584 -1.13533,-1.13533 0,-1.63183 1.77361,-4.54081 3.19257,-6.95306 1.34802,-2.27038 3.40548,-5.7466 3.40548,-7.59127 0,-1.20613 -0.99344,-2.19935 -2.34146,-2.19935 h -1.48982 c -0.42569,0 -0.92244,1e-4 -0.92244,-0.2837 0,-0.21285 0.0711,-0.85142 0.63873,-1.91565 0.21283,-0.35474 0.35502,-0.70943 0.35502,-0.99322 0,-0.35475 -0.2839,-0.78083 -0.92242,-0.78083 z m 47.96092,1.20613 c -4.0441,0 -6.2431,6.81124 -6.2431,10.28774 0,2.83796 0.8511,4.96647 2.5539,6.24355 1.1451,0.73059 2.5204,1.26745 3.7605,1.27692 3.4765,0 6.6693,-2.90858 9.5782,-6.17223 0.073,-0.0732 0.1263,-0.16588 0.1618,-0.26717 2.5028,-2.86573 6.479,-7.49765 7.9969,-8.60154 0.7804,-0.56759 1.3484,-0.78031 1.774,-0.78031 0.6386,0 0.7803,0.56758 0.7803,1.20612 0,3.0508 -3.9731,11.70652 -6.7401,16.88579 -0.2838,0.56759 -0.355,0.78023 -0.355,1.06402 0,0.56759 0.2839,0.92242 0.9224,0.92242 0.2128,0 0.6385,-0.0712 0.9932,-0.63872 1.2062,-1.98656 4.2569,-7.73324 7.7334,-12.13207 3.1218,-3.90219 6.6694,-7.16597 10.004,-7.16597 0.7805,0 1.2062,0.14204 1.2062,1.13533 0,1.77372 -1.6318,5.32103 -2.9089,8.01708 -1.5609,3.3346 -2.9802,6.38539 -2.9802,8.4429 0,1.20613 0.7807,2.55436 2.5544,2.55436 3.4765,0 8.8687,-6.03056 12.9837,-10.64224 0.1419,-0.1419 0.2129,-0.35508 0.2129,-0.56793 0,-0.49663 -0.284,-0.92242 -0.8516,-0.92242 -0.2129,0 -0.4963,0.14232 -0.6382,0.28422 -4.186,4.68263 -9.1528,10.07432 -11.636,10.07432 -0.5676,0 -0.8511,-0.28337 -0.8511,-0.92191 0,-1.63183 1.4901,-5.03762 2.838,-7.59178 0.9933,-1.91562 3.0505,-6.38556 3.0505,-9.08162 0,-1.63182 -1.2769,-2.55385 -2.9797,-2.55385 -4.3278,0 -8.585,3.90183 -12.4162,9.0811 0.7094,-1.84467 1.7027,-4.89515 1.7027,-6.17223 0,-1.41898 -0.9219,-3.05098 -2.6247,-3.05098 -0.8513,0 -1.8447,0.42584 -2.838,1.13533 -1.7028,1.27708 -6.0307,6.24366 -8.4429,9.08162 -0.073,0.0732 -0.1458,0.18428 -0.1995,0.30386 -3.2058,3.61704 -5.7515,5.30097 -7.9597,5.30097 -1.0172,0.006 -1.9128,-0.33551 -2.7668,-0.92243 -1.6318,-1.13519 -1.8448,-3.47648 -1.8448,-4.82451 0,-2.83796 1.8444,-8.51369 4.4695,-8.51369 1.2061,0 1.3482,2.3414 1.3482,3.33468 0,3.14242 -1.3368,6.17294 -3.2199,8.94467 0.312,0.56657 0.8595,0.83617 1.6257,0.82992 1.8413,-2.85467 3.3677,-6.23638 3.3677,-9.84591 0,-1.84467 -0.5676,-5.03741 -3.1217,-5.03741 z m -5.9593,0.56792 c -0.142,0 -0.284,0.0707 -0.4259,0.14159 -3.7341,2.46012 -6.3516,6.08985 -7.8047,9.60924 -0.054,0.0353 -0.1035,0.073 -0.1415,0.1111 -4.1151,4.46978 -6.6695,5.8885 -11.70683,8.7974 -2.26679,1.29767 -4.73649,2.87411 -6.59805,4.11499 -8.37197,5.39211 -11.56467,12.0616 -11.56467,16.24759 0,2.27036 1.06452,4.46949 3.47678,4.46949 3.47652,0 6.10127,-5.74677 7.87498,-9.43611 1.37414,-2.87318 2.98434,-6.50704 4.84674,-10.85826 -0.91828,0.82725 -1.79048,1.34282 -2.61794,1.55598 -1.34186,3.04155 -2.60411,6.03062 -3.86075,8.66355 -2.27036,4.75359 -4.32739,8.23051 -6.24303,8.23051 -1.27706,0 -1.70325,-1.41939 -1.70325,-2.69647 0,-3.40555 2.6254,-9.43623 10.71356,-14.68645 1.50476,-0.98544 2.88853,-1.85485 4.4695,-2.83755 5.74199,-3.19 8.73456,-5.00702 11.96106,-8.08271 -0.168,0.87295 -0.2543,1.70711 -0.2543,2.47737 0,2.9089 1.4898,5.95984 4.8953,5.95984 2.9127,0 5.5417,-1.86644 7.7381,-4.1336 -0.5549,-0.0883 -1.0989,-0.32093 -1.6211,-0.84439 -1.6205,1.57611 -3.7134,3.20446 -6.117,3.20445 -2.1284,0 -3.1217,-1.98689 -3.1217,-4.1863 0,-4.25694 3.051,-10.71335 8.3013,-14.18984 0.2837,-0.21284 0.4258,-0.49652 0.4258,-0.78031 0,-0.4257 -0.4258,-0.85111 -0.9224,-0.85111 z m -63.00242,1.13482 c 0.92234,0 1.70257,0.14231 2.27015,0.28422 -1.13517,1.84467 -3.40524,5.81763 -4.96609,9.71981 -1.98658,3.33461 -6.24383,8.93951 -10.21697,8.93951 -1.84465,0 -2.76675,-1.6316 -2.76675,-3.47627 0,-6.3854 7.94623,-15.46727 15.67966,-15.46727 z m 47.039,0.2129 c 0.63855,0 1.13492,0.0712 1.56062,0.14211 -2.90891,6.3854 -8.30093,16.67315 -13.76402,18.23403 -0.49662,0.14189 -0.99354,0.21239 -1.56115,0.21239 -1.70278,0 -2.62464,-1.20579 -2.62464,-3.05046 0,-2.27037 1.27704,-5.46295 4.11501,-8.7266 4.96642,-5.74686 9.57811,-6.81147 12.27418,-6.81147 z"
       sodipodi:nodetypes="sccccsscsscsccssccsscsscccsssccssccssccccscsccccsscsssscssssccccssscssccsscsscsscsscsscsscccccsssccssscccccssccccsscccssccsscsssccsssscssscs" />
    <g
       id="g11789">
      <path
         id="path11695"
         style="font-style:normal;font-variant:normal;font-weight:normal;font-stretch:normal;font-size:70.9489px;line-height:1.25;font-family:'Learning Curve';-inkscape-font-specification:'Learning Curve';letter-spacing:0px;word-spacing:0px;fill:#55bbff;fill-opacity:0.980392;stroke:#55bcff;stroke-width:4.23333;stroke-linecap:round;stroke-linejoin:round;stroke-miterlimit:4;stroke-dasharray:none;stroke-opacity:0.980392;filter:url(#filter11721)"
         d="m 662.85377,278.36765 c -0.28382,0 -0.63841,0.21297 -0.78033,0.42581 -0.56754,0.70949 -1.27736,1.4902 -2.27066,2.76728 -1.8664,2.28116 -4.2772,5.17156 -6.95875,8.2057 -0.0781,0.0524 -0.16687,0.12605 -0.278,0.23719 -1.70278,1.91562 -9.01031,10.21643 -11.42257,10.21643 -1.20613,0 -1.84486,-1.06438 -1.84486,-2.34146 0,-1.48993 0.63847,-3.61817 1.48985,-5.88853 3.1927,-5.03737 5.32116,-10.14576 5.53402,-10.57144 0.071,-0.14191 0.14211,-0.35472 0.14211,-0.49662 0,-0.35475 -0.28398,-0.56761 -0.63873,-0.70951 -0.1419,-0.071 -1.56078,-0.70952 -3.90208,-0.70952 -5.17927,0 -10.14563,3.4055 -13.76402,7.73338 l -10.99725,13.3382 c -0.14192,0.1419 -0.21291,0.35508 -0.21291,0.56793 0,0.42569 0.42577,0.85111 0.92242,0.85111 0.21286,0 0.49683,-0.0709 0.63873,-0.28371 l 6.17223,-7.44967 c -0.21283,0.85139 -0.28372,1.63182 -0.28372,2.41225 0,2.97986 1.56081,5.32113 4.61161,5.32113 3.54746,0 6.45639,-2.90877 8.65582,-5.60483 -0.071,0.56759 -0.1416,0.99318 -0.1416,1.48983 0,2.05751 1.13516,4.115 3.61838,4.115 2.66867,0 6.24997,-3.69545 12.51501,-10.5823 0.10004,-0.0448 0.19293,-0.10728 0.2558,-0.20154 2.76698,-3.12175 5.24983,-6.03064 7.16544,-8.4429 0.35476,1.06423 1.27752,1.34772 2.19986,1.34772 h 1.48984 c 0.85137,0 0.99322,0.28383 0.99322,0.70952 0,0.42569 -0.21283,0.9934 -0.4966,1.63194 -0.92236,1.91562 -2.62517,4.75372 -2.62517,4.75372 -1.34802,2.12847 -3.47678,5.67555 -3.47678,7.87497 0,1.56087 1.20663,2.90887 2.90936,2.90887 0.63854,0 1.34754,-0.21266 1.91513,-0.56741 2.15868,-1.52906 4.7984,-4.22402 7.02283,-6.62699 -0.18523,0.77731 -0.28268,1.526 -0.28268,2.22829 0,2.55416 1.56075,4.82451 4.3987,4.82451 3.54746,0 6.38551,-2.62513 8.86873,-5.53403 l -1.02732,2.25258 c 0.75522,-0.62309 1.48298,-1.28037 2.56987,-1.49035 l 6.97169,-15.73237 c 0.071,-0.1419 0.1416,-0.35487 0.1416,-0.42582 0,-0.35475 -0.2835,-0.56761 -0.6382,-0.70951 -0.1419,-0.071 -1.2771,-0.49661 -3.12182,-0.49661 -3.12176,0 -8.23031,1.20632 -13.62244,7.37887 -0.78833,0.90376 -1.47952,1.83348 -2.07325,2.76676 -0.0762,0.0439 -0.14674,0.092 -0.19688,0.14211 -2.62511,2.62511 -6.38564,7.30762 -10.00405,9.93273 -0.28379,0.21285 -0.63812,0.2837 -0.92191,0.2837 -0.56754,0 -1.13533,-0.42584 -1.13533,-1.13533 0,-1.63183 1.77361,-4.54081 3.19257,-6.95306 1.34802,-2.27038 3.40548,-5.7466 3.40548,-7.59127 0,-1.20613 -0.99344,-2.19935 -2.34146,-2.19935 h -1.48982 c -0.42569,0 -0.92244,1e-4 -0.92244,-0.2837 0,-0.21285 0.0711,-0.85142 0.63873,-1.91565 0.21283,-0.35474 0.35502,-0.70943 0.35502,-0.99322 0,-0.35475 -0.2839,-0.78083 -0.92242,-0.78083 z m 47.96092,1.20613 c -4.0441,0 -6.2431,6.81124 -6.2431,10.28774 0,2.83796 0.8511,4.96647 2.5539,6.24355 1.1451,0.73059 2.5204,1.26745 3.7605,1.27692 3.4765,0 6.6693,-2.90858 9.5782,-6.17223 0.073,-0.0732 0.1263,-0.16588 0.1618,-0.26717 2.5028,-2.86573 6.479,-7.49765 7.9969,-8.60154 0.7804,-0.56759 1.3484,-0.78031 1.774,-0.78031 0.6386,0 0.7803,0.56758 0.7803,1.20612 0,3.0508 -3.9731,11.70652 -6.7401,16.88579 -0.2838,0.56759 -0.355,0.78023 -0.355,1.06402 0,0.56759 0.2839,0.92242 0.9224,0.92242 0.2128,0 0.6385,-0.0712 0.9932,-0.63872 1.2062,-1.98656 4.2569,-7.73324 7.7334,-12.13207 3.1218,-3.90219 6.6694,-7.16597 10.004,-7.16597 0.7805,0 1.2062,0.14204 1.2062,1.13533 0,1.77372 -1.6318,5.32103 -2.9089,8.01708 -1.5609,3.3346 -2.9802,6.38539 -2.9802,8.4429 0,1.20613 0.7807,2.55436 2.5544,2.55436 3.4765,0 8.8687,-6.03056 12.9837,-10.64224 0.1419,-0.1419 0.2129,-0.35508 0.2129,-0.56793 0,-0.49663 -0.284,-0.92242 -0.8516,-0.92242 -0.2129,0 -0.4963,0.14232 -0.6382,0.28422 -4.186,4.68263 -9.1528,10.07432 -11.636,10.07432 -0.5676,0 -0.8511,-0.28337 -0.8511,-0.92191 0,-1.63183 1.4901,-5.03762 2.838,-7.59178 0.9933,-1.91562 3.0505,-6.38556 3.0505,-9.08162 0,-1.63182 -1.2769,-2.55385 -2.9797,-2.55385 -4.3278,0 -8.585,3.90183 -12.4162,9.0811 0.7094,-1.84467 1.7027,-4.89515 1.7027,-6.17223 0,-1.41898 -0.9219,-3.05098 -2.6247,-3.05098 -0.8513,0 -1.8447,0.42584 -2.838,1.13533 -1.7028,1.27708 -6.0307,6.24366 -8.4429,9.08162 -0.073,0.0732 -0.1458,0.18428 -0.1995,0.30386 -3.2058,3.61704 -5.7515,5.30097 -7.9597,5.30097 -1.0172,0.006 -1.9128,-0.33551 -2.7668,-0.92243 -1.6318,-1.13519 -1.8448,-3.47648 -1.8448,-4.82451 0,-2.83796 1.8444,-8.51369 4.4695,-8.51369 1.2061,0 1.3482,2.3414 1.3482,3.33468 0,3.14242 -1.3368,6.17294 -3.2199,8.94467 0.312,0.56657 0.8595,0.83617 1.6257,0.82992 1.8413,-2.85467 3.3677,-6.23638 3.3677,-9.84591 0,-1.84467 -0.5676,-5.03741 -3.1217,-5.03741 z m -5.9593,0.56792 c -0.142,0 -0.284,0.0707 -0.4259,0.14159 -3.7341,2.46012 -6.3516,6.08985 -7.8047,9.60924 -0.054,0.0353 -0.1035,0.073 -0.1415,0.1111 -4.1151,4.46978 -6.6695,5.8885 -11.70683,8.7974 -2.26679,1.29767 -4.73649,2.87411 -6.59805,4.11499 -8.37197,5.39211 -11.56467,12.0616 -11.56467,16.24759 0,2.27036 1.06452,4.46949 3.47678,4.46949 3.47652,0 6.10127,-5.74677 7.87498,-9.43611 1.37414,-2.87318 2.98434,-6.50704 4.84674,-10.85826 -0.91828,0.82725 -1.79048,1.34282 -2.61794,1.55598 -1.34186,3.04155 -2.60411,6.03062 -3.86075,8.66355 -2.27036,4.75359 -4.32739,8.23051 -6.24303,8.23051 -1.27706,0 -1.70325,-1.41939 -1.70325,-2.69647 0,-3.40555 2.6254,-9.43623 10.71356,-14.68645 1.50476,-0.98544 2.88853,-1.85485 4.4695,-2.83755 5.74199,-3.19 8.73456,-5.00702 11.96106,-8.08271 -0.168,0.87295 -0.2543,1.70711 -0.2543,2.47737 0,2.9089 1.4898,5.95984 4.8953,5.95984 2.9127,0 5.5417,-1.86644 7.7381,-4.1336 -0.5549,-0.0883 -1.0989,-0.32093 -1.6211,-0.84439 -1.6205,1.57611 -3.7134,3.20446 -6.117,3.20445 -2.1284,0 -3.1217,-1.98689 -3.1217,-4.1863 0,-4.25694 3.051,-10.71335 8.3013,-14.18984 0.2837,-0.21284 0.4258,-0.49652 0.4258,-0.78031 0,-0.4257 -0.4258,-0.85111 -0.9224,-0.85111 z m -63.00242,1.13482 c 0.92234,0 1.70257,0.14231 2.27015,0.28422 -1.13517,1.84467 -3.40524,5.81763 -4.96609,9.71981 -1.98658,3.33461 -6.24383,8.93951 -10.21697,8.93951 -1.84465,0 -2.76675,-1.6316 -2.76675,-3.47627 0,-6.3854 7.94623,-15.46727 15.67966,-15.46727 z m 47.039,0.2129 c 0.63855,0 1.13492,0.0712 1.56062,0.14211 -2.90891,6.3854 -8.30093,16.67315 -13.76402,18.23403 -0.49662,0.14189 -0.99354,0.21239 -1.56115,0.21239 -1.70278,0 -2.62464,-1.20579 -2.62464,-3.05046 0,-2.27037 1.27704,-5.46295 4.11501,-8.7266 4.96642,-5.74686 9.57811,-6.81147 12.27418,-6.81147 z"
         sodipodi:nodetypes="sccccsscsscsccssccsscsscccsssccssccssccccscsccccsscsssscssssccccssscssccsscsscsscsscsscsscccccsssccssscccccssccccsscccssccsscsssccsssscssscs" />
      <path
         id="path11693"
         style="font-style:normal;font-variant:normal;font-weight:normal;font-stretch:normal;font-size:70.9489px;line-height:1.25;font-family:'Learning Curve';-inkscape-font-specification:'Learning Curve';letter-spacing:0px;word-spacing:0px;fill:#aaddff;fill-opacity:1;stroke:#aaddff;stroke-width:0.79375;stroke-linecap:round;stroke-linejoin:round;stroke-miterlimit:4;stroke-dasharray:none;stroke-opacity:1;filter:url(#filter11725)"
         d="m 662.85377,278.36765 c -0.28382,0 -0.63841,0.21297 -0.78033,0.42581 -0.56754,0.70949 -1.27736,1.4902 -2.27066,2.76728 -1.8664,2.28116 -4.2772,5.17156 -6.95875,8.2057 -0.0781,0.0524 -0.16687,0.12605 -0.278,0.23719 -1.70278,1.91562 -9.01031,10.21643 -11.42257,10.21643 -1.20613,0 -1.84486,-1.06438 -1.84486,-2.34146 0,-1.48993 0.63847,-3.61817 1.48985,-5.88853 3.1927,-5.03737 5.32116,-10.14576 5.53402,-10.57144 0.071,-0.14191 0.14211,-0.35472 0.14211,-0.49662 0,-0.35475 -0.28398,-0.56761 -0.63873,-0.70951 -0.1419,-0.071 -1.56078,-0.70952 -3.90208,-0.70952 -5.17927,0 -10.14563,3.4055 -13.76402,7.73338 l -10.99725,13.3382 c -0.14192,0.1419 -0.21291,0.35508 -0.21291,0.56793 0,0.42569 0.42577,0.85111 0.92242,0.85111 0.21286,0 0.49683,-0.0709 0.63873,-0.28371 l 6.17223,-7.44967 c -0.21283,0.85139 -0.28372,1.63182 -0.28372,2.41225 0,2.97986 1.56081,5.32113 4.61161,5.32113 3.54746,0 6.45639,-2.90877 8.65582,-5.60483 -0.071,0.56759 -0.1416,0.99318 -0.1416,1.48983 0,2.05751 1.13516,4.115 3.61838,4.115 2.66867,0 6.24997,-3.69545 12.51501,-10.5823 0.10004,-0.0448 0.19293,-0.10728 0.2558,-0.20154 2.76698,-3.12175 5.24983,-6.03064 7.16544,-8.4429 0.35476,1.06423 1.27752,1.34772 2.19986,1.34772 h 1.48984 c 0.85137,0 0.99322,0.28383 0.99322,0.70952 0,0.42569 -0.21283,0.9934 -0.4966,1.63194 -0.92236,1.91562 -2.62517,4.75372 -2.62517,4.75372 -1.34802,2.12847 -3.47678,5.67555 -3.47678,7.87497 0,1.56087 1.20663,2.90887 2.90936,2.90887 0.63854,0 1.34754,-0.21266 1.91513,-0.56741 2.15868,-1.52906 4.7984,-4.22402 7.02283,-6.62699 -0.18523,0.77731 -0.28268,1.526 -0.28268,2.22829 0,2.55416 1.56075,4.82451 4.3987,4.82451 3.54746,0 6.38551,-2.62513 8.86873,-5.53403 l -1.02732,2.25258 c 0.75522,-0.62309 1.48298,-1.28037 2.56987,-1.49035 l 6.97169,-15.73237 c 0.071,-0.1419 0.1416,-0.35487 0.1416,-0.42582 0,-0.35475 -0.2835,-0.56761 -0.6382,-0.70951 -0.1419,-0.071 -1.2771,-0.49661 -3.12182,-0.49661 -3.12176,0 -8.23031,1.20632 -13.62244,7.37887 -0.78833,0.90376 -1.47952,1.83348 -2.07325,2.76676 -0.0762,0.0439 -0.14674,0.092 -0.19688,0.14211 -2.62511,2.62511 -6.38564,7.30762 -10.00405,9.93273 -0.28379,0.21285 -0.63812,0.2837 -0.92191,0.2837 -0.56754,0 -1.13533,-0.42584 -1.13533,-1.13533 0,-1.63183 1.77361,-4.54081 3.19257,-6.95306 1.34802,-2.27038 3.40548,-5.7466 3.40548,-7.59127 0,-1.20613 -0.99344,-2.19935 -2.34146,-2.19935 h -1.48982 c -0.42569,0 -0.92244,1e-4 -0.92244,-0.2837 0,-0.21285 0.0711,-0.85142 0.63873,-1.91565 0.21283,-0.35474 0.35502,-0.70943 0.35502,-0.99322 0,-0.35475 -0.2839,-0.78083 -0.92242,-0.78083 z m 47.96092,1.20613 c -4.0441,0 -6.2431,6.81124 -6.2431,10.28774 0,2.83796 0.8511,4.96647 2.5539,6.24355 1.1451,0.73059 2.5204,1.26745 3.7605,1.27692 3.4765,0 6.6693,-2.90858 9.5782,-6.17223 0.073,-0.0732 0.1263,-0.16588 0.1618,-0.26717 2.5028,-2.86573 6.479,-7.49765 7.9969,-8.60154 0.7804,-0.56759 1.3484,-0.78031 1.774,-0.78031 0.6386,0 0.7803,0.56758 0.7803,1.20612 0,3.0508 -3.9731,11.70652 -6.7401,16.88579 -0.2838,0.56759 -0.355,0.78023 -0.355,1.06402 0,0.56759 0.2839,0.92242 0.9224,0.92242 0.2128,0 0.6385,-0.0712 0.9932,-0.63872 1.2062,-1.98656 4.2569,-7.73324 7.7334,-12.13207 3.1218,-3.90219 6.6694,-7.16597 10.004,-7.16597 0.7805,0 1.2062,0.14204 1.2062,1.13533 0,1.77372 -1.6318,5.32103 -2.9089,8.01708 -1.5609,3.3346 -2.9802,6.38539 -2.9802,8.4429 0,1.20613 0.7807,2.55436 2.5544,2.55436 3.4765,0 8.8687,-6.03056 12.9837,-10.64224 0.1419,-0.1419 0.2129,-0.35508 0.2129,-0.56793 0,-0.49663 -0.284,-0.92242 -0.8516,-0.92242 -0.2129,0 -0.4963,0.14232 -0.6382,0.28422 -4.186,4.68263 -9.1528,10.07432 -11.636,10.07432 -0.5676,0 -0.8511,-0.28337 -0.8511,-0.92191 0,-1.63183 1.4901,-5.03762 2.838,-7.59178 0.9933,-1.91562 3.0505,-6.38556 3.0505,-9.08162 0,-1.63182 -1.2769,-2.55385 -2.9797,-2.55385 -4.3278,0 -8.585,3.90183 -12.4162,9.0811 0.7094,-1.84467 1.7027,-4.89515 1.7027,-6.17223 0,-1.41898 -0.9219,-3.05098 -2.6247,-3.05098 -0.8513,0 -1.8447,0.42584 -2.838,1.13533 -1.7028,1.27708 -6.0307,6.24366 -8.4429,9.08162 -0.073,0.0732 -0.1458,0.18428 -0.1995,0.30386 -3.2058,3.61704 -5.7515,5.30097 -7.9597,5.30097 -1.0172,0.006 -1.9128,-0.33551 -2.7668,-0.92243 -1.6318,-1.13519 -1.8448,-3.47648 -1.8448,-4.82451 0,-2.83796 1.8444,-8.51369 4.4695,-8.51369 1.2061,0 1.3482,2.3414 1.3482,3.33468 0,3.14242 -1.3368,6.17294 -3.2199,8.94467 0.312,0.56657 0.8595,0.83617 1.6257,0.82992 1.8413,-2.85467 3.3677,-6.23638 3.3677,-9.84591 0,-1.84467 -0.5676,-5.03741 -3.1217,-5.03741 z m -5.9593,0.56792 c -0.142,0 -0.284,0.0707 -0.4259,0.14159 -3.7341,2.46012 -6.3516,6.08985 -7.8047,9.60924 -0.054,0.0353 -0.1035,0.073 -0.1415,0.1111 -4.1151,4.46978 -6.6695,5.8885 -11.70683,8.7974 -2.26679,1.29767 -4.73649,2.87411 -6.59805,4.11499 -8.37197,5.39211 -11.56467,12.0616 -11.56467,16.24759 0,2.27036 1.06452,4.46949 3.47678,4.46949 3.47652,0 6.10127,-5.74677 7.87498,-9.43611 1.37414,-2.87318 2.98434,-6.50704 4.84674,-10.85826 -0.91828,0.82725 -1.79048,1.34282 -2.61794,1.55598 -1.34186,3.04155 -2.60411,6.03062 -3.86075,8.66355 -2.27036,4.75359 -4.32739,8.23051 -6.24303,8.23051 -1.27706,0 -1.70325,-1.41939 -1.70325,-2.69647 0,-3.40555 2.6254,-9.43623 10.71356,-14.68645 1.50476,-0.98544 2.88853,-1.85485 4.4695,-2.83755 5.74199,-3.19 8.73456,-5.00702 11.96106,-8.08271 -0.168,0.87295 -0.2543,1.70711 -0.2543,2.47737 0,2.9089 1.4898,5.95984 4.8953,5.95984 2.9127,0 5.5417,-1.86644 7.7381,-4.1336 -0.5549,-0.0883 -1.0989,-0.32093 -1.6211,-0.84439 -1.6205,1.57611 -3.7134,3.20446 -6.117,3.20445 -2.1284,0 -3.1217,-1.98689 -3.1217,-4.1863 0,-4.25694 3.051,-10.71335 8.3013,-14.18984 0.2837,-0.21284 0.4258,-0.49652 0.4258,-0.78031 0,-0.4257 -0.4258,-0.85111 -0.9224,-0.85111 z m -63.00242,1.13482 c 0.92234,0 1.70257,0.14231 2.27015,0.28422 -1.13517,1.84467 -3.40524,5.81763 -4.96609,9.71981 -1.98658,3.33461 -6.24383,8.93951 -10.21697,8.93951 -1.84465,0 -2.76675,-1.6316 -2.76675,-3.47627 0,-6.3854 7.94623,-15.46727 15.67966,-15.46727 z m 47.039,0.2129 c 0.63855,0 1.13492,0.0712 1.56062,0.14211 -2.90891,6.3854 -8.30093,16.67315 -13.76402,18.23403 -0.49662,0.14189 -0.99354,0.21239 -1.56115,0.21239 -1.70278,0 -2.62464,-1.20579 -2.62464,-3.05046 0,-2.27037 1.27704,-5.46295 4.11501,-8.7266 4.96642,-5.74686 9.57811,-6.81147 12.27418,-6.81147 z"
         sodipodi:nodetypes="sccccsscsscsccssccsscsscccsssccssccssccccscsccccsscsssscssssccccssscssccsscsscsscsscsscsscccccsssccssscccccssccccsscccssccsscsssccsssscssscs" />
      <path
         id="path11739"
         style="font-style:normal;font-variant:normal;font-weight:normal;font-stretch:normal;font-size:70.9489px;line-height:1.25;font-family:'Learning Curve';-inkscape-font-specification:'Learning Curve';letter-spacing:0px;word-spacing:0px;opacity:0.15;fill:#000000;fill-opacity:1;stroke:none;stroke-width:1.71552;stroke-linecap:round;stroke-linejoin:round"
         d="m 663.60933,281.45151 c -0.2745,0 -0.61746,0.20598 -0.75472,0.41184 -0.54891,0.6862 -1.23544,1.44129 -2.19614,2.67646 -1.80515,2.2063 -4.13683,5.00184 -6.73038,7.9364 -0.0755,0.0507 -0.16139,0.12192 -0.26887,0.22941 -1.6469,1.85275 -8.71461,9.88114 -11.04771,9.88114 -1.16654,0 -1.78431,-1.02945 -1.78431,-2.26461 0,-1.44104 0.61752,-3.49943 1.44095,-5.69528 3.08793,-4.87206 5.14653,-9.8128 5.35241,-10.22451 0.0687,-0.13725 0.13744,-0.34308 0.13744,-0.48032 0,-0.34311 -0.27466,-0.54898 -0.61776,-0.68622 -0.13725,-0.0687 -1.50956,-0.68624 -3.77402,-0.68624 -5.0093,0 -9.81267,3.29374 -13.31231,7.47959 l -10.63634,12.90046 c -0.13727,0.13724 -0.20593,0.34343 -0.20593,0.54929 0,0.41172 0.4118,0.82318 0.89215,0.82318 0.20588,0 0.48053,-0.0686 0.61777,-0.2744 l 5.96967,-7.20519 c -0.20585,0.82345 -0.27441,1.57827 -0.27441,2.33309 0,2.88207 1.50959,5.1465 4.46026,5.1465 3.43104,0 6.24451,-2.81331 8.37176,-5.42089 -0.0687,0.54896 -0.13696,0.96059 -0.13696,1.44094 0,1.98998 1.09791,3.97995 3.49963,3.97995 2.58109,0 6.04486,-3.57417 12.10429,-10.23501 0.0968,-0.0433 0.1866,-0.10376 0.24741,-0.19492 2.67617,-3.0193 5.07754,-5.83273 6.93028,-8.16582 0.34312,1.0293 1.2356,1.30349 2.12767,1.30349 h 1.44094 c 0.82343,0 0.96063,0.27451 0.96063,0.68623 0,0.41172 -0.20585,0.9608 -0.48031,1.57838 -0.89209,1.85276 -2.53901,4.59772 -2.53901,4.59772 -1.30378,2.05861 -3.36268,5.48928 -3.36268,7.61652 0,1.50965 1.16703,2.81341 2.81388,2.81341 0.61758,0 1.30332,-0.20568 1.85228,-0.54879 2.08783,-1.47888 4.64092,-4.08539 6.79235,-6.4095 -0.17915,0.7518 -0.2734,1.47592 -0.2734,2.15516 0,2.47034 1.50953,4.66618 4.25434,4.66618 3.43104,0 6.17595,-2.53898 8.57768,-5.35242 l -0.99361,2.17866 c 0.73044,-0.60264 1.43431,-1.23835 2.48553,-1.44144 l 6.74289,-15.21606 c 0.0687,-0.13725 0.13696,-0.34323 0.13696,-0.41185 0,-0.34311 -0.2742,-0.54898 -0.61726,-0.68622 -0.13724,-0.0687 -1.23519,-0.48032 -3.01937,-0.48032 -3.01931,0 -7.9602,1.16673 -13.17537,7.13671 -0.76246,0.8741 -1.43097,1.77331 -2.00521,2.67596 -0.0737,0.0425 -0.14193,0.089 -0.19042,0.13745 -2.53896,2.53896 -6.17608,7.0678 -9.67574,9.60675 -0.27447,0.20587 -0.61717,0.27439 -0.89165,0.27439 -0.54891,0 -1.09807,-0.41186 -1.09807,-1.09807 0,-1.57827 1.7154,-4.39179 3.08779,-6.72487 1.30379,-2.19587 3.29372,-5.55801 3.29372,-7.34214 0,-1.16655 -0.96083,-2.12717 -2.26461,-2.12717 h -1.44093 c -0.41172,0 -0.89217,10e-5 -0.89217,-0.27439 0,-0.20586 0.0688,-0.82348 0.61777,-1.85278 0.20585,-0.3431 0.34337,-0.68615 0.34337,-0.96063 0,-0.3431 -0.27458,-0.7552 -0.89215,-0.7552 z m 46.38693,1.16655 c -3.91138,0 -6.03821,6.5877 -6.03821,9.95011 0,2.74483 0.82317,4.80348 2.47008,6.03865 1.10752,0.70661 2.43769,1.22585 3.63709,1.23501 3.36241,0 6.45043,-2.81312 9.26386,-5.96966 0.0706,-0.0708 0.12216,-0.16044 0.15649,-0.25841 2.42066,-2.77168 6.26637,-7.25159 7.73446,-8.31925 0.75479,-0.54896 1.30415,-0.7547 1.71578,-0.7547 0.61764,0 0.75469,0.54895 0.75469,1.16654 0,2.95067 -3.84271,11.32233 -6.5189,16.33162 -0.27449,0.54897 -0.34335,0.75463 -0.34335,1.02911 0,0.54896 0.27458,0.89214 0.89213,0.89214 0.20581,0 0.61754,-0.0689 0.9606,-0.61775 1.16662,-1.92137 4.1172,-7.47945 7.47961,-11.73392 3.01934,-3.77413 6.45052,-6.9308 9.67568,-6.9308 0.75489,0 1.16662,0.13738 1.16662,1.09807 0,1.71551 -1.57825,5.14641 -2.81344,7.75398 -1.50967,3.22516 -2.88239,6.17583 -2.88239,8.16582 0,1.16654 0.75508,2.47053 2.47057,2.47053 3.3624,0 8.57764,-5.83265 12.55759,-10.29298 0.13725,-0.13725 0.20592,-0.34343 0.20592,-0.5493 0,-0.48033 -0.27468,-0.89214 -0.82365,-0.89214 -0.20592,0 -0.48002,0.13765 -0.61726,0.27489 -4.04862,4.52895 -8.85242,9.7437 -11.25413,9.7437 -0.54897,0 -0.82317,-0.27407 -0.82317,-0.89166 0,-1.57827 1.4412,-4.87229 2.74487,-7.34263 0.9607,-1.85275 2.95038,-6.176 2.95038,-8.78358 0,-1.57826 -1.23499,-2.47003 -2.88191,-2.47003 -4.18577,0 -8.30325,3.77378 -12.00872,8.78307 0.68612,-1.78413 1.64682,-4.7345 1.64682,-5.96967 0,-1.37241 -0.89165,-2.95085 -2.53856,-2.95085 -0.82336,0 -1.78416,0.41186 -2.74486,1.09807 -1.64692,1.23517 -5.83279,6.03876 -8.16582,8.78358 -0.0706,0.0708 -0.14102,0.17823 -0.19296,0.29389 -3.10059,3.49833 -5.56274,5.127 -7.69847,5.127 -0.98382,0.006 -1.85003,-0.3245 -2.676,-0.89216 -1.57825,-1.09793 -1.78426,-3.36239 -1.78426,-4.66618 0,-2.74482 1.78387,-8.23428 4.32282,-8.23428 1.16652,0 1.30395,2.26456 1.30395,3.22524 0,3.03929 -1.29292,5.97035 -3.11422,8.65112 0.30176,0.54798 0.83129,0.80873 1.57234,0.80268 1.78088,-2.76098 3.25718,-6.03171 3.25718,-9.52278 0,-1.78413 -0.54897,-4.87209 -3.01925,-4.87209 z m -5.76373,0.54928 c -0.13734,0 -0.27468,0.0684 -0.41192,0.13694 -3.61155,2.37939 -6.14315,5.88999 -7.54856,9.29388 -0.0522,0.0341 -0.10011,0.0706 -0.13686,0.10746 -3.98005,4.32309 -6.45062,5.69525 -11.32263,8.50868 -2.1924,1.25509 -4.58105,2.77979 -6.38152,3.97995 -8.09721,5.21515 -11.18513,11.66576 -11.18513,15.71437 0,2.19585 1.02958,4.32281 3.36267,4.32281 3.36243,0 5.90104,-5.55817 7.61654,-9.12643 1.32904,-2.77889 2.8864,-6.29349 4.68768,-10.50192 -0.88814,0.80011 -1.73172,1.29876 -2.53202,1.50492 -1.29783,2.94173 -2.51865,5.83271 -3.73405,8.37923 -2.19585,4.59758 -4.18537,7.9604 -6.03815,7.9604 -1.23515,0 -1.64735,-1.37281 -1.64735,-2.60798 0,-3.29379 2.53924,-9.12655 10.36196,-14.20447 1.45538,-0.9531 2.79374,-1.79397 4.32282,-2.74442 5.55355,-3.08531 8.44791,-4.8427 11.56852,-7.81745 -0.16249,0.8443 -0.24595,1.65108 -0.24595,2.39606 0,2.81344 1.4409,5.76425 4.73464,5.76425 2.81711,0 5.35983,-1.80518 7.48415,-3.99794 -0.53669,-0.0854 -1.06284,-0.3104 -1.5679,-0.81668 -1.56732,1.52439 -3.59153,3.0993 -5.91625,3.09929 -2.05855,0 -3.01925,-1.92169 -3.01925,-4.04892 0,-4.11723 2.95087,-10.36175 8.02887,-13.72415 0.27439,-0.20586 0.41182,-0.48023 0.41182,-0.7547 0,-0.41173 -0.41182,-0.82318 -0.89213,-0.82318 z m -60.93479,1.09758 c 0.89207,0 1.64669,0.13764 2.19565,0.27489 -1.09792,1.78413 -3.29349,5.6267 -4.80312,9.40082 -1.92138,3.22518 -6.03891,8.64613 -9.88166,8.64613 -1.78411,0 -2.67595,-1.57805 -2.67595,-3.36218 0,-6.17584 7.68545,-14.95966 15.16508,-14.95966 z m 45.49526,0.20591 c 0.6176,0 1.09768,0.0689 1.50941,0.13745 -2.81345,6.17584 -8.02851,16.12596 -13.31231,17.63562 -0.48032,0.13723 -0.96094,0.20542 -1.50992,0.20542 -1.6469,0 -2.5385,-1.16622 -2.5385,-2.95035 0,-2.19586 1.23513,-5.28367 3.97996,-8.44021 4.80343,-5.55826 9.26377,-6.58793 11.87136,-6.58793 z"
         sodipodi:nodetypes="sccccsscsscsccssccsscsscccsssccssccssccccscsccccsscsssscssssccccssscssccsscsscsscsscsscsscccccsssccssscccccssccccsscccssccsscsssccsssscssscs" />
      <path
         id="path11617"
         style="font-style:normal;font-variant:normal;font-weight:normal;font-stretch:normal;font-size:70.9489px;line-height:1.25;font-family:'Learning Curve';-inkscape-font-specification:'Learning Curve';letter-spacing:0px;word-spacing:0px;fill:#ffffff;fill-opacity:1;stroke:none;stroke-width:1.77373;stroke-linecap:round;stroke-linejoin:round"
         d="m 662.85377,278.36765 c -0.28382,0 -0.63841,0.21297 -0.78033,0.42581 -0.56754,0.70949 -1.27736,1.4902 -2.27066,2.76728 -1.8664,2.28116 -4.2772,5.17156 -6.95875,8.2057 -0.0781,0.0524 -0.16687,0.12605 -0.278,0.23719 -1.70278,1.91562 -9.01031,10.21643 -11.42257,10.21643 -1.20613,0 -1.84486,-1.06438 -1.84486,-2.34146 0,-1.48993 0.63847,-3.61817 1.48985,-5.88853 3.1927,-5.03737 5.32116,-10.14576 5.53402,-10.57144 0.071,-0.14191 0.14211,-0.35472 0.14211,-0.49662 0,-0.35475 -0.28398,-0.56761 -0.63873,-0.70951 -0.1419,-0.071 -1.56078,-0.70952 -3.90208,-0.70952 -5.17927,0 -10.14563,3.4055 -13.76402,7.73338 l -10.99725,13.3382 c -0.14192,0.1419 -0.21291,0.35508 -0.21291,0.56793 0,0.42569 0.42577,0.85111 0.92242,0.85111 0.21286,0 0.49683,-0.0709 0.63873,-0.28371 l 6.17223,-7.44967 c -0.21283,0.85139 -0.28372,1.63182 -0.28372,2.41225 0,2.97986 1.56081,5.32113 4.61161,5.32113 3.54746,0 6.45639,-2.90877 8.65582,-5.60483 -0.071,0.56759 -0.1416,0.99318 -0.1416,1.48983 0,2.05751 1.13516,4.115 3.61838,4.115 2.66867,0 6.24997,-3.69545 12.51501,-10.5823 0.10004,-0.0448 0.19293,-0.10728 0.2558,-0.20154 2.76698,-3.12175 5.24983,-6.03064 7.16544,-8.4429 0.35476,1.06423 1.27752,1.34772 2.19986,1.34772 h 1.48984 c 0.85137,0 0.99322,0.28383 0.99322,0.70952 0,0.42569 -0.21283,0.9934 -0.4966,1.63194 -0.92236,1.91562 -2.62517,4.75372 -2.62517,4.75372 -1.34802,2.12847 -3.47678,5.67555 -3.47678,7.87497 0,1.56087 1.20663,2.90887 2.90936,2.90887 0.63854,0 1.34754,-0.21266 1.91513,-0.56741 2.15868,-1.52906 4.7984,-4.22402 7.02283,-6.62699 -0.18523,0.77731 -0.28268,1.526 -0.28268,2.22829 0,2.55416 1.56075,4.82451 4.3987,4.82451 3.54746,0 6.38551,-2.62513 8.86873,-5.53403 l -1.02732,2.25258 c 0.75522,-0.62309 1.48298,-1.28037 2.56987,-1.49035 l 6.97169,-15.73237 c 0.071,-0.1419 0.1416,-0.35487 0.1416,-0.42582 0,-0.35475 -0.2835,-0.56761 -0.6382,-0.70951 -0.1419,-0.071 -1.2771,-0.49661 -3.12182,-0.49661 -3.12176,0 -8.23031,1.20632 -13.62244,7.37887 -0.78833,0.90376 -1.47952,1.83348 -2.07325,2.76676 -0.0762,0.0439 -0.14674,0.092 -0.19688,0.14211 -2.62511,2.62511 -6.38564,7.30762 -10.00405,9.93273 -0.28379,0.21285 -0.63812,0.2837 -0.92191,0.2837 -0.56754,0 -1.13533,-0.42584 -1.13533,-1.13533 0,-1.63183 1.77361,-4.54081 3.19257,-6.95306 1.34802,-2.27038 3.40548,-5.7466 3.40548,-7.59127 0,-1.20613 -0.99344,-2.19935 -2.34146,-2.19935 h -1.48982 c -0.42569,0 -0.92244,1e-4 -0.92244,-0.2837 0,-0.21285 0.0711,-0.85142 0.63873,-1.91565 0.21283,-0.35474 0.35502,-0.70943 0.35502,-0.99322 0,-0.35475 -0.2839,-0.78083 -0.92242,-0.78083 z m 47.96092,1.20613 c -4.0441,0 -6.2431,6.81124 -6.2431,10.28774 0,2.83796 0.8511,4.96647 2.5539,6.24355 1.1451,0.73059 2.5204,1.26745 3.7605,1.27692 3.4765,0 6.6693,-2.90858 9.5782,-6.17223 0.073,-0.0732 0.1263,-0.16588 0.1618,-0.26717 2.5028,-2.86573 6.479,-7.49765 7.9969,-8.60154 0.7804,-0.56759 1.3484,-0.78031 1.774,-0.78031 0.6386,0 0.7803,0.56758 0.7803,1.20612 0,3.0508 -3.9731,11.70652 -6.7401,16.88579 -0.2838,0.56759 -0.355,0.78023 -0.355,1.06402 0,0.56759 0.2839,0.92242 0.9224,0.92242 0.2128,0 0.6385,-0.0712 0.9932,-0.63872 1.2062,-1.98656 4.2569,-7.73324 7.7334,-12.13207 3.1218,-3.90219 6.6694,-7.16597 10.004,-7.16597 0.7805,0 1.2062,0.14204 1.2062,1.13533 0,1.77372 -1.6318,5.32103 -2.9089,8.01708 -1.5609,3.3346 -2.9802,6.38539 -2.9802,8.4429 0,1.20613 0.7807,2.55436 2.5544,2.55436 3.4765,0 8.8687,-6.03056 12.9837,-10.64224 0.1419,-0.1419 0.2129,-0.35508 0.2129,-0.56793 0,-0.49663 -0.284,-0.92242 -0.8516,-0.92242 -0.2129,0 -0.4963,0.14232 -0.6382,0.28422 -4.186,4.68263 -9.1528,10.07432 -11.636,10.07432 -0.5676,0 -0.8511,-0.28337 -0.8511,-0.92191 0,-1.63183 1.4901,-5.03762 2.838,-7.59178 0.9933,-1.91562 3.0505,-6.38556 3.0505,-9.08162 0,-1.63182 -1.2769,-2.55385 -2.9797,-2.55385 -4.3278,0 -8.585,3.90183 -12.4162,9.0811 0.7094,-1.84467 1.7027,-4.89515 1.7027,-6.17223 0,-1.41898 -0.9219,-3.05098 -2.6247,-3.05098 -0.8513,0 -1.8447,0.42584 -2.838,1.13533 -1.7028,1.27708 -6.0307,6.24366 -8.4429,9.08162 -0.073,0.0732 -0.1458,0.18428 -0.1995,0.30386 -3.2058,3.61704 -5.7515,5.30097 -7.9597,5.30097 -1.0172,0.006 -1.9128,-0.33551 -2.7668,-0.92243 -1.6318,-1.13519 -1.8448,-3.47648 -1.8448,-4.82451 0,-2.83796 1.8444,-8.51369 4.4695,-8.51369 1.2061,0 1.3482,2.3414 1.3482,3.33468 0,3.14242 -1.3368,6.17294 -3.2199,8.94467 0.312,0.56657 0.8595,0.83617 1.6257,0.82992 1.8413,-2.85467 3.3677,-6.23638 3.3677,-9.84591 0,-1.84467 -0.5676,-5.03741 -3.1217,-5.03741 z m -5.9593,0.56792 c -0.142,0 -0.284,0.0707 -0.4259,0.14159 -3.7341,2.46012 -6.3516,6.08985 -7.8047,9.60924 -0.054,0.0353 -0.1035,0.073 -0.1415,0.1111 -4.1151,4.46978 -6.6695,5.8885 -11.70683,8.7974 -2.26679,1.29767 -4.73649,2.87411 -6.59805,4.11499 -8.37197,5.39211 -11.56467,12.0616 -11.56467,16.24759 0,2.27036 1.06452,4.46949 3.47678,4.46949 3.47652,0 6.10127,-5.74677 7.87498,-9.43611 1.37414,-2.87318 2.98434,-6.50704 4.84674,-10.85826 -0.91828,0.82725 -1.79048,1.34282 -2.61794,1.55598 -1.34186,3.04155 -2.60411,6.03062 -3.86075,8.66355 -2.27036,4.75359 -4.32739,8.23051 -6.24303,8.23051 -1.27706,0 -1.70325,-1.41939 -1.70325,-2.69647 0,-3.40555 2.6254,-9.43623 10.71356,-14.68645 1.50476,-0.98544 2.88853,-1.85485 4.4695,-2.83755 5.74199,-3.19 8.73456,-5.00702 11.96106,-8.08271 -0.168,0.87295 -0.2543,1.70711 -0.2543,2.47737 0,2.9089 1.4898,5.95984 4.8953,5.95984 2.9127,0 5.5417,-1.86644 7.7381,-4.1336 -0.5549,-0.0883 -1.0989,-0.32093 -1.6211,-0.84439 -1.6205,1.57611 -3.7134,3.20446 -6.117,3.20445 -2.1284,0 -3.1217,-1.98689 -3.1217,-4.1863 0,-4.25694 3.051,-10.71335 8.3013,-14.18984 0.2837,-0.21284 0.4258,-0.49652 0.4258,-0.78031 0,-0.4257 -0.4258,-0.85111 -0.9224,-0.85111 z m -63.00242,1.13482 c 0.92234,0 1.70257,0.14231 2.27015,0.28422 -1.13517,1.84467 -3.40524,5.81763 -4.96609,9.71981 -1.98658,3.33461 -6.24383,8.93951 -10.21697,8.93951 -1.84465,0 -2.76675,-1.6316 -2.76675,-3.47627 0,-6.3854 7.94623,-15.46727 15.67966,-15.46727 z m 47.039,0.2129 c 0.63855,0 1.13492,0.0712 1.56062,0.14211 -2.90891,6.3854 -8.30093,16.67315 -13.76402,18.23403 -0.49662,0.14189 -0.99354,0.21239 -1.56115,0.21239 -1.70278,0 -2.62464,-1.20579 -2.62464,-3.05046 0,-2.27037 1.27704,-5.46295 4.11501,-8.7266 4.96642,-5.74686 9.57811,-6.81147 12.27418,-6.81147 z"
         sodipodi:nodetypes="sccccsscsscsccssccsscsscccsssccssccssccccscsccccsscsssscssssccccssscssccsscsscsscsscsscsscccccsssccssscccccssccccsscccssccsscsssccsssscssscs" />
    </g>
  </g>
</svg>
