<?xml version="1.0" encoding="UTF-8" standalone="no"?>
<svg
   xmlns:dc="http://purl.org/dc/elements/1.1/"
   xmlns:cc="http://creativecommons.org/ns#"
   xmlns:rdf="http://www.w3.org/1999/02/22-rdf-syntax-ns#"
   xmlns:svg="http://www.w3.org/2000/svg"
   xmlns="http://www.w3.org/2000/svg"
   xmlns:xlink="http://www.w3.org/1999/xlink"
   xmlns:sodipodi="http://sodipodi.sourceforge.net/DTD/sodipodi-0.dtd"
   xmlns:inkscape="http://www.inkscape.org/namespaces/inkscape"
   width="224.2368mm"
   height="123.23595mm"
   viewBox="0 0 224.2368 123.23595"
   version="1.1"
   id="svg8093"
   sodipodi:docname="xenon.svg"
   inkscape:version="1.0.1 (3bc2e813f5, 2020-09-07)">
  <defs
     id="defs8087">
    <radialGradient
       inkscape:collect="always"
       xlink:href="#linearGradient5532"
       id="radialGradient5534"
       cx="-39.403709"
       cy="157.74825"
       fx="-39.403709"
       fy="157.74825"
       r="112.1184"
       gradientTransform="matrix(0.99999997,0,0,0.54957948,715.07762,58.04134)"
       gradientUnits="userSpaceOnUse" />
    <linearGradient
       inkscape:collect="always"
       id="linearGradient5532">
      <stop
         style="stop-color:#000000;stop-opacity:0.36728094"
         offset="0"
         id="stop5528" />
      <stop
         style="stop-color:#000000;stop-opacity:0.839"
         offset="0.77152729"
         id="stop5536" />
      <stop
         style="stop-color:#000000;stop-opacity:1"
         offset="1"
         id="stop5530" />
    </linearGradient>
    <filter
       inkscape:collect="always"
       style="color-interpolation-filters:sRGB"
       id="filter10906"
       x="-0.062605381"
       width="1.1252108"
       y="-0.39285779"
       height="1.7857156">
      <feGaussianBlur
         inkscape:collect="always"
         stdDeviation="3.6399779"
         id="feGaussianBlur10908" />
    </filter>
    <filter
       inkscape:collect="always"
       style="color-interpolation-filters:sRGB"
       id="filter10910"
       x="-0.027824612"
       width="1.0556492"
       y="-0.17460352"
       height="1.349207">
      <feGaussianBlur
         inkscape:collect="always"
         stdDeviation="1.6177679"
         id="feGaussianBlur10912" />
    </filter>
    <filter
       inkscape:collect="always"
       style="color-interpolation-filters:sRGB"
       id="filter10914"
       x="-0.0069561535"
       width="1.0139123"
       y="-0.043650866"
       height="1.0873017">
      <feGaussianBlur
         inkscape:collect="always"
         stdDeviation="0.40444199"
         id="feGaussianBlur10916" />
    </filter>
  </defs>
  <sodipodi:namedview
     id="base"
     pagecolor="#c4c4c4"
     bordercolor="#666666"
     borderopacity="1.0"
     inkscape:pageopacity="0"
     inkscape:pageshadow="2"
     inkscape:zoom="1"
     inkscape:cx="423.75458"
     inkscape:cy="232.88683"
     inkscape:document-units="px"
     inkscape:current-layer="layer1"
     inkscape:document-rotation="0"
     showgrid="false"
     showborder="false"
     inkscape:window-width="1920"
     inkscape:window-height="1016"
     inkscape:window-x="0"
     inkscape:window-y="27"
     inkscape:window-maximized="1"
     inkscape:snap-global="false"
     fit-margin-top="0"
     fit-margin-left="0"
     fit-margin-right="0"
     fit-margin-bottom="0"
     showguides="true"
     inkscape:guide-bbox="true" />
  <metadata
     id="metadata8090">
    <rdf:RDF>
      <cc:Work
         rdf:about="">
        <dc:format>image/svg+xml</dc:format>
        <dc:type
           rdf:resource="http://purl.org/dc/dcmitype/StillImage" />
        <dc:title></dc:title>
      </cc:Work>
    </rdf:RDF>
  </metadata>
  <g
     inkscape:label="Layer 1"
     inkscape:groupmode="layer"
     id="layer1"
     transform="translate(-563.55548,-83.118568)">
    <rect
       style="opacity:1;fill:#cc00ff;fill-opacity:1;stroke:none;stroke-width:1.06182;stroke-linecap:round;stroke-linejoin:round;stroke-miterlimit:4;stroke-dasharray:none;stroke-opacity:0.823529"
       id="rect5322-3"
       width="224.2368"
       height="123.23595"
       x="563.55548"
       y="83.118568"
       inkscape:export-xdpi="96"
       inkscape:export-ydpi="96" />
    <text
       xml:space="preserve"
       style="font-style:normal;font-weight:normal;font-size:10.5833px;line-height:1.25;font-family:sans-serif;letter-spacing:0px;word-spacing:0px;fill:#000000;fill-opacity:1;stroke:none;stroke-width:0.264583"
       x="-3.6497369"
       y="93.780098"
       id="text8666"><tspan
         sodipodi:role="line"
         id="tspan8664"
         x="-3.6497369"
         y="93.780098"
         style="stroke-width:0.264583" /></text>
    <rect
       style="opacity:1;fill:url(#radialGradient5534);fill-opacity:1;stroke:none;stroke-width:1.06177;stroke-linecap:round;stroke-linejoin:round;stroke-miterlimit:4;stroke-dasharray:none;stroke-opacity:0.823529"
       id="rect5520"
       width="224.2368"
       height="123.23595"
       x="563.55548"
       y="83.118568"
       inkscape:export-xdpi="96"
       inkscape:export-ydpi="96" />
    <g
       id="g10933"
       transform="translate(0,4.7625003)">
      <path
         id="path10895"
         style="font-style:normal;font-variant:normal;font-weight:normal;font-stretch:normal;font-size:70.148px;line-height:1.25;font-family:'Learning Curve';-inkscape-font-specification:'Learning Curve';letter-spacing:0px;word-spacing:0px;fill:#cc00ff;fill-opacity:1;stroke:#cc00ff;stroke-width:6.61458;stroke-linecap:round;stroke-linejoin:round;stroke-miterlimit:4;stroke-dasharray:none;stroke-opacity:1;filter:url(#filter10906)"
         d="m 701.95192,133.61808 c -3.99843,0 -6.17275,6.73422 -6.17275,10.17148 0,2.80592 0.84187,4.9106 2.52544,6.17326 l 1.54305,0.84181 c 0.77163,0.2806 1.47307,0.42065 2.17454,0.42065 3.43728,0 6.59418,-2.87618 9.47023,-6.10299 0.0724,-0.0725 0.12517,-0.16387 0.1602,-0.26406 2.4746,-2.83339 6.40578,-7.41296 7.90649,-8.5044 0.77163,-0.56118 1.333,-0.77152 1.7539,-0.77152 0.63132,0 0.77152,0.56135 0.77152,1.19269 0,3.01636 -3.92842,11.5743 -6.66419,16.6951 -0.28059,0.56119 -0.35089,0.77154 -0.35089,1.05213 0,0.56119 0.28078,0.9121 0.9121,0.9121 0.21045,0 0.63111,-0.0703 0.98184,-0.63149 1.19253,-1.96415 4.20931,-7.64596 7.64657,-11.99514 3.08652,-3.85814 6.59402,-7.08535 9.89086,-7.08535 0.77163,0 1.19219,0.14034 1.19219,1.12241 0,1.7537 -1.61311,5.26154 -2.87578,7.92717 -1.54327,3.29695 -2.94654,6.313 -2.94662,8.34729 0,1.19252 0.77174,2.52543 2.52545,2.52543 3.43726,0 8.76835,-5.96274 12.83695,-10.52236 0.14018,-0.1403 0.21082,-0.35076 0.21082,-0.56121 0,-0.49103 -0.28062,-0.91157 -0.8418,-0.91157 -0.21045,0 -0.4912,0.14031 -0.63148,0.28061 -4.13874,4.62976 -9.04904,9.96063 -11.50422,9.96063 -0.56118,0 -0.84179,-0.28024 -0.84179,-0.91157 0,-1.61341 1.4732,-4.98068 2.80601,-7.506 0.98208,-1.894 3.01635,-6.31316 3.01635,-8.97879 0,-1.6134 -1.26251,-2.52542 -2.94608,-2.52542 -4.27889,0 -8.48823,3.85797 -12.27624,8.97878 0.70149,-1.82385 1.68362,-4.84033 1.68362,-6.10299 0,-1.40296 -0.91165,-3.01635 -2.59519,-3.01635 -0.84177,0 -1.82396,0.42093 -2.80604,1.12241 -1.68354,1.26266 -5.96278,6.17338 -8.34782,8.9793 -0.0723,0.0724 -0.14374,0.18248 -0.19687,0.30075 -3.16955,3.57608 -5.68653,5.24051 -7.86979,5.24051 -0.35076,0 -0.70142,-0.0699 -1.05215,-0.14004 l -1.68362,-0.77153 c -1.6134,-1.12237 -1.82417,-3.43744 -1.82417,-4.77025 0,-2.80592 1.82391,-8.41757 4.41936,-8.41758 1.19253,0 1.33273,2.31489 1.33273,3.29696 0,3.06897 -1.28857,6.03049 -3.11454,8.74365 l 1.6459,0.75654 c 1.77257,-2.78722 3.22254,-6.07143 3.22254,-9.57047 0,-1.82385 -0.56129,-4.98058 -3.08663,-4.98058 z m -36.75745,0.21033 c -0.84177,0 -1.82396,0.42093 -2.80601,1.12241 -1.66868,1.25149 -5.87714,6.07647 -8.27392,8.89403 -0.0271,0.0256 -0.0522,0.0535 -0.0734,0.0853 -6.24316,7.15509 -11.7848,10.17147 -15.08175,10.17147 -2.38503,0 -3.43752,-1.61369 -3.43752,-3.99872 0.0401,-2.36264 0.56489,-3.89893 1.40301,-6.03271 1.40298,-3.0865 4.91045,-8.41757 8.55813,-8.41757 0.63135,0 1.82367,0.28051 1.82367,1.33273 0,1.83314 -2.68986,4.82643 -8.9793,6.70037 -0.43188,0.48454 -0.81727,1.02541 -0.81701,2.03398 7.71827,-1.93259 11.5502,-5.61148 11.5502,-8.66407 0,-1.96414 -1.40298,-3.15691 -3.57756,-3.15691 -4.3598,0 -8.40187,5.07365 -10.40193,10.13013 -0.58193,1.92676 -1.30451,4.01282 -1.3126,5.93401 0,3.08651 1.4728,5.89214 5.33096,5.89214 4.32834,0 10.25458,-3.89326 16.11942,-10.63759 0.0312,-0.0282 0.0607,-0.059 0.0847,-0.0951 2.45518,-2.80592 6.59424,-7.64609 8.1375,-8.76846 0.77163,-0.56118 1.3325,-0.77153 1.75337,-0.77153 0.63135,0 0.77155,0.56136 0.77155,1.19269 0,3.01637 -3.92792,11.5743 -6.66369,16.69511 -0.28059,0.56118 -0.35089,0.77154 -0.35089,1.05213 0,0.56118 0.28078,0.91209 0.9121,0.91209 0.21045,0 0.63111,-0.0703 0.98184,-0.63149 1.19253,-1.96414 4.20881,-7.64595 7.64606,-11.99513 3.0865,-3.85814 6.5939,-7.08536 9.89087,-7.08536 0.7716,0 1.19269,0.14034 1.19269,1.12242 0,1.7537 -1.61364,5.26154 -2.87631,7.92716 -1.54324,3.29696 -2.94609,6.313 -2.94609,8.3473 0,1.19251 0.77174,2.52542 2.52545,2.52542 2.8121,0 6.88427,-3.99052 10.50322,-7.93905 -0.12597,0.74231 -0.19172,1.45365 -0.19172,2.11667 0,2.87607 1.47344,5.89266 4.84053,5.89266 2.8362,0 5.40067,-1.78892 7.552,-3.98425 l -1.64177,-0.80719 c -1.58292,1.51622 -3.60023,3.03754 -5.91023,3.03754 -2.10442,0 -3.08663,-1.96417 -3.08663,-4.13876 0,-4.20888 3.0163,-10.59238 8.20727,-14.02964 0.28059,-0.21044 0.42063,-0.49093 0.42063,-0.77153 0,-0.42088 -0.42053,-0.84181 -0.91157,-0.84181 -0.14028,0 -0.28085,0.0704 -0.42116,0.14056 -3.72097,2.45146 -6.32177,6.07718 -7.75147,9.58237 -0.0106,0.009 -0.0251,0.0184 -0.0346,0.0279 -4.13874,4.62976 -9.04904,9.96063 -11.50422,9.96063 -0.56118,0 -0.84182,-0.28024 -0.84182,-0.91157 0,-1.61341 1.47272,-4.98068 2.80554,-7.50601 0.98205,-1.89399 3.01635,-6.31315 3.01635,-8.97878 0,-1.6134 -1.26254,-2.52542 -2.94608,-2.52542 -4.27903,0 -8.48776,3.85797 -12.27574,8.97878 0.70149,-1.82385 1.68362,-4.84033 1.68362,-6.10299 0,-1.40296 -0.91215,-3.01635 -2.59572,-3.01635 z m -47.49012,0.21084 c -0.77163,0 -1.61337,0.21008 -2.45515,0.63097 -2.06893,1.11403 -5.85155,5.45414 -9.17463,9.51518 -0.61902,0.94308 0.59372,1.79168 1.28934,1.18494 3.27379,-4.03702 6.94946,-8.32698 8.72709,-9.15655 0.4209,-0.21044 0.98227,-0.42116 1.47331,-0.42116 0.70149,0 1.3326,0.35092 1.54305,1.19269 0.52835,1.40889 0.61346,3.92363 0.66871,6.11229 0.39632,-0.62764 0.80364,-1.24528 1.74355,-1.37976 -0.087,-2.09307 -0.26945,-3.95212 -0.79891,-5.36402 -0.4209,-1.12236 -1.40295,-2.31458 -3.01636,-2.31458 z m 15.71326,0 c -0.21045,0 -0.49069,0.07 -0.63097,0.21032 -1.12237,0.84178 -6.03317,4.62959 -11.22413,8.69818 l -1.75337,1.40301 c -5.33125,4.27903 -10.17177,8.69836 -11.15385,9.89087 -0.0702,0.1403 -0.14005,0.28087 -0.14005,0.42116 0,0.42089 0.35079,0.91158 0.84183,0.91158 0.35073,0 0.56107,-0.2102 0.77152,-0.42065 0.77163,-0.91192 4.69964,-4.48955 9.75032,-8.55813 l 1.7539,-1.40302 c 4.06857,-3.22681 8.55826,-6.73407 12.20597,-9.53998 0.28059,-0.1403 0.42063,-0.42118 0.42063,-0.70177 0,-0.42089 -0.28062,-0.91157 -0.8418,-0.91157 z m -0.56017,12.42043 c -3.04409,3.31499 -5.35041,5.71254 -7.15616,7.01042 -0.49104,0.35074 -0.98174,0.49093 -1.47278,0.49093 -0.98208,0 -1.68375,-0.6314 -2.03449,-1.68362 -0.45516,-1.36549 -0.53829,-3.42644 -0.55448,-5.57744 -1.42332,0.40919 -1.4288,0.9407 -1.73789,1.35289 0.0547,1.76119 0.22249,3.39118 0.60875,4.71548 0.49102,1.54325 1.82412,3.01635 3.71811,3.01635 0.84177,0 1.68352,-0.35026 2.45515,-0.84129 1.48579,-1.06128 3.17683,-2.71842 5.23431,-4.90616 -0.084,-1.23983 0.45489,-2.40546 0.93948,-3.57756 z"
         sodipodi:nodetypes="ssccsccssscssccsscsscsscsscsscsscccsccsssccssscccsccssccssccsccssscssccsscsscssccsscsscccsscsscssssccccscccsssccccssccccssccsscccsccc" />
      <path
         id="path10782"
         style="font-style:normal;font-variant:normal;font-weight:normal;font-stretch:normal;font-size:70.148px;line-height:1.25;font-family:'Learning Curve';-inkscape-font-specification:'Learning Curve';letter-spacing:0px;word-spacing:0px;fill:#dd55ff;fill-opacity:1;stroke:#dd55ff;stroke-width:5.02708;stroke-linecap:round;stroke-linejoin:round;stroke-miterlimit:4;stroke-dasharray:none;stroke-opacity:1;filter:url(#filter10910)"
         d="m 701.95192,133.61809 c -3.99843,0 -6.17275,6.73422 -6.17275,10.17147 0,2.80592 0.84187,4.9106 2.52544,6.17327 l 1.54305,0.8418 c 0.77163,0.2806 1.47307,0.42065 2.17454,0.42065 3.43728,0 6.59418,-2.87618 9.47023,-6.10299 0.0724,-0.0724 0.12517,-0.16387 0.1602,-0.26406 2.4746,-2.83339 6.40578,-7.41296 7.90649,-8.50439 0.77163,-0.56119 1.333,-0.77153 1.7539,-0.77153 0.63132,0 0.77152,0.56136 0.77152,1.19269 0,3.01636 -3.92842,11.5743 -6.66419,16.69511 -0.28059,0.56118 -0.35089,0.77154 -0.35089,1.05213 0,0.56118 0.28078,0.91209 0.9121,0.91209 0.21045,0 0.63111,-0.0703 0.98184,-0.63149 1.19253,-1.96414 4.20931,-7.64596 7.64657,-11.99513 3.08652,-3.85814 6.59402,-7.08536 9.89086,-7.08536 0.77163,0 1.19219,0.14034 1.19219,1.12241 0,1.7537 -1.61311,5.26154 -2.87578,7.92717 -1.54327,3.29695 -2.94654,6.313 -2.94662,8.34729 0,1.19252 0.77174,2.52543 2.52545,2.52543 3.43726,0 8.76835,-5.96274 12.83695,-10.52236 0.14018,-0.14029 0.21082,-0.35076 0.21082,-0.5612 0,-0.49104 -0.28062,-0.91157 -0.8418,-0.91157 -0.21045,0 -0.4912,0.1403 -0.63148,0.2806 -4.13874,4.62977 -9.04904,9.96062 -11.50422,9.96062 -0.56118,0 -0.84179,-0.28023 -0.84179,-0.91156 0,-1.6134 1.4732,-4.98067 2.80601,-7.506 0.98208,-1.894 3.01635,-6.31316 3.01635,-8.97878 0,-1.61341 -1.26251,-2.52543 -2.94608,-2.52543 -4.27889,0 -8.48823,3.85798 -12.27624,8.97878 0.70149,-1.82385 1.68362,-4.84032 1.68362,-6.10299 0,-1.40296 -0.91165,-3.01635 -2.59519,-3.01635 -0.84177,0 -1.82396,0.42093 -2.80604,1.12241 -1.68354,1.26267 -5.96278,6.17338 -8.34782,8.9793 -0.0723,0.0724 -0.14374,0.18248 -0.19687,0.30076 -3.16955,3.57607 -5.68653,5.2405 -7.86979,5.2405 -0.35076,0 -0.70142,-0.0699 -1.05215,-0.14004 l -1.68362,-0.77154 c -1.6134,-1.12236 -1.82417,-3.43744 -1.82417,-4.77025 0,-2.80591 1.82391,-8.41757 4.41936,-8.41757 1.19253,0 1.33273,2.31488 1.33273,3.29696 0,3.06898 -1.28857,6.03049 -3.11454,8.74365 l 1.6459,0.75655 c 1.77257,-2.78723 3.22254,-6.07144 3.22254,-9.57048 0,-1.82385 -0.56129,-4.98057 -3.08663,-4.98057 z m -36.75745,0.21032 c -0.84177,0 -1.82396,0.42093 -2.80601,1.12241 -1.66868,1.25149 -5.87714,6.07648 -8.27392,8.89403 -0.0271,0.0256 -0.0522,0.0535 -0.0734,0.0853 -6.24316,7.1551 -11.7848,10.17146 -15.08175,10.17146 -2.38503,0 -3.43752,-1.61369 -3.43752,-3.99871 0.0401,-2.36263 0.56489,-3.89892 1.40301,-6.03272 1.40298,-3.0865 4.91045,-8.41757 8.55813,-8.41757 0.63135,0 1.82367,0.28052 1.82367,1.33273 0,1.83314 -2.68986,4.82644 -8.9793,6.70037 -0.43188,0.48454 -0.81727,1.02542 -0.81701,2.03399 7.71827,-1.9326 11.5502,-5.61149 11.5502,-8.66407 0,-1.96415 -1.40298,-3.15692 -3.57756,-3.15692 -4.3598,0 -8.40187,5.07365 -10.40193,10.13013 -0.58193,1.92677 -1.30451,4.01282 -1.3126,5.93401 0,3.08651 1.4728,5.89214 5.33096,5.89214 4.32834,0 10.25458,-3.89326 16.11942,-10.63759 0.0312,-0.0282 0.0607,-0.059 0.0847,-0.0951 2.45518,-2.80592 6.59424,-7.64609 8.1375,-8.76846 0.77163,-0.56118 1.3325,-0.77153 1.75337,-0.77153 0.63135,0 0.77155,0.56136 0.77155,1.19269 0,3.01637 -3.92792,11.57431 -6.66369,16.69511 -0.28059,0.56118 -0.35089,0.77154 -0.35089,1.05213 0,0.56119 0.28078,0.91209 0.9121,0.91209 0.21045,0 0.63111,-0.0703 0.98184,-0.63148 1.19253,-1.96415 4.20881,-7.64596 7.64606,-11.99514 3.0865,-3.85814 6.5939,-7.08536 9.89087,-7.08536 0.7716,0 1.19269,0.14035 1.19269,1.12242 0,1.7537 -1.61364,5.26154 -2.87631,7.92716 -1.54324,3.29696 -2.94609,6.313 -2.94609,8.3473 0,1.19251 0.77174,2.52542 2.52545,2.52542 2.8121,0 6.88427,-3.99052 10.50322,-7.93905 -0.12597,0.74231 -0.19172,1.45365 -0.19172,2.11667 0,2.87607 1.47344,5.89266 4.84053,5.89266 2.8362,0 5.40067,-1.78891 7.552,-3.98425 l -1.64177,-0.80718 c -1.58292,1.51621 -3.60023,3.03754 -5.91023,3.03754 -2.10442,0 -3.08663,-1.96418 -3.08663,-4.13877 0,-4.20888 3.0163,-10.59238 8.20727,-14.02963 0.28059,-0.21045 0.42063,-0.49094 0.42063,-0.77153 0,-0.42089 -0.42053,-0.84181 -0.91157,-0.84181 -0.14028,0 -0.28085,0.0704 -0.42116,0.14056 -3.72097,2.45145 -6.32177,6.07717 -7.75147,9.58236 -0.0106,0.009 -0.0251,0.0184 -0.0346,0.0279 -4.13874,4.62976 -9.04904,9.96063 -11.50422,9.96063 -0.56118,0 -0.84182,-0.28024 -0.84182,-0.91157 0,-1.6134 1.47272,-4.98067 2.80554,-7.506 0.98205,-1.894 3.01635,-6.31316 3.01635,-8.97878 0,-1.61341 -1.26254,-2.52543 -2.94608,-2.52543 -4.27903,0 -8.48776,3.85798 -12.27574,8.97878 0.70149,-1.82385 1.68362,-4.84033 1.68362,-6.10299 0,-1.40296 -0.91215,-3.01635 -2.59572,-3.01635 z m -47.49012,0.21084 c -0.77163,0 -1.61337,0.21008 -2.45515,0.63097 -2.06893,1.11403 -5.85155,5.45414 -9.17463,9.51518 -0.61902,0.94309 0.59372,1.79169 1.28934,1.18494 3.27379,-4.03702 6.94946,-8.32697 8.72709,-9.15655 0.4209,-0.21044 0.98227,-0.42116 1.47331,-0.42116 0.70149,0 1.3326,0.35092 1.54305,1.19269 0.52835,1.40889 0.61346,3.92363 0.66871,6.11229 0.39632,-0.62763 0.80364,-1.24528 1.74355,-1.37976 -0.087,-2.09307 -0.26945,-3.95212 -0.79891,-5.36401 -0.4209,-1.12237 -1.40295,-2.31459 -3.01636,-2.31459 z m 15.71326,0 c -0.21045,0 -0.49069,0.07 -0.63097,0.21032 -1.12237,0.84178 -6.03317,4.6296 -11.22413,8.69818 l -1.75337,1.40301 c -5.33125,4.27903 -10.17177,8.69836 -11.15385,9.89087 -0.0702,0.1403 -0.14005,0.28087 -0.14005,0.42117 0,0.42089 0.35079,0.91157 0.84183,0.91157 0.35073,0 0.56107,-0.2102 0.77152,-0.42066 0.77163,-0.91192 4.69964,-4.48955 9.75032,-8.55813 l 1.7539,-1.40302 c 4.06857,-3.2268 8.55826,-6.73406 12.20597,-9.53997 0.28059,-0.1403 0.42063,-0.42118 0.42063,-0.70178 0,-0.42088 -0.28062,-0.91157 -0.8418,-0.91156 z m -0.56017,12.42043 c -3.04409,3.315 -5.35041,5.71254 -7.15616,7.01043 -0.49104,0.35074 -0.98174,0.49092 -1.47278,0.49092 -0.98208,0 -1.68375,-0.6314 -2.03449,-1.68362 -0.45516,-1.36548 -0.53829,-3.42643 -0.55448,-5.57743 -1.42332,0.40918 -1.4288,0.94069 -1.73789,1.35288 0.0547,1.76119 0.22249,3.39118 0.60875,4.71548 0.49102,1.54325 1.82412,3.01635 3.71811,3.01635 0.84177,0 1.68352,-0.35025 2.45515,-0.84129 1.48579,-1.06128 3.17683,-2.71842 5.23431,-4.90616 -0.084,-1.23983 0.45489,-2.40546 0.93948,-3.57756 z"
         sodipodi:nodetypes="ssccsccssscssccsscsscsscsscsscsscccsccsssccssscccsccssccssccsccssscssccsscsscssccsscsscccsscsscssssccccscccsssccccssccccssccsscccsccc" />
      <path
         id="path10899"
         style="font-style:normal;font-variant:normal;font-weight:normal;font-stretch:normal;font-size:70.148px;line-height:1.25;font-family:'Learning Curve';-inkscape-font-specification:'Learning Curve';letter-spacing:0px;word-spacing:0px;fill:#eeaaff;fill-opacity:0.847059;stroke:#eeaaff;stroke-width:0.79375;stroke-linecap:round;stroke-linejoin:round;stroke-miterlimit:4;stroke-dasharray:none;stroke-opacity:0.847059;filter:url(#filter10914)"
         d="m 701.95192,133.61808 c -3.99843,0 -6.17275,6.73422 -6.17275,10.17147 0,2.80592 0.84187,4.9106 2.52544,6.17327 l 1.54305,0.84181 c 0.77163,0.28059 1.47307,0.42064 2.17454,0.42064 3.43728,0 6.59418,-2.87618 9.47023,-6.10298 0.0724,-0.0725 0.12517,-0.16387 0.1602,-0.26407 2.4746,-2.83339 6.40578,-7.41296 7.90649,-8.50439 0.77163,-0.56119 1.333,-0.77153 1.7539,-0.77153 0.63132,0 0.77152,0.56136 0.77152,1.19269 0,3.01636 -3.92842,11.5743 -6.66419,16.69511 -0.28059,0.56118 -0.35089,0.77154 -0.35089,1.05213 0,0.56118 0.28078,0.91209 0.9121,0.91209 0.21045,0 0.63111,-0.0703 0.98184,-0.63149 1.19253,-1.96414 4.20931,-7.64596 7.64657,-11.99513 3.08652,-3.85814 6.59402,-7.08536 9.89086,-7.08536 0.77163,0 1.19219,0.14034 1.19219,1.12241 0,1.7537 -1.61311,5.26154 -2.87578,7.92717 -1.54327,3.29695 -2.94654,6.313 -2.94662,8.34729 0,1.19252 0.77174,2.52543 2.52545,2.52543 3.43726,0 8.76835,-5.96273 12.83695,-10.52235 0.14018,-0.1403 0.21082,-0.35077 0.21082,-0.56121 0,-0.49104 -0.28062,-0.91157 -0.8418,-0.91157 -0.21045,0 -0.4912,0.1403 -0.63148,0.2806 -4.13874,4.62977 -9.04904,9.96063 -11.50422,9.96063 -0.56118,0 -0.84179,-0.28024 -0.84179,-0.91157 0,-1.6134 1.4732,-4.98067 2.80601,-7.506 0.98208,-1.894 3.01635,-6.31316 3.01635,-8.97878 0,-1.61341 -1.26251,-2.52543 -2.94608,-2.52543 -4.27889,0 -8.48823,3.85798 -12.27624,8.97878 0.70149,-1.82385 1.68362,-4.84032 1.68362,-6.10299 0,-1.40295 -0.91165,-3.01635 -2.59519,-3.01635 -0.84177,0 -1.82396,0.42093 -2.80604,1.12241 -1.68354,1.26267 -5.96278,6.17338 -8.34782,8.9793 -0.0723,0.0724 -0.14374,0.18249 -0.19687,0.30076 -3.16955,3.57607 -5.68653,5.2405 -7.86979,5.2405 -0.35076,0 -0.70142,-0.0699 -1.05215,-0.14004 l -1.68362,-0.77153 c -1.6134,-1.12237 -1.82417,-3.43744 -1.82417,-4.77025 0,-2.80592 1.82391,-8.41757 4.41936,-8.41758 1.19253,0 1.33273,2.31489 1.33273,3.29696 0,3.06898 -1.28857,6.03049 -3.11454,8.74366 l 1.6459,0.75654 c 1.77257,-2.78723 3.22254,-6.07144 3.22254,-9.57048 0,-1.82385 -0.56129,-4.98057 -3.08663,-4.98057 z m -36.75745,0.21032 c -0.84177,0 -1.82396,0.42093 -2.80601,1.12241 -1.66868,1.2515 -5.87714,6.07648 -8.27392,8.89403 -0.0271,0.0256 -0.0522,0.0535 -0.0734,0.0853 -6.24316,7.1551 -11.7848,10.17147 -15.08175,10.17147 -2.38503,0 -3.43752,-1.61369 -3.43752,-3.99872 0.0401,-2.36263 0.56489,-3.89892 1.40301,-6.03271 1.40298,-3.0865 4.91045,-8.41757 8.55813,-8.41757 0.63135,0 1.82367,0.28052 1.82367,1.33274 0,1.83313 -2.68986,4.82643 -8.9793,6.70036 -0.43188,0.48454 -0.81727,1.02542 -0.81701,2.03399 7.71827,-1.9326 11.5502,-5.61149 11.5502,-8.66407 0,-1.96415 -1.40298,-3.15692 -3.57756,-3.15692 -4.3598,0 -8.40187,5.07365 -10.40193,10.13014 -0.58193,1.92676 -1.30451,4.01281 -1.3126,5.934 0,3.08651 1.4728,5.89215 5.33096,5.89215 4.32834,0 10.25458,-3.89327 16.11942,-10.6376 0.0312,-0.0282 0.0607,-0.059 0.0847,-0.0951 2.45518,-2.80592 6.59424,-7.64609 8.1375,-8.76846 0.77163,-0.56118 1.3325,-0.77153 1.75337,-0.77153 0.63135,0 0.77155,0.56136 0.77155,1.1927 0,3.01636 -3.92792,11.5743 -6.66369,16.6951 -0.28059,0.56119 -0.35089,0.77154 -0.35089,1.05213 0,0.56119 0.28078,0.91209 0.9121,0.91209 0.21045,0 0.63111,-0.0703 0.98184,-0.63148 1.19253,-1.96415 4.20881,-7.64596 7.64606,-11.99514 3.0865,-3.85814 6.5939,-7.08535 9.89087,-7.08535 0.7716,0 1.19269,0.14034 1.19269,1.12241 0,1.7537 -1.61364,5.26154 -2.87631,7.92716 -1.54324,3.29696 -2.94609,6.313 -2.94609,8.3473 0,1.19251 0.77174,2.52543 2.52545,2.52543 2.8121,0 6.88427,-3.99052 10.50322,-7.93905 -0.12597,0.7423 -0.19172,1.45365 -0.19172,2.11666 0,2.87607 1.47344,5.89266 4.84053,5.89266 2.8362,0 5.40067,-1.78891 7.552,-3.98425 l -1.64177,-0.80718 c -1.58292,1.51621 -3.60023,3.03754 -5.91023,3.03754 -2.10442,0 -3.08663,-1.96418 -3.08663,-4.13877 0,-4.20888 3.0163,-10.59238 8.20727,-14.02963 0.28059,-0.21045 0.42063,-0.49094 0.42063,-0.77153 0,-0.42089 -0.42053,-0.84181 -0.91157,-0.84181 -0.14028,0 -0.28085,0.0704 -0.42116,0.14056 -3.72097,2.45145 -6.32177,6.07718 -7.75147,9.58236 -0.0106,0.009 -0.0251,0.0184 -0.0346,0.0279 -4.13874,4.62977 -9.04904,9.96063 -11.50422,9.96063 -0.56118,0 -0.84182,-0.28024 -0.84182,-0.91157 0,-1.6134 1.47272,-4.98067 2.80554,-7.506 0.98205,-1.894 3.01635,-6.31316 3.01635,-8.97878 0,-1.61341 -1.26254,-2.52543 -2.94608,-2.52543 -4.27903,0 -8.48776,3.85798 -12.27574,8.97878 0.70149,-1.82385 1.68362,-4.84032 1.68362,-6.10299 0,-1.40296 -0.91215,-3.01635 -2.59572,-3.01635 z m -47.49012,0.21084 c -0.77163,0 -1.61337,0.21008 -2.45515,0.63097 -2.06893,1.11404 -5.85155,5.45414 -9.17463,9.51518 -0.61902,0.94309 0.59372,1.79169 1.28934,1.18494 3.27379,-4.03702 6.94946,-8.32697 8.72709,-9.15654 0.4209,-0.21045 0.98227,-0.42117 1.47331,-0.42117 0.70149,0 1.3326,0.35092 1.54305,1.19269 0.52835,1.40889 0.61346,3.92363 0.66871,6.11229 0.39632,-0.62763 0.80364,-1.24528 1.74355,-1.37976 -0.087,-2.09307 -0.26945,-3.95212 -0.79891,-5.36401 -0.4209,-1.12237 -1.40295,-2.31459 -3.01636,-2.31459 z m 15.71326,0 c -0.21045,0 -0.49069,0.07 -0.63097,0.21032 -1.12237,0.84178 -6.03317,4.6296 -11.22413,8.69818 l -1.75337,1.40302 c -5.33125,4.27902 -10.17177,8.69835 -11.15385,9.89086 -0.0702,0.1403 -0.14005,0.28087 -0.14005,0.42117 0,0.42089 0.35079,0.91157 0.84183,0.91157 0.35073,0 0.56107,-0.2102 0.77152,-0.42065 0.77163,-0.91192 4.69964,-4.48955 9.75032,-8.55813 l 1.7539,-1.40302 c 4.06857,-3.2268 8.55826,-6.73406 12.20597,-9.53998 0.28059,-0.1403 0.42063,-0.42118 0.42063,-0.70177 0,-0.42089 -0.28062,-0.91157 -0.8418,-0.91157 z m -0.56017,12.42043 c -3.04409,3.315 -5.35041,5.71254 -7.15616,7.01043 -0.49104,0.35074 -0.98174,0.49092 -1.47278,0.49092 -0.98208,0 -1.68375,-0.6314 -2.03449,-1.68361 -0.45516,-1.36549 -0.53829,-3.42644 -0.55448,-5.57744 -1.42332,0.40918 -1.4288,0.94069 -1.73789,1.35289 0.0547,1.76118 0.22249,3.39117 0.60875,4.71547 0.49102,1.54326 1.82412,3.01635 3.71811,3.01635 0.84177,0 1.68352,-0.35025 2.45515,-0.84129 1.48579,-1.06128 3.17683,-2.71841 5.23431,-4.90616 -0.084,-1.23983 0.45489,-2.40546 0.93948,-3.57756 z"
         sodipodi:nodetypes="ssccsccssscssccsscsscsscsscsscsscccsccsssccssscccsccssccssccsccssscssccsscsscssccsscsscccsscsscssssccccscccsssccccssccccssccsscccsccc" />
      <path
         id="path10926"
         style="font-style:normal;font-variant:normal;font-weight:normal;font-stretch:normal;font-size:70.148px;line-height:1.25;font-family:'Learning Curve';-inkscape-font-specification:'Learning Curve';letter-spacing:0px;word-spacing:0px;opacity:0.15;fill:#000000;fill-opacity:1;stroke:none;stroke-width:1.67353;stroke-linecap:round;stroke-linejoin:round"
         d="m 700.7505,136.36169 c -3.81562,0 -5.89053,6.42635 -5.89053,9.70645 0,2.67763 0.80338,4.68609 2.40998,5.89102 l 1.4725,0.80332 c 0.73635,0.26777 1.40572,0.40142 2.07512,0.40142 3.28013,0 6.2927,-2.74468 9.03725,-5.82397 0.0691,-0.0692 0.11945,-0.15637 0.15288,-0.25198 2.36146,-2.70385 6.11291,-7.07405 7.54501,-8.11558 0.73635,-0.53553 1.27206,-0.73626 1.67371,-0.73626 0.60246,0 0.73625,0.53569 0.73625,1.13817 0,2.87845 -3.74882,11.04513 -6.35951,15.93181 -0.26776,0.53553 -0.33485,0.73627 -0.33485,1.00403 0,0.53553 0.26795,0.87039 0.8704,0.87039 0.20083,0 0.60226,-0.0671 0.93695,-0.60262 1.13801,-1.87435 4.01687,-7.29639 7.29698,-11.44671 2.9454,-3.68176 6.29254,-6.76143 9.43865,-6.76143 0.73635,0 1.13769,0.13392 1.13769,1.0711 0,1.67352 -1.53936,5.02098 -2.74431,7.56474 -1.47271,3.14622 -2.81182,6.02438 -2.8119,7.96566 0,1.138 0.73646,2.40997 2.40999,2.40997 3.28011,0 8.36747,-5.69013 12.25005,-10.04129 0.13377,-0.13387 0.20118,-0.33472 0.20118,-0.53554 0,-0.46859 -0.26779,-0.8699 -0.80331,-0.8699 -0.20083,0 -0.46874,0.13389 -0.60261,0.26778 -3.94952,4.41809 -8.63532,9.50523 -10.97825,9.50523 -0.53553,0 -0.80331,-0.26742 -0.80331,-0.86989 0,-1.53964 1.40585,-4.75296 2.67772,-7.16283 0.93718,-1.80741 2.87845,-6.02452 2.87845,-8.56827 0,-1.53965 -1.20479,-2.40998 -2.81139,-2.40998 -4.08326,0 -8.10015,3.6816 -11.71497,8.56828 0.66941,-1.74046 1.60664,-4.61903 1.60664,-5.82396 0,-1.33882 -0.86997,-2.87845 -2.47654,-2.87845 -0.80328,0 -1.74057,0.40169 -2.67775,1.0711 -1.60657,1.20493 -5.69016,5.89114 -7.96616,8.56877 -0.069,0.0691 -0.13717,0.17414 -0.18787,0.28701 -3.02464,3.41257 -5.42654,5.00091 -7.50999,5.00091 -0.33472,0 -0.66935,-0.0667 -1.00404,-0.13364 l -1.60665,-0.73626 c -1.53963,-1.07105 -1.74077,-3.28028 -1.74077,-4.55215 0,-2.67764 1.74052,-8.03273 4.21731,-8.03274 1.13801,0 1.2718,2.20906 1.2718,3.14623 0,2.92867 -1.22966,5.75478 -2.97214,8.34389 l 1.57065,0.72195 c 1.69152,-2.65979 3.0752,-5.79384 3.0752,-9.13291 0,-1.74046 -0.53563,-4.75287 -2.94551,-4.75287 z m -35.07692,0.20071 c -0.80328,0 -1.74056,0.40169 -2.67772,1.0711 -1.59238,1.19427 -5.60844,5.79866 -7.89564,8.4874 -0.0259,0.0244 -0.0498,0.0511 -0.07,0.0814 -5.95773,6.82797 -11.24601,9.70643 -14.39222,9.70643 -2.27599,0 -3.28036,-1.53991 -3.28036,-3.8159 0.0383,-2.25462 0.53906,-3.72067 1.33887,-5.75689 1.33883,-2.94539 4.68594,-8.03274 8.16685,-8.03274 0.60249,0 1.7403,0.2677 1.7403,1.27181 0,1.74933 -2.56689,4.60577 -8.56878,6.39403 -0.41213,0.46239 -0.7799,0.97853 -0.77965,1.94099 7.36539,-1.84423 11.02213,-5.35492 11.02213,-8.26795 0,-1.87435 -1.33884,-3.01258 -3.414,-3.01258 -4.16047,0 -8.01774,4.84169 -9.92636,9.66699 -0.55532,1.83867 -1.24486,3.82935 -1.25258,5.66271 0,2.94539 1.40546,5.62275 5.08723,5.62275 4.13045,0 9.78574,-3.71526 15.38244,-10.15124 0.0298,-0.0269 0.0579,-0.0563 0.0808,-0.0908 2.34293,-2.67763 6.29276,-7.29651 7.76546,-8.36757 0.73635,-0.53553 1.27158,-0.73625 1.67321,-0.73625 0.60248,0 0.73627,0.53569 0.73627,1.13816 0,2.87846 -3.74834,11.04514 -6.35903,15.93182 -0.26776,0.53552 -0.33485,0.73626 -0.33485,1.00402 0,0.53553 0.26795,0.87039 0.8704,0.87039 0.20083,0 0.60226,-0.0671 0.93695,-0.60262 1.13801,-1.87434 4.01639,-7.29638 7.29649,-11.44671 2.94539,-3.68175 6.29243,-6.76143 9.43866,-6.76143 0.73633,0 1.13817,0.13393 1.13817,1.07111 0,1.67352 -1.53987,5.02098 -2.74481,7.56473 -1.47268,3.14623 -2.8114,6.02437 -2.8114,7.96567 0,1.13799 0.73646,2.40996 2.40999,2.40996 2.68353,0 6.56953,-3.80808 10.02302,-7.57608 -0.12021,0.70837 -0.18296,1.38719 -0.18296,2.01989 0,2.74458 1.40608,5.62325 4.61923,5.62325 2.70653,0 5.15375,-1.70712 7.20672,-3.80209 l -1.56671,-0.77028 c -1.51055,1.44689 -3.43563,2.89867 -5.64001,2.89867 -2.00821,0 -2.94551,-1.87438 -2.94551,-3.94955 0,-4.01645 2.87839,-10.1081 7.83203,-13.38821 0.26777,-0.20082 0.4014,-0.46849 0.4014,-0.73625 0,-0.40165 -0.4013,-0.80333 -0.86989,-0.80333 -0.13387,0 -0.26801,0.0672 -0.40191,0.13414 -3.55084,2.33938 -6.03274,5.79933 -7.39707,9.14426 -0.0101,0.009 -0.0239,0.0176 -0.033,0.0266 -3.94952,4.41809 -8.63532,9.50523 -10.97825,9.50523 -0.53553,0 -0.80334,-0.26742 -0.80334,-0.86989 0,-1.53965 1.40539,-4.75297 2.67728,-7.16283 0.93715,-1.80741 2.87844,-6.02452 2.87844,-8.56828 0,-1.53964 -1.20482,-2.40997 -2.81139,-2.40997 -4.08339,0 -8.0997,3.68159 -11.71449,8.56828 0.66941,-1.74046 1.60664,-4.61903 1.60664,-5.82396 0,-1.33882 -0.87045,-2.87846 -2.47704,-2.87846 z m -45.31889,0.2012 c -0.73635,0 -1.53961,0.20047 -2.3429,0.60212 -1.97434,1.0631 -5.58402,5.20479 -8.75517,9.08016 -0.59072,0.89996 0.56657,1.70977 1.23039,1.13076 3.12411,-3.85245 6.63173,-7.94626 8.32809,-8.73791 0.40166,-0.20083 0.93736,-0.40191 1.40595,-0.40191 0.66942,0 1.27168,0.33487 1.4725,1.13816 0.5042,1.34448 0.58542,3.74425 0.63814,5.83284 0.3782,-0.59893 0.7669,-1.18834 1.66384,-1.31668 -0.083,-1.99737 -0.25713,-3.77143 -0.76239,-5.11877 -0.40165,-1.07106 -1.3388,-2.20877 -2.87845,-2.20877 z m 14.99486,0 c -0.20083,0 -0.46826,0.0668 -0.60213,0.20071 -1.07105,0.80328 -5.75733,4.41793 -10.71096,8.3005 l -1.67321,1.33887 c -5.08751,4.08339 -9.70672,8.30067 -10.6439,9.43866 -0.067,0.13389 -0.13365,0.26803 -0.13365,0.40192 0,0.40163 0.33475,0.86989 0.80334,0.86989 0.3347,0 0.53542,-0.20059 0.73625,-0.40142 0.73635,-0.87023 4.48477,-4.28429 9.30454,-8.16685 l 1.67371,-1.33888 c 3.88256,-3.07928 8.16698,-6.42618 11.64792,-9.10383 0.26776,-0.13387 0.4014,-0.40191 0.4014,-0.66967 0,-0.40165 -0.26779,-0.8699 -0.80331,-0.8699 z m -0.53456,11.85258 c -2.90492,3.16343 -5.10579,5.45136 -6.82899,6.68991 -0.46859,0.3347 -0.93685,0.46848 -1.40544,0.46848 -0.93718,0 -1.60677,-0.60253 -1.94148,-1.60664 -0.43435,-1.30306 -0.51367,-3.26979 -0.52912,-5.32244 -1.35825,0.39048 -1.36348,0.89769 -1.65844,1.29103 0.0522,1.68067 0.21232,3.23614 0.58092,4.49989 0.46857,1.47269 1.74072,2.87844 3.54812,2.87844 0.80328,0 1.60655,-0.33424 2.3429,-0.80282 1.41786,-1.01276 3.03159,-2.59414 4.995,-4.68185 -0.0802,-1.18315 0.43409,-2.29549 0.89653,-3.414 z"
         sodipodi:nodetypes="ssccsccssscssccsscsscsscsscsscsscccsccsssccssscccsccssccssccsccssscssccsscsscssccsscsscccsscsscssssccccscccsssccccssccccssccsscccsccc" />
      <path
         id="path10897"
         style="font-style:normal;font-variant:normal;font-weight:normal;font-stretch:normal;font-size:70.148px;line-height:1.25;font-family:'Learning Curve';-inkscape-font-specification:'Learning Curve';letter-spacing:0px;word-spacing:0px;fill:#ffffff;fill-opacity:1;stroke:none;stroke-width:1.75371;stroke-linecap:round;stroke-linejoin:round"
         d="m 701.95192,133.61808 c -3.99843,0 -6.17275,6.73423 -6.17275,10.17148 0,2.80592 0.84187,4.9106 2.52544,6.17326 l 1.54305,0.84181 c 0.77163,0.2806 1.47307,0.42065 2.17454,0.42065 3.43728,0 6.59418,-2.87618 9.47023,-6.10299 0.0724,-0.0725 0.12517,-0.16387 0.1602,-0.26406 2.4746,-2.83339 6.40578,-7.41296 7.90649,-8.50439 0.77163,-0.56119 1.333,-0.77154 1.7539,-0.77154 0.63132,0 0.77152,0.56136 0.77152,1.1927 0,3.01636 -3.92842,11.5743 -6.66419,16.6951 -0.28059,0.56119 -0.35089,0.77155 -0.35089,1.05214 0,0.56118 0.28078,0.91209 0.9121,0.91209 0.21045,0 0.63111,-0.0703 0.98184,-0.63149 1.19253,-1.96415 4.20931,-7.64596 7.64657,-11.99513 3.08652,-3.85815 6.59402,-7.08537 9.89086,-7.08537 0.77163,0 1.19219,0.14034 1.19219,1.12242 0,1.7537 -1.61311,5.26154 -2.87578,7.92717 -1.54327,3.29695 -2.94654,6.313 -2.94662,8.34729 0,1.19252 0.77174,2.52543 2.52545,2.52543 3.43726,0 8.76835,-5.96274 12.83695,-10.52236 0.14018,-0.14029 0.21082,-0.35076 0.21082,-0.5612 0,-0.49104 -0.28062,-0.91158 -0.8418,-0.91158 -0.21045,0 -0.4912,0.14031 -0.63148,0.28061 -4.13874,4.62976 -9.04904,9.96063 -11.50422,9.96063 -0.56118,0 -0.84179,-0.28024 -0.84179,-0.91157 0,-1.6134 1.4732,-4.98067 2.80601,-7.506 0.98208,-1.894 3.01635,-6.31316 3.01635,-8.97878 0,-1.61341 -1.26251,-2.52544 -2.94608,-2.52544 -4.27889,0 -8.48823,3.85799 -12.27624,8.97879 0.70149,-1.82385 1.68362,-4.84033 1.68362,-6.10299 0,-1.40296 -0.91165,-3.01636 -2.59519,-3.01636 -0.84177,0 -1.82396,0.42094 -2.80604,1.12242 -1.68354,1.26266 -5.96278,6.17338 -8.34782,8.9793 -0.0723,0.0724 -0.14374,0.18248 -0.19687,0.30076 -3.16955,3.57607 -5.68653,5.2405 -7.86979,5.2405 -0.35076,0 -0.70142,-0.0699 -1.05215,-0.14004 l -1.68362,-0.77153 c -1.6134,-1.12237 -1.82417,-3.43744 -1.82417,-4.77025 0,-2.80592 1.82391,-8.41757 4.41936,-8.41758 1.19253,0 1.33273,2.31489 1.33273,3.29696 0,3.06898 -1.28857,6.03049 -3.11454,8.74365 l 1.6459,0.75654 c 1.77257,-2.78722 3.22254,-6.07143 3.22254,-9.57047 0,-1.82385 -0.56129,-4.98058 -3.08663,-4.98058 z m -36.75745,0.21032 c -0.84177,0 -1.82396,0.42094 -2.80601,1.12242 -1.66868,1.25149 -5.87714,6.07647 -8.27392,8.89403 -0.0271,0.0256 -0.0522,0.0535 -0.0734,0.0853 -6.24316,7.1551 -11.7848,10.17147 -15.08175,10.17147 -2.38503,0 -3.43752,-1.61369 -3.43752,-3.99872 0.0401,-2.36264 0.56489,-3.89893 1.40301,-6.03271 1.40298,-3.0865 4.91045,-8.41758 8.55813,-8.41758 0.63135,0 1.82367,0.28052 1.82367,1.33274 0,1.83314 -2.68986,4.82643 -8.9793,6.70037 -0.43188,0.48454 -0.81727,1.02541 -0.81701,2.03398 7.71827,-1.93259 11.5502,-5.61148 11.5502,-8.66407 0,-1.96415 -1.40298,-3.15691 -3.57756,-3.15691 -4.3598,0 -8.40187,5.07365 -10.40193,10.13013 -0.58193,1.92677 -1.30451,4.01282 -1.3126,5.93401 0,3.08651 1.4728,5.89214 5.33096,5.89214 4.32834,0 10.25458,-3.89326 16.11942,-10.63759 0.0312,-0.0282 0.0607,-0.059 0.0847,-0.0951 2.45518,-2.80592 6.59424,-7.64609 8.1375,-8.76846 0.77163,-0.56119 1.3325,-0.77153 1.75337,-0.77153 0.63135,0 0.77155,0.56136 0.77155,1.19269 0,3.01637 -3.92792,11.57431 -6.66369,16.69511 -0.28059,0.56118 -0.35089,0.77154 -0.35089,1.05213 0,0.56118 0.28078,0.91209 0.9121,0.91209 0.21045,0 0.63111,-0.0703 0.98184,-0.63149 1.19253,-1.96414 4.20881,-7.64595 7.64606,-11.99513 3.0865,-3.85814 6.5939,-7.08536 9.89087,-7.08536 0.7716,0 1.19269,0.14034 1.19269,1.12242 0,1.7537 -1.61364,5.26154 -2.87631,7.92716 -1.54324,3.29696 -2.94609,6.313 -2.94609,8.3473 0,1.19251 0.77174,2.52542 2.52545,2.52542 2.8121,0 6.88427,-3.99052 10.50322,-7.93905 -0.12597,0.74231 -0.19172,1.45365 -0.19172,2.11667 0,2.87607 1.47344,5.89266 4.84053,5.89266 2.8362,0 5.40067,-1.78891 7.552,-3.98425 l -1.64177,-0.80719 c -1.58292,1.51622 -3.60023,3.03755 -5.91023,3.03755 -2.10442,0 -3.08663,-1.96418 -3.08663,-4.13877 0,-4.20888 3.0163,-10.59238 8.20727,-14.02964 0.28059,-0.21044 0.42063,-0.49094 0.42063,-0.77153 0,-0.42089 -0.42053,-0.84181 -0.91157,-0.84181 -0.14028,0 -0.28085,0.0704 -0.42116,0.14056 -3.72097,2.45146 -6.32177,6.07718 -7.75147,9.58237 -0.0106,0.009 -0.0251,0.0184 -0.0346,0.0279 -4.13874,4.62976 -9.04904,9.96063 -11.50422,9.96063 -0.56118,0 -0.84182,-0.28024 -0.84182,-0.91157 0,-1.61341 1.47272,-4.98068 2.80554,-7.506 0.98205,-1.894 3.01635,-6.31316 3.01635,-8.97879 0,-1.6134 -1.26254,-2.52543 -2.94608,-2.52543 -4.27903,0 -8.48776,3.85798 -12.27574,8.97879 0.70149,-1.82385 1.68362,-4.84033 1.68362,-6.10299 0,-1.40296 -0.91215,-3.01636 -2.59572,-3.01636 z m -47.49012,0.21084 c -0.77163,0 -1.61337,0.21008 -2.45515,0.63097 -2.06893,1.11404 -5.85155,5.45415 -9.17463,9.51519 -0.61902,0.94308 0.59372,1.79169 1.28934,1.18494 3.27379,-4.03702 6.94946,-8.32697 8.72709,-9.15655 0.4209,-0.21045 0.98227,-0.42116 1.47331,-0.42116 0.70149,0 1.3326,0.35091 1.54305,1.19269 0.52835,1.40889 0.61346,3.92363 0.66871,6.11229 0.39632,-0.62763 0.80364,-1.24528 1.74355,-1.37976 -0.087,-2.09307 -0.26945,-3.95212 -0.79891,-5.36401 -0.4209,-1.12238 -1.40295,-2.3146 -3.01636,-2.3146 z m 15.71326,0 c -0.21045,0 -0.49069,0.07 -0.63097,0.21033 -1.12237,0.84177 -6.03317,4.62959 -11.22413,8.69818 l -1.75337,1.40301 c -5.33125,4.27903 -10.17177,8.69836 -11.15385,9.89087 -0.0702,0.1403 -0.14005,0.28087 -0.14005,0.42117 0,0.42088 0.35079,0.91157 0.84183,0.91157 0.35073,0 0.56107,-0.2102 0.77152,-0.42065 0.77163,-0.91192 4.69964,-4.48955 9.75032,-8.55813 l 1.7539,-1.40302 c 4.06857,-3.22681 8.55826,-6.73406 12.20597,-9.53999 0.28059,-0.14029 0.42063,-0.42117 0.42063,-0.70176 0,-0.42089 -0.28062,-0.91158 -0.8418,-0.91158 z m -0.56017,12.42044 c -3.04409,3.31499 -5.35041,5.71254 -7.15616,7.01042 -0.49104,0.35074 -0.98174,0.49093 -1.47278,0.49093 -0.98208,0 -1.68375,-0.6314 -2.03449,-1.68362 -0.45516,-1.36549 -0.53829,-3.42644 -0.55448,-5.57743 -1.42332,0.40918 -1.4288,0.94069 -1.73789,1.35288 0.0547,1.76119 0.22249,3.39118 0.60875,4.71548 0.49102,1.54325 1.82412,3.01635 3.71811,3.01635 0.84177,0 1.68352,-0.35026 2.45515,-0.84129 1.48579,-1.06128 3.17683,-2.71842 5.23431,-4.90616 -0.084,-1.23983 0.45489,-2.40546 0.93948,-3.57756 z"
         sodipodi:nodetypes="ssccsccssscssccsscsscsscsscsscsscccsccsssccssscccsccssccssccsccssscssccsscsscssccsscsscccsscsscssssccccscccsssccccssccccssccsscccsccc" />
    </g>
  </g>
</svg>
